Asar-Regular.ufo
<glyph name="dollar" format="1">
  <advance width="527"/>
  <unicode hex="0024"/>
  <outline>
    <contour>
      <point x="62" y="33" type="curve" smooth="yes" name="hr01"/>
      <point x="87" y="12"/>
      <point x="155" y="-7"/>
      <point x="211" y="-14" type="curve"/>
      <point x="196" y="-118" type="line" name="hr02"/>
      <point x="204" y="-122"/>
      <point x="221" y="-130"/>
      <point x="240" y="-130" type="curve" smooth="yes"/>
      <point x="252" y="-130"/>
      <point x="264" y="-127"/>
      <point x="277" y="-118" type="curve"/>
      <point x="278" y="-13" type="line"/>
      <point x="388" y="0"/>
      <point x="484" y="79"/>
      <point x="484" y="179" type="curve" smooth="yes"/>
      <point x="484" y="421"/>
      <point x="133" y="329"/>
      <point x="133" y="520" type="curve" smooth="yes"/>
      <point x="133" y="581"/>
      <point x="190" y="614"/>
      <point x="251" y="614" type="curve" smooth="yes"/>
      <point x="328" y="614"/>
      <point x="376" y="590"/>
      <point x="399" y="553" type="curve"/>
      <point x="399" y="553"/>
      <point x="413" y="483"/>
      <point x="429" y="483" type="curve" smooth="yes"/>
      <point x="456" y="483"/>
      <point x="452" y="562"/>
      <point x="452" y="592" type="curve" smooth="yes"/>
      <point x="452" y="628"/>
      <point x="384" y="664"/>
      <point x="319" y="671" type="curve"/>
      <point x="332" y="763" type="line"/>
      <point x="324" y="767"/>
      <point x="307" y="775"/>
      <point x="288" y="775" type="curve" smooth="yes"/>
      <point x="276" y="775"/>
      <point x="264" y="772"/>
      <point x="251" y="763" type="curve"/>
      <point x="249" y="668" type="line"/>
      <point x="146" y="652"/>
      <point x="62" y="585"/>
      <point x="62" y="490" type="curve" smooth="yes"/>
      <point x="62" y="243"/>
      <point x="409" y="353"/>
      <point x="409" y="142" type="curve" smooth="yes"/>
      <point x="409" y="91"/>
      <point x="347" y="45"/>
      <point x="287" y="45" type="curve" smooth="yes"/>
      <point x="181" y="45"/>
      <point x="124" y="76"/>
      <point x="113" y="112" type="curve"/>
      <point x="113" y="112"/>
      <point x="98" y="188"/>
      <point x="82" y="188" type="curve" smooth="yes"/>
      <point x="73" y="188"/>
      <point x="63" y="183"/>
      <point x="63" y="171" type="curve" smooth="yes"/>
      <point x="62" y="138"/>
      <point x="58" y="56"/>
      <point x="58" y="49" type="curve" smooth="yes"/>
      <point x="58" y="40"/>
      <point x="60" y="34"/>
    </contour>
  </outline>
</glyph>
<glyph name="percent" format="1">
  <advance width="948"/>
  <unicode hex="0025"/>
  <outline>
    <contour>
      <point x="288" y="-86" type="curve" smooth="yes" name="hr01"/>
      <point x="288" y="-98"/>
      <point x="296" y="-102"/>
      <point x="307" y="-102" type="curve" smooth="yes"/>
      <point x="324" y="-102"/>
      <point x="347" y="-91"/>
      <point x="356" y="-77" type="curve"/>
      <point x="658" y="737" type="line"/>
      <point x="659" y="744"/>
      <point x="660" y="750"/>
      <point x="660" y="754" type="curve" smooth="yes"/>
      <point x="660" y="764"/>
      <point x="656" y="768"/>
      <point x="645" y="768" type="curve" smooth="yes"/>
      <point x="625" y="768"/>
      <point x="595" y="752"/>
      <point x="585" y="736" type="curve"/>
      <point x="293" y="-68" type="line" smooth="yes"/>
      <point x="290" y="-76"/>
      <point x="288" y="-82"/>
    </contour>
    <contour>
      <point x="223" y="273" type="curve" smooth="yes" name="hr02"/>
      <point x="364" y="273"/>
      <point x="422" y="384"/>
      <point x="422" y="485" type="curve" smooth="yes"/>
      <point x="422" y="575"/>
      <point x="378" y="672"/>
      <point x="255" y="672" type="curve" smooth="yes"/>
      <point x="131" y="672"/>
      <point x="62" y="568"/>
      <point x="62" y="458" type="curve" smooth="yes"/>
      <point x="62" y="332"/>
      <point x="132" y="273"/>
    </contour>
    <contour>
      <point x="258" y="320" type="curve" smooth="yes"/>
      <point x="169" y="320"/>
      <point x="143" y="410"/>
      <point x="143" y="485" type="curve" smooth="yes"/>
      <point x="143" y="547"/>
      <point x="160" y="625"/>
      <point x="225" y="625" type="curve" smooth="yes"/>
      <point x="314" y="625"/>
      <point x="339" y="535"/>
      <point x="339" y="458" type="curve" smooth="yes"/>
      <point x="339" y="387"/>
      <point x="319" y="320"/>
    </contour>
    <contour>
      <point x="524" y="168" type="curve" smooth="yes" name="hr03"/>
      <point x="524" y="42"/>
      <point x="597" y="-17"/>
      <point x="688" y="-17" type="curve" smooth="yes"/>
      <point x="825" y="-17"/>
      <point x="887" y="93"/>
      <point x="887" y="195" type="curve" smooth="yes"/>
      <point x="887" y="285"/>
      <point x="840" y="382"/>
      <point x="720" y="382" type="curve" smooth="yes"/>
      <point x="596" y="382"/>
      <point x="524" y="278"/>
    </contour>
    <contour>
      <point x="608" y="195" type="curve" smooth="yes"/>
      <point x="608" y="258"/>
      <point x="622" y="335"/>
      <point x="690" y="335" type="curve" smooth="yes"/>
      <point x="779" y="335"/>
      <point x="804" y="245"/>
      <point x="804" y="168" type="curve" smooth="yes"/>
      <point x="804" y="97"/>
      <point x="784" y="30"/>
      <point x="722" y="30" type="curve" smooth="yes"/>
      <point x="631" y="30"/>
      <point x="608" y="120"/>
    </contour>
  </outline>
</glyph>
<glyph name="ampersand" format="1">
  <advance width="708"/>
  <unicode hex="0026"/>
  <outline>
    <contour>
      <point x="60" y="127" type="curve" name="hr01"/>
      <point x="63" y="29"/>
      <point x="162" y="-23"/>
      <point x="264" y="-23" type="curve" smooth="yes" name="hr02"/>
      <point x="343" y="-23"/>
      <point x="417" y="12"/>
      <point x="476" y="63" type="curve"/>
      <point x="521" y="26"/>
      <point x="569" y="-4"/>
      <point x="611" y="-4" type="curve" smooth="yes" name="hr03"/>
      <point x="616" y="-4"/>
      <point x="620" y="-4"/>
      <point x="625" y="-3" type="curve" smooth="yes"/>
      <point x="634" y="-1"/>
      <point x="692" y="23"/>
      <point x="692" y="33" type="curve" smooth="yes"/>
      <point x="692" y="35"/>
      <point x="684" y="54"/>
      <point x="677" y="54" type="curve" smooth="yes"/>
      <point x="672" y="54" type="line"/>
      <point x="669" y="53"/>
      <point x="666" y="53"/>
      <point x="663" y="53" type="curve" smooth="yes"/>
      <point x="618" y="53"/>
      <point x="568" y="92"/>
      <point x="533" y="124" type="curve"/>
      <point x="587" y="192"/>
      <point x="608" y="263"/>
      <point x="608" y="327" type="curve" smooth="yes"/>
      <point x="608" y="347"/>
      <point x="606" y="373"/>
      <point x="594" y="373" type="curve" smooth="yes"/>
      <point x="571" y="373"/>
      <point x="532" y="345"/>
      <point x="525" y="331" type="curve"/>
      <point x="532" y="318"/>
      <point x="535" y="302"/>
      <point x="535" y="284" type="curve" smooth="yes"/>
      <point x="535" y="240"/>
      <point x="518" y="189"/>
      <point x="499" y="157" type="curve"/>
      <point x="443" y="208"/>
      <point x="373" y="267"/>
      <point x="315" y="329" type="curve"/>
      <point x="393" y="374"/>
      <point x="468" y="431"/>
      <point x="468" y="541" type="curve" smooth="yes"/>
      <point x="468" y="615"/>
      <point x="410" y="672"/>
      <point x="334" y="672" type="curve" smooth="yes"/>
      <point x="222" y="672"/>
      <point x="126" y="577"/>
      <point x="126" y="499" type="curve" smooth="yes"/>
      <point x="126" y="441"/>
      <point x="162" y="378"/>
      <point x="212" y="319" type="curve"/>
      <point x="138" y="274"/>
      <point x="60" y="216"/>
    </contour>
    <contour>
      <point x="286" y="363" type="line" name="hr05"/>
      <point x="240" y="418"/>
      <point x="208" y="476"/>
      <point x="208" y="533" type="curve" smooth="yes"/>
      <point x="208" y="567"/>
      <point x="231" y="617"/>
      <point x="282" y="617" type="curve" smooth="yes"/>
      <point x="357" y="617"/>
      <point x="394" y="571"/>
      <point x="394" y="503" type="curve" smooth="yes"/>
      <point x="394" y="443"/>
      <point x="359" y="407"/>
      <point x="316" y="381" type="curve" smooth="yes"/>
    </contour>
    <contour>
      <point x="147" y="172" type="curve" smooth="yes" name="hr06"/>
      <point x="147" y="223"/>
      <point x="188" y="256"/>
      <point x="240" y="287" type="curve"/>
      <point x="306" y="216"/>
      <point x="353" y="173"/>
      <point x="440" y="94" type="curve"/>
      <point x="402" y="64"/>
      <point x="355" y="42"/>
      <point x="309" y="42" type="curve" smooth="yes"/>
      <point x="223" y="42"/>
      <point x="147" y="84"/>
    </contour>
  </outline>
</glyph>
<glyph name="asterisk" format="1">
  <advance width="694"/>
  <unicode hex="002A"/>
  <outline>
    <contour>
      <point x="190" y="334" type="curve" smooth="yes" name="hr01"/>
      <point x="208" y="334"/>
      <point x="236" y="346"/>
      <point x="243" y="353" type="curve"/>
      <point x="266" y="389"/>
      <point x="298" y="442"/>
      <point x="321" y="485" type="curve"/>
      <point x="336" y="522" type="line"/>
      <point x="341" y="509"/>
      <point x="345" y="480"/>
      <point x="351" y="461" type="curve" smooth="yes"/>
      <point x="370" y="404"/>
      <point x="398" y="308"/>
      <point x="423" y="308" type="curve" smooth="yes"/>
      <point x="442" y="308"/>
      <point x="469" y="333"/>
      <point x="469" y="353" type="curve"/>
      <point x="468" y="361" type="line"/>
      <point x="418" y="460" type="line" name="hr02"/>
      <point x="372" y="531" type="line"/>
      <point x="411" y="525"/>
      <point x="486" y="506"/>
      <point x="540" y="502" type="curve" name="hr03"/>
      <point x="556" y="504"/>
      <point x="599" y="527"/>
      <point x="599" y="546" type="curve" smooth="yes"/>
      <point x="599" y="552"/>
      <point x="595" y="555"/>
      <point x="587" y="562" type="curve"/>
      <point x="541" y="565"/>
      <point x="479" y="568"/>
      <point x="430" y="570" type="curve"/>
      <point x="364" y="568" type="line"/>
      <point x="418" y="627" type="line"/>
      <point x="445" y="661"/>
      <point x="503" y="724"/>
      <point x="503" y="749" type="curve" smooth="yes"/>
      <point x="503" y="759"/>
      <point x="495" y="764"/>
      <point x="484" y="764" type="curve" smooth="yes"/>
      <point x="418" y="764"/>
      <point x="371" y="634"/>
      <point x="343" y="588" type="curve"/>
      <point x="338" y="603"/>
      <point x="332" y="635"/>
      <point x="326" y="654" type="curve" smooth="yes"/>
      <point x="314" y="693"/>
      <point x="298" y="737"/>
      <point x="280" y="776" type="curve"/>
      <point x="275" y="779"/>
      <point x="270" y="780"/>
      <point x="265" y="780" type="curve" smooth="yes"/>
      <point x="242" y="780"/>
      <point x="220" y="749"/>
      <point x="220" y="729" type="curve"/>
      <point x="235" y="694"/>
      <point x="255" y="656"/>
      <point x="274" y="621" type="curve" name="hr04"/>
      <point x="306" y="576" type="line"/>
      <point x="271" y="583"/>
      <point x="200" y="601"/>
      <point x="153" y="601" type="curve" smooth="yes"/>
      <point x="135" y="601"/>
      <point x="94" y="581"/>
      <point x="94" y="557" type="curve" smooth="yes"/>
      <point x="94" y="550"/>
      <point x="97" y="544"/>
      <point x="105" y="542" type="curve"/>
      <point x="144" y="538"/>
      <point x="195" y="536"/>
      <point x="237" y="536" type="curve" smooth="yes"/>
      <point x="259" y="536"/>
      <point x="297" y="539"/>
      <point x="313" y="539" type="curve"/>
      <point x="254" y="470" type="line"/>
      <point x="173" y="359" type="line"/>
      <point x="171" y="354"/>
      <point x="170" y="350"/>
      <point x="170" y="347" type="curve" smooth="yes"/>
      <point x="170" y="337"/>
      <point x="178" y="334"/>
    </contour>
  </outline>
</glyph>
<glyph name="period" format="1">
  <advance width="246"/>
  <unicode hex="002E"/>
  <outline>
    <contour>
      <point x="61" y="25" type="curve" smooth="yes" name="hr00"/>
      <point x="61" y="16"/>
      <point x="77" y="-16"/>
      <point x="138" y="-16" type="curve" smooth="yes"/>
      <point x="167" y="-16"/>
      <point x="198" y="18"/>
      <point x="198" y="42" type="curve" smooth="yes"/>
      <point x="198" y="61"/>
      <point x="182" y="89"/>
      <point x="117" y="89" type="curve" smooth="yes"/>
      <point x="89" y="89"/>
      <point x="61" y="48"/>
    </contour>
  </outline>
</glyph>
<glyph name="five" format="1">
  <advance width="550"/>
  <unicode hex="0035"/>
  <outline>
    <contour>
      <point x="51" y="102" type="curve" name="hr00"/>
      <point x="65" y="17"/>
      <point x="148" y="-17"/>
      <point x="221" y="-17" type="curve" smooth="yes"/>
      <point x="372" y="-17"/>
      <point x="490" y="100"/>
      <point x="490" y="249" type="curve" smooth="yes"/>
      <point x="490" y="349"/>
      <point x="426" y="425"/>
      <point x="316" y="425" type="curve" smooth="yes"/>
      <point x="280" y="425"/>
      <point x="204" y="406"/>
      <point x="163" y="388" type="curve"/>
      <point x="190" y="590" type="line"/>
      <point x="423" y="590" type="line" smooth="yes"/>
      <point x="440" y="590"/>
      <point x="453" y="627"/>
      <point x="453" y="645" type="curve" smooth="yes"/>
      <point x="453" y="652"/>
      <point x="447" y="658"/>
      <point x="436" y="658" type="curve" smooth="yes"/>
      <point x="149" y="658" type="line" smooth="yes"/>
      <point x="121" y="658"/>
      <point x="103" y="639"/>
      <point x="103" y="608" type="curve"/>
      <point x="79" y="334" type="line"/>
      <point x="83" y="323"/>
      <point x="91" y="323"/>
      <point x="99" y="323" type="curve" smooth="yes"/>
      <point x="108" y="323"/>
      <point x="119" y="326"/>
      <point x="128" y="331" type="curve" smooth="yes"/>
      <point x="168" y="353"/>
      <point x="214" y="363"/>
      <point x="253" y="363" type="curve" smooth="yes"/>
      <point x="352" y="363"/>
      <point x="400" y="298"/>
      <point x="400" y="211" type="curve" smooth="yes"/>
      <point x="400" y="101"/>
      <point x="358" y="44"/>
      <point x="264" y="44" type="curve" smooth="yes"/>
      <point x="204" y="44"/>
      <point x="127" y="92"/>
      <point x="116" y="155" type="curve"/>
      <point x="113" y="158"/>
      <point x="107" y="159"/>
      <point x="101" y="159" type="curve" smooth="yes"/>
      <point x="75" y="159"/>
      <point x="51" y="125"/>
    </contour>
  </outline>
</glyph>
<glyph name="six" format="1">
  <advance width="585"/>
  <unicode hex="0036"/>
  <outline>
    <contour>
      <point x="49" y="254" type="curve" smooth="yes" name="hr00"/>
      <point x="49" y="148"/>
      <point x="127" y="-17"/>
      <point x="278" y="-17" type="curve" smooth="yes"/>
      <point x="433" y="-17"/>
      <point x="526" y="119"/>
      <point x="526" y="231" type="curve" smooth="yes"/>
      <point x="526" y="339"/>
      <point x="471" y="428"/>
      <point x="342" y="428" type="curve" smooth="yes"/>
      <point x="308" y="428"/>
      <point x="218" y="412"/>
      <point x="186" y="360" type="curve"/>
      <point x="182" y="352"/>
      <point x="177" y="345"/>
      <point x="177" y="341" type="curve" smooth="yes"/>
      <point x="177" y="341"/>
      <point x="185" y="329"/>
      <point x="193" y="329" type="curve" smooth="yes"/>
      <point x="195" y="329"/>
      <point x="197" y="329"/>
      <point x="199" y="331" type="curve" smooth="yes"/>
      <point x="219" y="347"/>
      <point x="253" y="366"/>
      <point x="303" y="366" type="curve" smooth="yes"/>
      <point x="384" y="366"/>
      <point x="430" y="310"/>
      <point x="430" y="194" type="curve" smooth="yes"/>
      <point x="430" y="120"/>
      <point x="404" y="44"/>
      <point x="321" y="44" type="curve" smooth="yes"/>
      <point x="191" y="44"/>
      <point x="143" y="203"/>
      <point x="143" y="292" type="curve" smooth="yes"/>
      <point x="143" y="451"/>
      <point x="183" y="560"/>
      <point x="397" y="597" type="curve"/>
      <point x="415" y="605"/>
      <point x="443" y="637"/>
      <point x="443" y="662" type="curve" smooth="yes"/>
      <point x="443" y="668"/>
      <point x="437" y="672"/>
      <point x="423" y="672" type="curve" smooth="yes"/>
      <point x="413" y="672" type="line"/>
      <point x="207" y="638"/>
      <point x="49" y="472"/>
    </contour>
  </outline>
</glyph>
<glyph name="less" format="1">
  <advance width="566"/>
  <unicode hex="003C"/>
  <outline>
    <contour>
      <point x="95" y="224" type="curve" name="hr00"/>
      <point x="451" y="37" type="line"/>
      <point x="459" y="37"/>
      <point x="482" y="49"/>
      <point x="482" y="70" type="curve" smooth="yes"/>
      <point x="482" y="106"/>
      <point x="251" y="219"/>
      <point x="153" y="283" type="curve"/>
      <point x="248" y="345"/>
      <point x="482" y="475"/>
      <point x="482" y="496" type="curve" smooth="yes"/>
      <point x="482" y="515"/>
      <point x="457" y="528"/>
      <point x="451" y="528" type="curve"/>
      <point x="95" y="325" type="line"/>
      <point x="75" y="317"/>
      <point x="63" y="304"/>
      <point x="63" y="276" type="curve" smooth="yes"/>
      <point x="63" y="249"/>
      <point x="72" y="236"/>
    </contour>
  </outline>
</glyph>
<glyph name="greater" format="1">
  <advance width="566"/>
  <unicode hex="003E"/>
  <outline>
    <contour>
      <point x="63" y="70" type="curve" smooth="yes" name="hr00"/>
      <point x="63" y="50"/>
      <point x="85" y="37"/>
      <point x="91" y="37" type="curve"/>
      <point x="447" y="240" type="line"/>
      <point x="470" y="248"/>
      <point x="482" y="262"/>
      <point x="482" y="290" type="curve" smooth="yes"/>
      <point x="482" y="316"/>
      <point x="473" y="329"/>
      <point x="447" y="341" type="curve"/>
      <point x="91" y="528" type="line"/>
      <point x="84" y="528"/>
      <point x="63" y="516"/>
      <point x="63" y="496" type="curve" smooth="yes"/>
      <point x="63" y="458"/>
      <point x="289" y="346"/>
      <point x="389" y="283" type="curve"/>
      <point x="294" y="220"/>
      <point x="63" y="91"/>
    </contour>
  </outline>
</glyph>
<glyph name="B" format="1">
  <advance width="607"/>
  <unicode hex="0042"/>
  <outline>
    <contour>
      <point x="48" y="24" type="curve" smooth="yes" name="hr01"/>
      <point x="48" y="16"/>
      <point x="51" y="0"/>
      <point x="67" y="0" type="curve" smooth="yes"/>
      <point x="267" y="0" type="line"/>
      <point x="282" y="0" type="line" smooth="yes"/>
      <point x="415" y="0"/>
      <point x="568" y="38"/>
      <point x="568" y="212" type="curve" smooth="yes"/>
      <point x="568" y="266"/>
      <point x="520" y="351"/>
      <point x="398" y="355" type="curve"/>
      <point x="472" y="384"/>
      <point x="518" y="447"/>
      <point x="518" y="502" type="curve" smooth="yes" name="hr02"/>
      <point x="518" y="635"/>
      <point x="406" y="665"/>
      <point x="310" y="665" type="curve" smooth="yes"/>
      <point x="236" y="665"/>
      <point x="234" y="658"/>
      <point x="156" y="658" type="curve" smooth="yes"/>
      <point x="67" y="658" type="line" smooth="yes"/>
      <point x="51" y="658"/>
      <point x="48" y="642"/>
      <point x="48" y="634" type="curve" smooth="yes"/>
      <point x="48" y="618"/>
      <point x="98" y="610"/>
      <point x="112" y="603" type="curve"/>
      <point x="112" y="55" type="line"/>
      <point x="98" y="48"/>
      <point x="48" y="39"/>
    </contour>
    <contour>
      <point x="200" y="368" type="curve"/>
      <point x="200" y="609" type="line"/>
      <point x="217" y="611"/>
      <point x="235" y="612"/>
      <point x="252" y="612" type="curve" smooth="yes"/>
      <point x="391" y="612"/>
      <point x="428" y="581"/>
      <point x="428" y="486" type="curve" smooth="yes" name="hr04"/>
      <point x="428" y="424"/>
      <point x="377" y="366"/>
      <point x="256" y="366" type="curve" smooth="yes"/>
      <point x="234" y="366"/>
      <point x="217" y="366"/>
    </contour>
    <contour>
      <point x="200" y="59" type="curve"/>
      <point x="200" y="317" type="line"/>
      <point x="214" y="318"/>
      <point x="231" y="319"/>
      <point x="248" y="319" type="curve" smooth="yes"/>
      <point x="301" y="319" type="line" smooth="yes"/>
      <point x="306" y="319"/>
      <point x="310" y="319"/>
      <point x="315" y="319" type="curve" smooth="yes"/>
      <point x="434" y="319"/>
      <point x="473" y="281"/>
      <point x="473" y="194" type="curve" smooth="yes"/>
      <point x="473" y="90"/>
      <point x="380" y="53"/>
      <point x="304" y="53" type="curve" smooth="yes"/>
      <point x="269" y="53"/>
      <point x="231" y="54"/>
    </contour>
  </outline>
</glyph>
<glyph name="D" format="1">
  <advance width="648"/>
  <unicode hex="0044"/>
  <outline>
    <contour>
      <point x="48" y="24" type="curve" smooth="yes" name="hr01"/>
      <point x="48" y="16"/>
      <point x="51" y="0"/>
      <point x="67" y="0" type="curve" smooth="yes"/>
      <point x="143" y="0" type="line" smooth="yes"/>
      <point x="213" y="0"/>
      <point x="236" y="-5"/>
      <point x="277" y="-5" type="curve" smooth="yes"/>
      <point x="510" y="-5"/>
      <point x="616" y="174"/>
      <point x="616" y="349" type="curve" smooth="yes" name="hr02"/>
      <point x="616" y="546"/>
      <point x="516" y="665"/>
      <point x="295" y="665" type="curve" smooth="yes"/>
      <point x="240" y="665"/>
      <point x="181" y="658"/>
      <point x="146" y="658" type="curve" smooth="yes"/>
      <point x="67" y="658" type="line" smooth="yes"/>
      <point x="51" y="658"/>
      <point x="48" y="642"/>
      <point x="48" y="634" type="curve" smooth="yes"/>
      <point x="48" y="618"/>
      <point x="98" y="610"/>
      <point x="112" y="603" type="curve"/>
      <point x="112" y="55" type="line" name="hr03"/>
      <point x="98" y="48"/>
      <point x="48" y="39"/>
    </contour>
    <contour>
      <point x="201" y="48" type="curve" name="hr04"/>
      <point x="201" y="611" type="line"/>
      <point x="278" y="611" type="line" smooth="yes"/>
      <point x="457" y="611"/>
      <point x="527" y="484"/>
      <point x="527" y="339" type="curve" smooth="yes"/>
      <point x="527" y="156"/>
      <point x="437" y="45"/>
      <point x="273" y="45" type="curve" smooth="yes"/>
      <point x="240" y="45"/>
      <point x="213" y="48"/>
    </contour>
  </outline>
</glyph>
<glyph name="H" format="1">
  <advance width="718"/>
  <unicode hex="0048"/>
  <outline>
    <contour>
      <point x="48" y="24" type="curve" smooth="yes" name="hr00"/>
      <point x="48" y="16"/>
      <point x="51" y="0"/>
      <point x="67" y="0" type="curve" smooth="yes"/>
      <point x="239" y="0" type="line" smooth="yes"/>
      <point x="263" y="0"/>
      <point x="273" y="16"/>
      <point x="273" y="22" type="curve" smooth="yes"/>
      <point x="273" y="56"/>
      <point x="202" y="33"/>
      <point x="202" y="74" type="curve" smooth="yes"/>
      <point x="202" y="311" type="line"/>
      <point x="507" y="311" type="line" smooth="yes"/>
      <point x="509" y="311"/>
      <point x="513" y="312"/>
      <point x="516" y="313" type="curve"/>
      <point x="516" y="55" type="line"/>
      <point x="502" y="48"/>
      <point x="452" y="39"/>
      <point x="452" y="24" type="curve" smooth="yes"/>
      <point x="452" y="16"/>
      <point x="455" y="0"/>
      <point x="471" y="0" type="curve" smooth="yes"/>
      <point x="643" y="0" type="line" smooth="yes"/>
      <point x="667" y="0"/>
      <point x="677" y="16"/>
      <point x="677" y="22" type="curve" smooth="yes"/>
      <point x="677" y="56"/>
      <point x="606" y="33"/>
      <point x="606" y="74" type="curve" smooth="yes"/>
      <point x="606" y="584" type="line" smooth="yes"/>
      <point x="606" y="625"/>
      <point x="677" y="602"/>
      <point x="677" y="636" type="curve" smooth="yes"/>
      <point x="677" y="642"/>
      <point x="667" y="658"/>
      <point x="643" y="658" type="curve" smooth="yes"/>
      <point x="471" y="658" type="line" smooth="yes"/>
      <point x="455" y="658"/>
      <point x="452" y="642"/>
      <point x="452" y="634" type="curve" smooth="yes"/>
      <point x="452" y="618"/>
      <point x="502" y="610"/>
      <point x="516" y="603" type="curve"/>
      <point x="516" y="365" type="line"/>
      <point x="202" y="365" type="line"/>
      <point x="202" y="588" type="line"/>
      <point x="205" y="621"/>
      <point x="273" y="604"/>
      <point x="273" y="636" type="curve" smooth="yes"/>
      <point x="273" y="642"/>
      <point x="263" y="658"/>
      <point x="239" y="658" type="curve" smooth="yes"/>
      <point x="67" y="658" type="line" smooth="yes"/>
      <point x="51" y="658"/>
      <point x="48" y="642"/>
      <point x="48" y="634" type="curve" smooth="yes"/>
      <point x="48" y="618"/>
      <point x="98" y="610"/>
      <point x="112" y="603" type="curve"/>
      <point x="112" y="55" type="line"/>
      <point x="98" y="48"/>
      <point x="48" y="39"/>
    </contour>
  </outline>
</glyph>
<glyph name="K" format="1">
  <advance width="653"/>
  <unicode hex="004B"/>
  <outline>
    <contour>
      <point x="48" y="24" type="curve" smooth="yes" name="hr01"/>
      <point x="48" y="16"/>
      <point x="51" y="0"/>
      <point x="67" y="0" type="curve" smooth="yes"/>
      <point x="234" y="0" type="line" smooth="yes"/>
      <point x="258" y="0"/>
      <point x="268" y="16"/>
      <point x="268" y="22" type="curve" smooth="yes"/>
      <point x="268" y="56"/>
      <point x="197" y="33"/>
      <point x="197" y="74" type="curve" smooth="yes"/>
      <point x="197" y="222" type="line"/>
      <point x="299" y="341" type="line"/>
      <point x="468" y="55" type="line"/>
      <point x="454" y="48"/>
      <point x="404" y="39"/>
      <point x="404" y="24" type="curve" smooth="yes"/>
      <point x="404" y="16"/>
      <point x="407" y="0"/>
      <point x="423" y="0" type="curve" smooth="yes"/>
      <point x="611" y="0" type="line" smooth="yes"/>
      <point x="635" y="0"/>
      <point x="645" y="16"/>
      <point x="645" y="22" type="curve" smooth="yes"/>
      <point x="645" y="35"/>
      <point x="638" y="38"/>
      <point x="626" y="41" type="curve" smooth="yes"/>
      <point x="596" y="49"/>
      <point x="572" y="57"/>
      <point x="565" y="67" type="curve" smooth="yes"/>
      <point x="354" y="405" type="line"/>
      <point x="516" y="593" type="line" smooth="yes" name="hr02"/>
      <point x="527" y="606"/>
      <point x="600" y="613"/>
      <point x="600" y="636" type="curve" smooth="yes"/>
      <point x="600" y="642"/>
      <point x="590" y="658"/>
      <point x="566" y="658" type="curve" smooth="yes"/>
      <point x="391" y="658" type="line" smooth="yes"/>
      <point x="375" y="658"/>
      <point x="372" y="642"/>
      <point x="372" y="634" type="curve" smooth="yes"/>
      <point x="372" y="619"/>
      <point x="424" y="607"/>
      <point x="436" y="603" type="curve"/>
      <point x="197" y="293" type="line"/>
      <point x="197" y="588" type="line" name="hr03"/>
      <point x="200" y="621"/>
      <point x="268" y="604"/>
      <point x="268" y="636" type="curve" smooth="yes"/>
      <point x="268" y="642"/>
      <point x="258" y="658"/>
      <point x="234" y="658" type="curve" smooth="yes"/>
      <point x="67" y="658" type="line" smooth="yes"/>
      <point x="51" y="658"/>
      <point x="48" y="642"/>
      <point x="48" y="634" type="curve" smooth="yes"/>
      <point x="48" y="618"/>
      <point x="98" y="610"/>
      <point x="112" y="603" type="curve"/>
      <point x="112" y="55" type="line"/>
      <point x="98" y="48"/>
      <point x="48" y="39"/>
    </contour>
  </outline>
</glyph>
<glyph name="N" format="1">
  <advance width="689"/>
  <unicode hex="004E"/>
  <outline>
    <contour>
      <point x="39" y="24" type="curve" smooth="yes" name="hr00"/>
      <point x="39" y="16"/>
      <point x="42" y="0"/>
      <point x="58" y="0" type="curve" smooth="yes"/>
      <point x="202" y="0" type="line" smooth="yes"/>
      <point x="226" y="0"/>
      <point x="236" y="16"/>
      <point x="236" y="22" type="curve" smooth="yes"/>
      <point x="236" y="56"/>
      <point x="165" y="33"/>
      <point x="165" y="74" type="curve" smooth="yes"/>
      <point x="165" y="520" type="line"/>
      <point x="228" y="407" type="line"/>
      <point x="541" y="0" type="line"/>
      <point x="566" y="0"/>
      <point x="604" y="0"/>
      <point x="604" y="26" type="curve" smooth="yes"/>
      <point x="604" y="584" type="line" smooth="yes"/>
      <point x="604" y="625"/>
      <point x="675" y="602"/>
      <point x="675" y="636" type="curve" smooth="yes"/>
      <point x="675" y="642"/>
      <point x="665" y="658"/>
      <point x="641" y="658" type="curve" smooth="yes"/>
      <point x="495" y="658" type="line" smooth="yes"/>
      <point x="479" y="658"/>
      <point x="476" y="642"/>
      <point x="476" y="634" type="curve" smooth="yes"/>
      <point x="476" y="619"/>
      <point x="526" y="610"/>
      <point x="540" y="603" type="curve"/>
      <point x="540" y="104" type="line"/>
      <point x="490" y="206" type="line"/>
      <point x="170" y="635" type="line" smooth="yes"/>
      <point x="159" y="649"/>
      <point x="152" y="658"/>
      <point x="138" y="658" type="curve" smooth="yes"/>
      <point x="58" y="658" type="line" smooth="yes"/>
      <point x="42" y="658"/>
      <point x="39" y="636"/>
      <point x="39" y="628" type="curve" smooth="yes"/>
      <point x="39" y="609"/>
      <point x="100" y="607"/>
      <point x="103" y="586" type="curve"/>
      <point x="103" y="55" type="line"/>
      <point x="89" y="48"/>
      <point x="39" y="39"/>
    </contour>
  </outline>
</glyph>
<glyph name="O" format="1">
  <advance width="661"/>
  <unicode hex="004F"/>
  <outline>
    <contour>
      <point x="40" y="306" type="curve" smooth="yes" name="hr00"/>
      <point x="40" y="132"/>
      <point x="119" y="-16"/>
      <point x="314" y="-16" type="curve" smooth="yes"/>
      <point x="526" y="-16"/>
      <point x="631" y="163"/>
      <point x="631" y="346" type="curve" smooth="yes"/>
      <point x="631" y="520"/>
      <point x="555" y="672"/>
      <point x="361" y="672" type="curve" smooth="yes"/>
      <point x="149" y="672"/>
      <point x="40" y="490"/>
    </contour>
    <contour>
      <point x="344" y="42" type="curve" smooth="yes"/>
      <point x="195" y="42"/>
      <point x="126" y="196"/>
      <point x="126" y="345" type="curve" smooth="yes"/>
      <point x="126" y="460"/>
      <point x="172" y="613"/>
      <point x="331" y="613" type="curve" smooth="yes"/>
      <point x="483" y="613"/>
      <point x="545" y="457"/>
      <point x="545" y="307" type="curve" smooth="yes"/>
      <point x="545" y="193"/>
      <point x="505" y="42"/>
    </contour>
  </outline>
</glyph>
<glyph name="Q" format="1">
  <advance width="661"/>
  <unicode hex="0051"/>
  <outline>
    <contour>
      <point x="40" y="306" type="curve" smooth="yes" name="hr01"/>
      <point x="40" y="132"/>
      <point x="119" y="-16"/>
      <point x="314" y="-16" type="curve" smooth="yes" name="hr02"/>
      <point x="332" y="-16"/>
      <point x="349" y="-14"/>
      <point x="366" y="-12" type="curve" name="hr03"/>
      <point x="430" y="-94"/>
      <point x="508" y="-184"/>
      <point x="606" y="-184" type="curve" smooth="yes"/>
      <point x="631" y="-184"/>
      <point x="685" y="-131"/>
      <point x="685" y="-120" type="curve" smooth="yes"/>
      <point x="685" y="-108"/>
      <point x="680" y="-103"/>
      <point x="659" y="-103" type="curve" smooth="yes"/>
      <point x="583" y="-103"/>
      <point x="502" y="-61"/>
      <point x="416" y="0" type="curve" name="hr04"/>
      <point x="560" y="47"/>
      <point x="631" y="195"/>
      <point x="631" y="346" type="curve" smooth="yes"/>
      <point x="631" y="520"/>
      <point x="555" y="672"/>
      <point x="361" y="672" type="curve" smooth="yes"/>
      <point x="149" y="672"/>
      <point x="40" y="490"/>
    </contour>
    <contour>
      <point x="344" y="42" type="curve" smooth="yes" name="hr06"/>
      <point x="195" y="42"/>
      <point x="126" y="196"/>
      <point x="126" y="345" type="curve" smooth="yes"/>
      <point x="126" y="460"/>
      <point x="172" y="613"/>
      <point x="331" y="613" type="curve" smooth="yes"/>
      <point x="483" y="613"/>
      <point x="545" y="457"/>
      <point x="545" y="307" type="curve" smooth="yes"/>
      <point x="545" y="193"/>
      <point x="505" y="42"/>
    </contour>
    <contour>
      <point x="376" y="808" type="move" name="top"/>
    </contour>
  </outline>
</glyph>
<glyph name="R" format="1">
  <advance width="609"/>
  <unicode hex="0052"/>
  <outline>
    <contour>
      <point x="48" y="24" type="curve" smooth="yes" name="hr00"/>
      <point x="48" y="16"/>
      <point x="51" y="0"/>
      <point x="67" y="0" type="curve" smooth="yes"/>
      <point x="251" y="0" type="line" smooth="yes"/>
      <point x="275" y="0"/>
      <point x="285" y="16"/>
      <point x="285" y="22" type="curve" smooth="yes"/>
      <point x="285" y="57"/>
      <point x="202" y="33"/>
      <point x="202" y="74" type="curve" smooth="yes"/>
      <point x="202" y="281" type="line"/>
      <point x="316" y="281" type="line" smooth="yes"/>
      <point x="353" y="281"/>
      <point x="390" y="238"/>
      <point x="428" y="109" type="curve"/>
      <point x="460" y="16"/>
      <point x="469" y="0"/>
      <point x="494" y="0" type="curve" smooth="yes"/>
      <point x="576" y="0" type="line" smooth="yes"/>
      <point x="613" y="0"/>
      <point x="616" y="15"/>
      <point x="616" y="21" type="curve" smooth="yes"/>
      <point x="616" y="54"/>
      <point x="567" y="19"/>
      <point x="535" y="94" type="curve"/>
      <point x="498" y="191"/>
      <point x="468" y="289"/>
      <point x="392" y="300" type="curve"/>
      <point x="481" y="330"/>
      <point x="521" y="414"/>
      <point x="521" y="493" type="curve" smooth="yes"/>
      <point x="521" y="607"/>
      <point x="434" y="667"/>
      <point x="328" y="667" type="curve" smooth="yes"/>
      <point x="255" y="667"/>
      <point x="218" y="658"/>
      <point x="160" y="658" type="curve" smooth="yes"/>
      <point x="67" y="658" type="line" smooth="yes"/>
      <point x="51" y="658"/>
      <point x="48" y="642"/>
      <point x="48" y="634" type="curve" smooth="yes"/>
      <point x="48" y="618"/>
      <point x="98" y="610"/>
      <point x="112" y="603" type="curve"/>
      <point x="112" y="55" type="line"/>
      <point x="98" y="48"/>
      <point x="48" y="39"/>
    </contour>
    <contour>
      <point x="202" y="331" type="curve"/>
      <point x="202" y="610" type="line"/>
      <point x="218" y="611"/>
      <point x="248" y="613"/>
      <point x="269" y="613" type="curve" smooth="yes"/>
      <point x="371" y="613"/>
      <point x="430" y="584"/>
      <point x="430" y="471" type="curve" smooth="yes"/>
      <point x="430" y="376"/>
      <point x="384" y="330"/>
      <point x="279" y="330" type="curve" smooth="yes"/>
      <point x="250" y="330"/>
      <point x="224" y="330"/>
    </contour>
  </outline>
</glyph>
<glyph name="S" format="1">
  <advance width="501"/>
  <unicode hex="0053"/>
  <outline>
    <contour>
      <point x="58" y="33" type="curve" smooth="yes" name="hr01"/>
      <point x="87" y="8"/>
      <point x="181" y="-16"/>
      <point x="237" y="-16" type="curve" smooth="yes"/>
      <point x="357" y="-16"/>
      <point x="472" y="69"/>
      <point x="472" y="179" type="curve" smooth="yes"/>
      <point x="472" y="424"/>
      <point x="131" y="340"/>
      <point x="131" y="520" type="curve" smooth="yes"/>
      <point x="131" y="581"/>
      <point x="186" y="614"/>
      <point x="244" y="614" type="curve" smooth="yes"/>
      <point x="318" y="614"/>
      <point x="365" y="590"/>
      <point x="387" y="553" type="curve" name="hr02"/>
      <point x="387" y="553"/>
      <point x="401" y="483"/>
      <point x="417" y="483" type="curve" smooth="yes"/>
      <point x="444" y="483"/>
      <point x="440" y="563"/>
      <point x="440" y="593" type="curve" smooth="yes"/>
      <point x="440" y="633"/>
      <point x="357" y="672"/>
      <point x="290" y="672" type="curve" smooth="yes"/>
      <point x="169" y="672"/>
      <point x="60" y="600"/>
      <point x="60" y="490" type="curve" smooth="yes"/>
      <point x="60" y="240"/>
      <point x="397" y="347"/>
      <point x="397" y="142" type="curve" smooth="yes" name="hr03"/>
      <point x="397" y="91"/>
      <point x="338" y="45"/>
      <point x="280" y="45" type="curve" smooth="yes"/>
      <point x="177" y="45"/>
      <point x="120" y="76"/>
      <point x="109" y="112" type="curve"/>
      <point x="109" y="112"/>
      <point x="94" y="188"/>
      <point x="78" y="188" type="curve" smooth="yes"/>
      <point x="69" y="188"/>
      <point x="59" y="183"/>
      <point x="59" y="171" type="curve" smooth="yes"/>
      <point x="58" y="136"/>
      <point x="54" y="52"/>
      <point x="54" y="48" type="curve" smooth="yes"/>
      <point x="54" y="39"/>
      <point x="56" y="34"/>
    </contour>
  </outline>
</glyph>
<glyph name="T" format="1">
  <advance width="621"/>
  <unicode hex="0054"/>
  <outline>
    <contour>
      <point x="170" y="29" type="curve" smooth="yes" name="hr01"/>
      <point x="170" y="21"/>
      <point x="173" y="0"/>
      <point x="189" y="0" type="curve" smooth="yes"/>
      <point x="421" y="0" type="line" smooth="yes"/>
      <point x="445" y="0"/>
      <point x="455" y="21"/>
      <point x="455" y="27" type="curve" smooth="yes"/>
      <point x="455" y="62"/>
      <point x="363" y="40"/>
      <point x="360" y="77" type="curve"/>
      <point x="360" y="610" type="line"/>
      <point x="399" y="610" type="line" smooth="yes"/>
      <point x="444" y="610"/>
      <point x="479" y="609"/>
      <point x="497" y="597" type="curve"/>
      <point x="517" y="572"/>
      <point x="530" y="428"/>
      <point x="537" y="424" type="curve" smooth="yes"/>
      <point x="541" y="422"/>
      <point x="545" y="421"/>
      <point x="549" y="421" type="curve" smooth="yes"/>
      <point x="591" y="421"/>
      <point x="583" y="493"/>
      <point x="583" y="570" type="curve" smooth="yes"/>
      <point x="583" y="614"/>
      <point x="580" y="658"/>
      <point x="572" y="658" type="curve" smooth="yes"/>
      <point x="40" y="658" type="line" smooth="yes"/>
      <point x="37" y="658"/>
      <point x="36" y="647"/>
      <point x="36" y="630" type="curve" smooth="yes"/>
      <point x="36" y="577"/>
      <point x="48" y="464"/>
      <point x="54" y="441" type="curve" smooth="yes" name="hr02"/>
      <point x="56" y="432"/>
      <point x="76" y="420"/>
      <point x="90" y="420" type="curve" smooth="yes"/>
      <point x="106" y="420"/>
      <point x="107" y="433"/>
      <point x="107" y="457" type="curve" smooth="yes"/>
      <point x="107" y="476"/>
      <point x="105" y="500"/>
      <point x="105" y="523" type="curve" smooth="yes"/>
      <point x="105" y="615"/>
      <point x="138" y="610"/>
      <point x="228" y="610" type="curve" smooth="yes"/>
      <point x="270" y="610" type="line"/>
      <point x="270" y="60" type="line"/>
      <point x="248" y="49"/>
      <point x="170" y="52"/>
    </contour>
  </outline>
</glyph>
<glyph name="W" format="1">
  <advance width="805"/>
  <unicode hex="0057"/>
  <outline>
    <contour>
      <point x="226" y="-10" type="line" name="hr00"/>
      <point x="267" y="-10" type="line"/>
      <point x="417" y="399" type="line"/>
      <point x="553" y="-10" type="line"/>
      <point x="595" y="-10" type="line"/>
      <point x="797" y="584" type="line"/>
      <point x="809" y="612"/>
      <point x="817" y="609"/>
      <point x="847" y="617" type="curve" smooth="yes"/>
      <point x="859" y="620"/>
      <point x="866" y="623"/>
      <point x="866" y="636" type="curve" smooth="yes"/>
      <point x="866" y="642"/>
      <point x="860" y="658"/>
      <point x="836" y="658" type="curve" smooth="yes"/>
      <point x="680" y="658" type="line" smooth="yes"/>
      <point x="664" y="658"/>
      <point x="661" y="642"/>
      <point x="661" y="634" type="curve" smooth="yes"/>
      <point x="661" y="617"/>
      <point x="716" y="611"/>
      <point x="732" y="603" type="curve"/>
      <point x="590" y="128" type="line"/>
      <point x="442" y="593" type="line"/>
      <point x="450" y="611"/>
      <point x="459" y="610"/>
      <point x="504" y="617" type="curve"/>
      <point x="516" y="620"/>
      <point x="523" y="623"/>
      <point x="523" y="636" type="curve" smooth="yes"/>
      <point x="523" y="642"/>
      <point x="513" y="658"/>
      <point x="489" y="658" type="curve" smooth="yes"/>
      <point x="308" y="658" type="line" smooth="yes"/>
      <point x="292" y="658"/>
      <point x="289" y="642"/>
      <point x="289" y="634" type="curve" smooth="yes"/>
      <point x="289" y="619"/>
      <point x="336" y="609"/>
      <point x="349" y="603" type="curve"/>
      <point x="385" y="494" type="line"/>
      <point x="262" y="116" type="line"/>
      <point x="100" y="591" type="line"/>
      <point x="107" y="616"/>
      <point x="172" y="608"/>
      <point x="172" y="636" type="curve" smooth="yes"/>
      <point x="172" y="642"/>
      <point x="162" y="658"/>
      <point x="138" y="658" type="curve" smooth="yes"/>
      <point x="-31" y="658" type="line" smooth="yes"/>
      <point x="-47" y="658"/>
      <point x="-50" y="642"/>
      <point x="-50" y="634" type="curve" smooth="yes"/>
      <point x="-50" y="621"/>
      <point x="-7" y="609"/>
      <point x="4" y="604" type="curve"/>
    </contour>
  </outline>
</glyph>
<glyph name="g" format="1">
  <advance width="484"/>
  <unicode hex="0067"/>
  <outline>
    <contour>
      <point x="76" y="68" type="curve" name="hr01"/>
      <point x="77" y="38"/>
      <point x="88" y="10"/>
      <point x="118" y="2" type="curve"/>
      <point x="71" y="-21"/>
      <point x="18" y="-64"/>
      <point x="18" y="-134" type="curve" smooth="yes" name="hr02"/>
      <point x="18" y="-219"/>
      <point x="71" y="-277"/>
      <point x="177" y="-277" type="curve" smooth="yes"/>
      <point x="282" y="-277"/>
      <point x="439" y="-215"/>
      <point x="439" y="-62" type="curve" smooth="yes"/>
      <point x="439" y="5"/>
      <point x="377" y="53"/>
      <point x="221" y="58" type="curve"/>
      <point x="185" y="58"/>
      <point x="164" y="64"/>
      <point x="164" y="89" type="curve" smooth="yes" name="hr03"/>
      <point x="164" y="118"/>
      <point x="176" y="142"/>
      <point x="189" y="160" type="curve"/>
      <point x="213" y="160" type="line" smooth="yes"/>
      <point x="318" y="160"/>
      <point x="409" y="215"/>
      <point x="409" y="345" type="curve" smooth="yes"/>
      <point x="409" y="388"/>
      <point x="387" y="423"/>
      <point x="354" y="446" type="curve"/>
      <point x="385" y="456"/>
      <point x="468" y="471"/>
      <point x="468" y="523" type="curve" smooth="yes"/>
      <point x="468" y="542"/>
      <point x="448" y="555"/>
      <point x="432" y="555" type="curve" smooth="yes"/>
      <point x="419" y="555"/>
      <point x="366" y="498"/>
      <point x="323" y="463" type="curve"/>
      <point x="300" y="472"/>
      <point x="274" y="477"/>
      <point x="247" y="477" type="curve" smooth="yes"/>
      <point x="117" y="477"/>
      <point x="29" y="413"/>
      <point x="29" y="299" type="curve" smooth="yes" name="hr04"/>
      <point x="29" y="224"/>
      <point x="72" y="181"/>
      <point x="144" y="166" type="curve"/>
      <point x="109" y="139"/>
      <point x="76" y="105"/>
    </contour>
    <contour>
      <point x="226" y="210" type="curve" smooth="yes" name="hr06"/>
      <point x="143" y="210"/>
      <point x="110" y="256"/>
      <point x="110" y="339" type="curve" smooth="yes"/>
      <point x="110" y="407"/>
      <point x="137" y="428"/>
      <point x="211" y="428" type="curve" smooth="yes"/>
      <point x="277" y="428"/>
      <point x="331" y="386"/>
      <point x="331" y="306" type="curve" smooth="yes"/>
      <point x="331" y="234"/>
      <point x="290" y="210"/>
    </contour>
    <contour>
      <point x="101" y="-107" type="curve" smooth="yes" name="hr07"/>
      <point x="101" y="-63"/>
      <point x="122" y="-26"/>
      <point x="163" y="0" type="curve"/>
      <point x="293" y="-4"/>
      <point x="359" y="-40"/>
      <point x="359" y="-89" type="curve" smooth="yes"/>
      <point x="359" y="-177"/>
      <point x="345" y="-218"/>
      <point x="238" y="-218" type="curve" smooth="yes"/>
      <point x="138" y="-218"/>
      <point x="101" y="-173"/>
    </contour>
  </outline>
</glyph>
<glyph name="k" format="1">
  <advance width="498"/>
  <unicode hex="006B"/>
  <outline>
    <contour>
      <point x="20" y="20" type="curve" smooth="yes" name="hr00"/>
      <point x="20" y="12"/>
      <point x="23" y="0"/>
      <point x="39" y="0" type="curve" smooth="yes"/>
      <point x="192" y="0" type="line" smooth="yes"/>
      <point x="216" y="0"/>
      <point x="226" y="6"/>
      <point x="226" y="22" type="curve" smooth="yes"/>
      <point x="226" y="55"/>
      <point x="158" y="33"/>
      <point x="158" y="74" type="curve" smooth="yes"/>
      <point x="158" y="157" type="line"/>
      <point x="233" y="232" type="line"/>
      <point x="349" y="46" type="line"/>
      <point x="319" y="33" type="line" smooth="yes"/>
      <point x="311" y="30"/>
      <point x="307" y="25"/>
      <point x="307" y="20" type="curve" smooth="yes"/>
      <point x="307" y="12"/>
      <point x="310" y="0"/>
      <point x="326" y="0" type="curve" smooth="yes"/>
      <point x="488" y="0" type="line" smooth="yes"/>
      <point x="512" y="0"/>
      <point x="522" y="16"/>
      <point x="522" y="22" type="curve" smooth="yes"/>
      <point x="522" y="48"/>
      <point x="458" y="43"/>
      <point x="441" y="63" type="curve"/>
      <point x="291" y="288" type="line"/>
      <point x="418" y="412" type="line"/>
      <point x="443" y="414"/>
      <point x="469" y="423"/>
      <point x="469" y="446" type="curve" smooth="yes"/>
      <point x="469" y="453"/>
      <point x="461" y="458"/>
      <point x="438" y="458" type="curve" smooth="yes"/>
      <point x="287" y="458" type="line" smooth="yes"/>
      <point x="272" y="458"/>
      <point x="265" y="444"/>
      <point x="265" y="436" type="curve" smooth="yes"/>
      <point x="265" y="422"/>
      <point x="303" y="416"/>
      <point x="327" y="412" type="curve"/>
      <point x="158" y="222" type="line"/>
      <point x="158" y="714" type="line"/>
      <point x="155" y="723"/>
      <point x="146" y="723"/>
      <point x="135" y="723" type="curve" smooth="yes"/>
      <point x="94" y="723"/>
      <point x="23" y="716"/>
      <point x="23" y="680" type="curve" smooth="yes"/>
      <point x="23" y="672"/>
      <point x="44" y="663"/>
      <point x="73" y="659" type="curve"/>
      <point x="73" y="51" type="line"/>
      <point x="62" y="46"/>
      <point x="20" y="32"/>
    </contour>
  </outline>
</glyph>
<glyph name="l" format="1">
  <advance width="255"/>
  <unicode hex="006C"/>
  <outline>
    <contour>
      <point x="31" y="20" type="curve" smooth="yes" name="hr00"/>
      <point x="31" y="12"/>
      <point x="34" y="0"/>
      <point x="50" y="0" type="curve" smooth="yes"/>
      <point x="205" y="0" type="line" smooth="yes"/>
      <point x="229" y="0"/>
      <point x="239" y="6"/>
      <point x="239" y="22" type="curve" smooth="yes"/>
      <point x="239" y="56"/>
      <point x="168" y="33"/>
      <point x="168" y="74" type="curve" smooth="yes"/>
      <point x="168" y="714" type="line"/>
      <point x="165" y="720"/>
      <point x="156" y="723"/>
      <point x="145" y="723" type="curve" smooth="yes"/>
      <point x="103" y="723"/>
      <point x="31" y="716"/>
      <point x="31" y="680" type="curve" smooth="yes"/>
      <point x="31" y="672"/>
      <point x="55" y="663"/>
      <point x="84" y="659" type="curve"/>
      <point x="84" y="51" type="line"/>
      <point x="73" y="46"/>
      <point x="31" y="32"/>
    </contour>
  </outline>
</glyph>
<glyph name="n" format="1">
  <advance width="554"/>
  <unicode hex="006E"/>
  <outline>
    <contour>
      <point x="43" y="20" type="curve" smooth="yes" name="hr00"/>
      <point x="43" y="12"/>
      <point x="46" y="0"/>
      <point x="62" y="0" type="curve" smooth="yes"/>
      <point x="216" y="0" type="line" smooth="yes"/>
      <point x="240" y="0"/>
      <point x="250" y="6"/>
      <point x="250" y="22" type="curve" smooth="yes"/>
      <point x="250" y="55"/>
      <point x="182" y="33"/>
      <point x="182" y="74" type="curve" smooth="yes"/>
      <point x="182" y="375" type="line"/>
      <point x="212" y="403"/>
      <point x="260" y="419"/>
      <point x="300" y="419" type="curve" smooth="yes"/>
      <point x="352" y="419"/>
      <point x="390" y="384"/>
      <point x="390" y="291" type="curve" smooth="yes"/>
      <point x="390" y="51" type="line"/>
      <point x="380" y="46"/>
      <point x="339" y="32"/>
      <point x="339" y="20" type="curve" smooth="yes"/>
      <point x="339" y="12"/>
      <point x="342" y="0"/>
      <point x="358" y="0" type="curve" smooth="yes"/>
      <point x="503" y="0" type="line" smooth="yes"/>
      <point x="527" y="0"/>
      <point x="537" y="16"/>
      <point x="537" y="22" type="curve" smooth="yes"/>
      <point x="537" y="52"/>
      <point x="479" y="35"/>
      <point x="478" y="68" type="curve"/>
      <point x="478" y="329" type="line" smooth="yes"/>
      <point x="478" y="363"/>
      <point x="473" y="397"/>
      <point x="447" y="432" type="curve" smooth="yes"/>
      <point x="421" y="466"/>
      <point x="385" y="477"/>
      <point x="339" y="477" type="curve" smooth="yes"/>
      <point x="271" y="477"/>
      <point x="219" y="447"/>
      <point x="172" y="406" type="curve"/>
      <point x="172" y="457" type="line"/>
      <point x="170" y="465"/>
      <point x="161" y="467"/>
      <point x="148" y="467" type="curve" smooth="yes"/>
      <point x="107" y="467"/>
      <point x="34" y="436"/>
      <point x="34" y="409" type="curve" smooth="yes"/>
      <point x="34" y="399"/>
      <point x="69" y="385"/>
      <point x="96" y="380" type="curve"/>
      <point x="96" y="51" type="line"/>
      <point x="85" y="46"/>
      <point x="43" y="32"/>
    </contour>
  </outline>
</glyph>
<glyph name="o" format="1">
  <advance width="528"/>
  <unicode hex="006F"/>
  <outline>
    <contour>
      <point x="44" y="210" type="curve" smooth="yes" name="hr00"/>
      <point x="44" y="59"/>
      <point x="131" y="-16"/>
      <point x="241" y="-16" type="curve" smooth="yes"/>
      <point x="300" y="-16"/>
      <point x="364" y="5"/>
      <point x="407" y="43" type="curve" smooth="yes"/>
      <point x="465" y="94"/>
      <point x="484" y="179"/>
      <point x="484" y="244" type="curve" smooth="yes"/>
      <point x="484" y="353"/>
      <point x="428" y="477"/>
      <point x="283" y="477" type="curve" smooth="yes"/>
      <point x="125" y="477"/>
      <point x="44" y="345"/>
    </contour>
    <contour>
      <point x="135" y="244" type="curve" smooth="yes"/>
      <point x="135" y="335"/>
      <point x="164" y="429"/>
      <point x="244" y="429" type="curve" smooth="yes"/>
      <point x="358" y="429"/>
      <point x="394" y="309"/>
      <point x="394" y="210" type="curve" smooth="yes"/>
      <point x="394" y="120"/>
      <point x="366" y="32"/>
      <point x="286" y="32" type="curve" smooth="yes"/>
      <point x="170" y="32"/>
      <point x="135" y="149"/>
    </contour>
  </outline>
</glyph>
<glyph name="r" format="1">
  <advance width="393"/>
  <unicode hex="0072"/>
  <outline>
    <contour>
      <point x="38" y="20" type="curve" smooth="yes" name="hr00"/>
      <point x="38" y="12"/>
      <point x="41" y="0"/>
      <point x="57" y="0" type="curve" smooth="yes"/>
      <point x="237" y="0" type="line" smooth="yes"/>
      <point x="261" y="0"/>
      <point x="271" y="6"/>
      <point x="271" y="22" type="curve" smooth="yes"/>
      <point x="271" y="57"/>
      <point x="178" y="35"/>
      <point x="177" y="72" type="curve"/>
      <point x="177" y="279" type="line" smooth="yes"/>
      <point x="177" y="324"/>
      <point x="220" y="410"/>
      <point x="257" y="410" type="curve" smooth="yes"/>
      <point x="282" y="410"/>
      <point x="294" y="403"/>
      <point x="300" y="373" type="curve" smooth="yes"/>
      <point x="303" y="355"/>
      <point x="310" y="352"/>
      <point x="321" y="352" type="curve"/>
      <point x="347" y="355"/>
      <point x="382" y="377"/>
      <point x="382" y="401" type="curve" smooth="yes"/>
      <point x="382" y="463"/>
      <point x="323" y="477"/>
      <point x="300" y="477" type="curve" smooth="yes"/>
      <point x="240" y="477"/>
      <point x="195" y="426"/>
      <point x="167" y="364" type="curve"/>
      <point x="167" y="457" type="line"/>
      <point x="165" y="465"/>
      <point x="153" y="467"/>
      <point x="143" y="467" type="curve" smooth="yes"/>
      <point x="102" y="467"/>
      <point x="29" y="436"/>
      <point x="29" y="409" type="curve" smooth="yes"/>
      <point x="29" y="399"/>
      <point x="64" y="385"/>
      <point x="91" y="380" type="curve"/>
      <point x="91" y="51" type="line"/>
      <point x="80" y="46"/>
      <point x="38" y="32"/>
    </contour>
  </outline>
</glyph>
<glyph name="s" format="1">
  <advance width="409"/>
  <unicode hex="0073"/>
  <outline>
    <contour>
      <point x="48" y="44" type="curve" name="hr01"/>
      <point x="71" y="8"/>
      <point x="140" y="-16"/>
      <point x="190" y="-16" type="curve" smooth="yes"/>
      <point x="279" y="-16"/>
      <point x="376" y="32"/>
      <point x="376" y="123" type="curve" smooth="yes"/>
      <point x="376" y="278"/>
      <point x="130" y="261"/>
      <point x="130" y="366" type="curve" smooth="yes"/>
      <point x="130" y="407"/>
      <point x="158" y="422"/>
      <point x="187" y="422" type="curve" smooth="yes"/>
      <point x="262" y="422"/>
      <point x="283" y="408"/>
      <point x="295" y="378" type="curve" name="hr02"/>
      <point x="295" y="378"/>
      <point x="309" y="328"/>
      <point x="325" y="328" type="curve" smooth="yes"/>
      <point x="351" y="328"/>
      <point x="349" y="390"/>
      <point x="349" y="418" type="curve" smooth="yes"/>
      <point x="349" y="444"/>
      <point x="313" y="477"/>
      <point x="233" y="477" type="curve" smooth="yes"/>
      <point x="150" y="477"/>
      <point x="55" y="422"/>
      <point x="55" y="332" type="curve" smooth="yes"/>
      <point x="55" y="180"/>
      <point x="295" y="207"/>
      <point x="295" y="94" type="curve" smooth="yes" name="hr03"/>
      <point x="295" y="56"/>
      <point x="259" y="33"/>
      <point x="224" y="33" type="curve" smooth="yes"/>
      <point x="170" y="33"/>
      <point x="123" y="62"/>
      <point x="108" y="88" type="curve" smooth="yes"/>
      <point x="99" y="103"/>
      <point x="91" y="150"/>
      <point x="75" y="150" type="curve" smooth="yes"/>
      <point x="43" y="150"/>
      <point x="51" y="79"/>
    </contour>
  </outline>
</glyph>
<glyph name="u" format="1">
  <advance width="502"/>
  <unicode hex="0075"/>
  <outline>
    <contour>
      <point x="89" y="29" type="curve" smooth="yes" name="hr01"/>
      <point x="112" y="-5"/>
      <point x="160" y="-16"/>
      <point x="200" y="-16" type="curve" smooth="yes"/>
      <point x="261" y="-16"/>
      <point x="302" y="10"/>
      <point x="342" y="44" type="curve"/>
      <point x="342" y="19" type="line" smooth="yes" name="hr02"/>
      <point x="342" y="-6"/>
      <point x="363" y="-16"/>
      <point x="387" y="-16" type="curve" smooth="yes"/>
      <point x="449" y="-16"/>
      <point x="480" y="25"/>
      <point x="480" y="35" type="curve" smooth="yes"/>
      <point x="480" y="44"/>
      <point x="473" y="50"/>
      <point x="459" y="50" type="curve" smooth="yes"/>
      <point x="437" y="50"/>
      <point x="438" y="43"/>
      <point x="426" y="43" type="curve"/>
      <point x="426" y="451" type="line"/>
      <point x="423" y="462"/>
      <point x="414" y="463"/>
      <point x="404" y="463" type="curve" smooth="yes"/>
      <point x="323" y="463"/>
      <point x="279" y="453"/>
      <point x="279" y="433" type="curve" smooth="yes"/>
      <point x="279" y="418"/>
      <point x="312" y="408"/>
      <point x="342" y="404" type="curve"/>
      <point x="342" y="81" type="line" name="hr03"/>
      <point x="310" y="56"/>
      <point x="269" y="39"/>
      <point x="232" y="39" type="curve" smooth="yes"/>
      <point x="181" y="39"/>
      <point x="149" y="48"/>
      <point x="149" y="180" type="curve" smooth="yes"/>
      <point x="149" y="454" type="line"/>
      <point x="147" y="463"/>
      <point x="139" y="464"/>
      <point x="125" y="464" type="curve" smooth="yes"/>
      <point x="55" y="464"/>
      <point x="16" y="454"/>
      <point x="16" y="434" type="curve" smooth="yes"/>
      <point x="16" y="425"/>
      <point x="36" y="409"/>
      <point x="61" y="405" type="curve"/>
      <point x="63" y="132" type="line" smooth="yes"/>
      <point x="63" y="99"/>
      <point x="65" y="65"/>
    </contour>
  </outline>
</glyph>
<glyph name="x" format="1">
  <advance width="497"/>
  <unicode hex="0078"/>
  <outline>
    <contour>
      <point x="12" y="20" type="curve" smooth="yes" name="hr01"/>
      <point x="12" y="12"/>
      <point x="15" y="0"/>
      <point x="31" y="0" type="curve" smooth="yes"/>
      <point x="171" y="0" type="line" smooth="yes"/>
      <point x="195" y="0"/>
      <point x="205" y="6"/>
      <point x="205" y="22" type="curve" smooth="yes"/>
      <point x="205" y="52"/>
      <point x="152" y="33"/>
      <point x="151" y="70" type="curve"/>
      <point x="237" y="189" type="line"/>
      <point x="335" y="51" type="line"/>
      <point x="327" y="47"/>
      <point x="289" y="30"/>
      <point x="289" y="20" type="curve" smooth="yes"/>
      <point x="289" y="12"/>
      <point x="292" y="0"/>
      <point x="308" y="0" type="curve" smooth="yes"/>
      <point x="464" y="0" type="line" smooth="yes"/>
      <point x="488" y="0"/>
      <point x="498" y="6"/>
      <point x="498" y="22" type="curve" smooth="yes"/>
      <point x="498" y="55"/>
      <point x="470" y="21"/>
      <point x="428" y="69" type="curve" smooth="yes"/>
      <point x="290" y="226" type="line"/>
      <point x="438" y="407" type="line" name="hr02"/>
      <point x="448" y="412"/>
      <point x="491" y="426"/>
      <point x="491" y="438" type="curve" smooth="yes"/>
      <point x="491" y="446"/>
      <point x="488" y="458"/>
      <point x="472" y="458" type="curve" smooth="yes"/>
      <point x="332" y="458" type="line" smooth="yes"/>
      <point x="308" y="458"/>
      <point x="298" y="452"/>
      <point x="298" y="436" type="curve" smooth="yes"/>
      <point x="298" y="408"/>
      <point x="347" y="421"/>
      <point x="352" y="390" type="curve"/>
      <point x="259" y="272" type="line"/>
      <point x="165" y="407" type="line" name="hr03"/>
      <point x="175" y="412"/>
      <point x="216" y="426"/>
      <point x="216" y="438" type="curve" smooth="yes"/>
      <point x="216" y="446"/>
      <point x="213" y="458"/>
      <point x="197" y="458" type="curve" smooth="yes"/>
      <point x="40" y="458" type="line" smooth="yes"/>
      <point x="16" y="458"/>
      <point x="6" y="452"/>
      <point x="6" y="436" type="curve" smooth="yes"/>
      <point x="6" y="407"/>
      <point x="25" y="433"/>
      <point x="64" y="396" type="curve"/>
      <point x="208" y="226" type="line"/>
      <point x="65" y="51" type="line"/>
      <point x="54" y="46"/>
      <point x="12" y="32"/>
    </contour>
  </outline>
</glyph>
<glyph name="sterling" format="1">
  <advance width="646"/>
  <unicode hex="00A3"/>
  <outline>
    <contour>
      <point x="43" y="19" type="curve" smooth="yes" name="hr01"/>
      <point x="43" y="-5"/>
      <point x="74" y="-11"/>
      <point x="100" y="-11" type="curve" smooth="yes"/>
      <point x="163" y="-11"/>
      <point x="199" y="14"/>
      <point x="217" y="61" type="curve"/>
      <point x="323" y="61"/>
      <point x="360" y="-16"/>
      <point x="476" y="-16" type="curve" smooth="yes"/>
      <point x="568" y="-16"/>
      <point x="609" y="62"/>
      <point x="609" y="95" type="curve" smooth="yes" name="hr02"/>
      <point x="609" y="174"/>
      <point x="575" y="217"/>
      <point x="542" y="217" type="curve" smooth="yes"/>
      <point x="512" y="217"/>
      <point x="477" y="185"/>
      <point x="477" y="163" type="curve"/>
      <point x="501" y="151"/>
      <point x="515" y="127"/>
      <point x="515" y="104" type="curve" smooth="yes"/>
      <point x="515" y="76"/>
      <point x="496" y="47"/>
      <point x="454" y="47" type="curve" smooth="yes"/>
      <point x="376" y="47"/>
      <point x="330" y="113"/>
      <point x="241" y="113" type="curve" smooth="yes" name="hr03"/>
      <point x="231" y="113" type="line"/>
      <point x="236" y="146"/>
      <point x="238" y="178"/>
      <point x="238" y="212" type="curve" smooth="yes"/>
      <point x="238" y="219"/>
      <point x="238" y="226"/>
      <point x="238" y="233" type="curve" smooth="yes"/>
      <point x="236" y="336" type="line"/>
      <point x="325" y="336" type="line"/>
      <point x="345" y="338"/>
      <point x="388" y="373"/>
      <point x="388" y="393" type="curve" smooth="yes"/>
      <point x="388" y="400"/>
      <point x="382" y="406"/>
      <point x="368" y="407" type="curve"/>
      <point x="234" y="407" type="line" name="hr04"/>
      <point x="234" y="431" type="line" smooth="yes"/>
      <point x="234" y="439"/>
      <point x="234" y="446"/>
      <point x="234" y="454" type="curve" smooth="yes"/>
      <point x="234" y="564"/>
      <point x="250" y="638"/>
      <point x="352" y="638" type="curve" smooth="yes"/>
      <point x="394" y="638"/>
      <point x="443" y="606"/>
      <point x="448" y="544" type="curve"/>
      <point x="450" y="542"/>
      <point x="453" y="541"/>
      <point x="459" y="541" type="curve" smooth="yes"/>
      <point x="487" y="541"/>
      <point x="531" y="567"/>
      <point x="531" y="605" type="curve" smooth="yes"/>
      <point x="531" y="607"/>
      <point x="530" y="608"/>
      <point x="530" y="610" type="curve" smooth="yes"/>
      <point x="508" y="684"/>
      <point x="433" y="702"/>
      <point x="385" y="702" type="curve" smooth="yes"/>
      <point x="308" y="702"/>
      <point x="247" y="667"/>
      <point x="206" y="593" type="curve" smooth="yes" name="hr05"/>
      <point x="178" y="544"/>
      <point x="153" y="509"/>
      <point x="151" y="407" type="curve"/>
      <point x="115" y="407" type="line"/>
      <point x="102" y="404"/>
      <point x="71" y="379"/>
      <point x="71" y="358" type="curve" smooth="yes"/>
      <point x="71" y="349"/>
      <point x="75" y="341"/>
      <point x="88" y="336" type="curve"/>
      <point x="151" y="336" type="line"/>
      <point x="151" y="260"/>
      <point x="153" y="143"/>
      <point x="153" y="121" type="curve" smooth="yes"/>
      <point x="153" y="102" type="line"/>
      <point x="110" y="91"/>
      <point x="43" y="65"/>
    </contour>
  </outline>
</glyph>
<glyph name="yen" format="1">
  <advance width="548"/>
  <unicode hex="00A5"/>
  <outline>
    <contour>
      <point x="107" y="157" type="curve" name="hr00"/>
      <point x="233" y="157" type="line"/>
      <point x="233" y="-8" type="line"/>
      <point x="237" y="-14"/>
      <point x="263" y="-16"/>
      <point x="269" y="-16" type="curve" smooth="yes"/>
      <point x="294" y="-16"/>
      <point x="319" y="-4"/>
      <point x="324" y="13" type="curve"/>
      <point x="324" y="157" type="line"/>
      <point x="397" y="157" type="line" smooth="yes"/>
      <point x="417" y="157"/>
      <point x="457" y="174"/>
      <point x="457" y="194" type="curve" smooth="yes"/>
      <point x="457" y="201"/>
      <point x="451" y="208"/>
      <point x="437" y="208" type="curve" smooth="yes"/>
      <point x="324" y="208" type="line"/>
      <point x="324" y="308" type="line"/>
      <point x="397" y="308" type="line"/>
      <point x="417" y="310"/>
      <point x="457" y="326"/>
      <point x="457" y="346" type="curve" smooth="yes"/>
      <point x="457" y="353"/>
      <point x="451" y="360"/>
      <point x="437" y="361" type="curve"/>
      <point x="339" y="361" type="line"/>
      <point x="490" y="595" type="line"/>
      <point x="510" y="612" type="line"/>
      <point x="534" y="614"/>
      <point x="558" y="622"/>
      <point x="558" y="646" type="curve" smooth="yes"/>
      <point x="558" y="651"/>
      <point x="549" y="658"/>
      <point x="530" y="658" type="curve" smooth="yes"/>
      <point x="381" y="658" type="line" smooth="yes"/>
      <point x="363" y="658"/>
      <point x="357" y="644"/>
      <point x="357" y="635" type="curve" smooth="yes"/>
      <point x="357" y="621"/>
      <point x="402" y="616"/>
      <point x="425" y="612" type="curve"/>
      <point x="286" y="375" type="line"/>
      <point x="135" y="612" type="line"/>
      <point x="159" y="616"/>
      <point x="185" y="621"/>
      <point x="185" y="635" type="curve" smooth="yes"/>
      <point x="185" y="644"/>
      <point x="178" y="658"/>
      <point x="160" y="658" type="curve" smooth="yes"/>
      <point x="12" y="658" type="line" smooth="yes"/>
      <point x="-8" y="658"/>
      <point x="-16" y="651"/>
      <point x="-16" y="646" type="curve" smooth="yes"/>
      <point x="-16" y="622"/>
      <point x="5" y="614"/>
      <point x="30" y="612" type="curve"/>
      <point x="204" y="361" type="line"/>
      <point x="134" y="361" type="line"/>
      <point x="122" y="358"/>
      <point x="90" y="350"/>
      <point x="90" y="329" type="curve" smooth="yes"/>
      <point x="90" y="321"/>
      <point x="94" y="313"/>
      <point x="107" y="308" type="curve"/>
      <point x="233" y="308" type="line"/>
      <point x="233" y="208" type="line"/>
      <point x="134" y="208" type="line" smooth="yes"/>
      <point x="121" y="208"/>
      <point x="90" y="199"/>
      <point x="90" y="178" type="curve" smooth="yes"/>
      <point x="90" y="170"/>
      <point x="96" y="157"/>
    </contour>
  </outline>
</glyph>
<glyph name="brokenbar" format="1">
  <advance width="196"/>
  <unicode hex="00A6"/>
  <outline>
    <contour>
      <point x="76" y="322" type="curve" smooth="yes" name="hr00"/>
      <point x="99" y="322"/>
      <point x="131" y="349"/>
      <point x="137" y="369" type="curve"/>
      <point x="139" y="821" type="line"/>
      <point x="137" y="833"/>
      <point x="129" y="837"/>
      <point x="119" y="837" type="curve" smooth="yes"/>
      <point x="95" y="837"/>
      <point x="58" y="810"/>
      <point x="57" y="787" type="curve"/>
      <point x="55" y="334" type="line"/>
      <point x="60" y="325"/>
      <point x="67" y="322"/>
    </contour>
    <contour>
      <point x="57" y="175" type="curve"/>
      <point x="55" y="-278" type="line"/>
      <point x="60" y="-287"/>
      <point x="67" y="-290"/>
      <point x="76" y="-290" type="curve" smooth="yes"/>
      <point x="99" y="-290"/>
      <point x="131" y="-263"/>
      <point x="137" y="-243" type="curve"/>
      <point x="139" y="209" type="line"/>
      <point x="137" y="221"/>
      <point x="129" y="225"/>
      <point x="119" y="225" type="curve" smooth="yes"/>
      <point x="95" y="225"/>
      <point x="58" y="198"/>
    </contour>
  </outline>
</glyph>
<glyph name="macron" format="1">
  <advance width="357"/>
  <unicode hex="00AF"/>
  <outline>
    <contour>
      <point x="47" y="610" type="curve" name="hr00"/>
      <point x="277" y="610" type="line" smooth="yes"/>
      <point x="307" y="610"/>
      <point x="330" y="626"/>
      <point x="330" y="657" type="curve" smooth="yes"/>
      <point x="330" y="668"/>
      <point x="327" y="676"/>
      <point x="308" y="676" type="curve" smooth="yes"/>
      <point x="68" y="676" type="line" smooth="yes"/>
      <point x="46" y="676"/>
      <point x="28" y="652"/>
      <point x="28" y="633" type="curve" smooth="yes"/>
      <point x="28" y="618"/>
      <point x="40" y="610"/>
    </contour>
  </outline>
</glyph>
<glyph name="three.sups" format="1">
  <advance width="378"/>
  <unicode hex="00B3"/>
  <outline>
    <contour>
      <point x="148" y="253" type="curve" smooth="yes" name="hr01"/>
      <point x="246" y="253"/>
      <point x="354" y="312"/>
      <point x="354" y="409" type="curve" smooth="yes"/>
      <point x="354" y="472"/>
      <point x="319" y="509"/>
      <point x="255" y="523" type="curve"/>
      <point x="297" y="544"/>
      <point x="330" y="597"/>
      <point x="330" y="640" type="curve" smooth="yes" name="hr02"/>
      <point x="330" y="699"/>
      <point x="283" y="747"/>
      <point x="183" y="747" type="curve" smooth="yes"/>
      <point x="124" y="747"/>
      <point x="24" y="705"/>
      <point x="24" y="649" type="curve" smooth="yes"/>
      <point x="24" y="638"/>
      <point x="27" y="618"/>
      <point x="59" y="618" type="curve" smooth="yes"/>
      <point x="81" y="618"/>
      <point x="120" y="640"/>
      <point x="120" y="657" type="curve" smooth="yes"/>
      <point x="120" y="664"/>
      <point x="115" y="664"/>
      <point x="115" y="675" type="curve" smooth="yes"/>
      <point x="115" y="695"/>
      <point x="126" y="705"/>
      <point x="154" y="705" type="curve" smooth="yes"/>
      <point x="211" y="705"/>
      <point x="243" y="675"/>
      <point x="243" y="611" type="curve" smooth="yes"/>
      <point x="243" y="556"/>
      <point x="215" y="530"/>
      <point x="151" y="530" type="curve" smooth="yes"/>
      <point x="112" y="530"/>
      <point x="99" y="515"/>
      <point x="99" y="498" type="curve" smooth="yes"/>
      <point x="99" y="489"/>
      <point x="116" y="487"/>
      <point x="131" y="487" type="curve" smooth="yes"/>
      <point x="142" y="487"/>
      <point x="152" y="488"/>
      <point x="156" y="488" type="curve" smooth="yes"/>
      <point x="224" y="488"/>
      <point x="265" y="465"/>
      <point x="265" y="388" type="curve" smooth="yes" name="hr03"/>
      <point x="265" y="322"/>
      <point x="250" y="304"/>
      <point x="182" y="304" type="curve" smooth="yes"/>
      <point x="131" y="304"/>
      <point x="96" y="351"/>
      <point x="78" y="351" type="curve" smooth="yes"/>
      <point x="54" y="351"/>
      <point x="29" y="317"/>
      <point x="29" y="299" type="curve" smooth="yes"/>
      <point x="29" y="264"/>
      <point x="127" y="253"/>
    </contour>
  </outline>
</glyph>
<glyph name="acute" format="1">
  <advance width="239"/>
  <unicode hex="00B4"/>
  <outline>
    <contour>
      <point x="73" y="549" type="curve" smooth="yes" name="hr00"/>
      <point x="77" y="549"/>
      <point x="81" y="550"/>
      <point x="84" y="552" type="curve" smooth="yes"/>
      <point x="111" y="573"/>
      <point x="199" y="662"/>
      <point x="220" y="710" type="curve"/>
      <point x="220" y="710"/>
      <point x="220" y="711"/>
      <point x="220" y="712" type="curve" smooth="yes"/>
      <point x="220" y="725"/>
      <point x="183" y="773"/>
      <point x="160" y="773" type="curve" smooth="yes"/>
      <point x="156" y="773"/>
      <point x="153" y="772"/>
      <point x="150" y="768" type="curve" smooth="yes"/>
      <point x="37" y="573" type="line"/>
      <point x="37" y="573"/>
      <point x="37" y="572"/>
      <point x="37" y="572" type="curve"/>
      <point x="37" y="567"/>
      <point x="56" y="549"/>
    </contour>
  </outline>
</glyph>
<glyph name="questiondown" format="1">
  <advance width="542"/>
  <unicode hex="00BF"/>
  <outline>
    <contour>
      <point x="278" y="569" type="curve" smooth="yes" name="hr00"/>
      <point x="306" y="569"/>
      <point x="333" y="608"/>
      <point x="333" y="630" type="curve" smooth="yes"/>
      <point x="333" y="639"/>
      <point x="318" y="672"/>
      <point x="258" y="672" type="curve" smooth="yes"/>
      <point x="231" y="672"/>
      <point x="202" y="637"/>
      <point x="202" y="614" type="curve" smooth="yes"/>
      <point x="202" y="596"/>
      <point x="218" y="569"/>
    </contour>
    <contour>
      <point x="62" y="146" type="curve"/>
      <point x="62" y="23"/>
      <point x="170" y="-16"/>
      <point x="265" y="-16" type="curve" smooth="yes"/>
      <point x="372" y="-16"/>
      <point x="491" y="66"/>
      <point x="495" y="156" type="curve" smooth="yes"/>
      <point x="495" y="169"/>
      <point x="487" y="174"/>
      <point x="475" y="174" type="curve" smooth="yes"/>
      <point x="450" y="174"/>
      <point x="406" y="161"/>
      <point x="406" y="136" type="curve" smooth="yes"/>
      <point x="406" y="136"/>
      <point x="406" y="135"/>
      <point x="406" y="134" type="curve" smooth="yes"/>
      <point x="406" y="71"/>
      <point x="388" y="43"/>
      <point x="325" y="43" type="curve" smooth="yes"/>
      <point x="248" y="43"/>
      <point x="139" y="60"/>
      <point x="139" y="195" type="curve" smooth="yes"/>
      <point x="139" y="310"/>
      <point x="312" y="265"/>
      <point x="312" y="410" type="curve" smooth="yes"/>
      <point x="312" y="439" type="line" smooth="yes"/>
      <point x="312" y="466"/>
      <point x="309" y="491"/>
      <point x="284" y="491" type="curve" smooth="yes"/>
      <point x="263" y="491"/>
      <point x="238" y="473"/>
      <point x="233" y="458" type="curve"/>
      <point x="236" y="439"/>
      <point x="244" y="394"/>
      <point x="244" y="364" type="curve" smooth="yes"/>
      <point x="244" y="356"/>
      <point x="243" y="349"/>
      <point x="239" y="344" type="curve"/>
      <point x="215" y="329" type="line" smooth="yes"/>
      <point x="140" y="282"/>
      <point x="61" y="232"/>
    </contour>
  </outline>
</glyph>
<glyph name="Ccedilla" format="1">
  <advance width="567"/>
  <unicode hex="00C7"/>
  <outline>
    <contour>
      <point x="257" y="-9" type="curve" name="hr01"/>
      <point x="243" y="-100" type="line"/>
      <point x="249" y="-99"/>
      <point x="256" y="-99"/>
      <point x="262" y="-99" type="curve" smooth="yes"/>
      <point x="303" y="-99"/>
      <point x="341" y="-110"/>
      <point x="341" y="-146" type="curve" smooth="yes"/>
      <point x="341" y="-201"/>
      <point x="296" y="-211"/>
      <point x="253" y="-211" type="curve" smooth="yes"/>
      <point x="242" y="-211"/>
      <point x="225" y="-205"/>
      <point x="214" y="-205" type="curve" smooth="yes"/>
      <point x="209" y="-205"/>
      <point x="199" y="-223"/>
      <point x="199" y="-236" type="curve" smooth="yes"/>
      <point x="199" y="-257"/>
      <point x="265" y="-264"/>
      <point x="284" y="-264" type="curve" smooth="yes"/>
      <point x="364" y="-264"/>
      <point x="436" y="-221"/>
      <point x="436" y="-141" type="curve" smooth="yes"/>
      <point x="436" y="-84"/>
      <point x="374" y="-64"/>
      <point x="328" y="-64" type="curve"/>
      <point x="328" y="-16" type="line" name="hr02"/>
      <point x="421" y="-13"/>
      <point x="492" y="21"/>
      <point x="541" y="82" type="curve"/>
      <point x="547" y="88"/>
      <point x="550" y="97"/>
      <point x="550" y="103" type="curve" smooth="yes"/>
      <point x="550" y="111"/>
      <point x="538" y="114"/>
      <point x="529" y="114" type="curve" smooth="yes"/>
      <point x="520" y="114"/>
      <point x="481" y="87"/>
      <point x="467" y="76" type="curve" smooth="yes"/>
      <point x="439" y="52"/>
      <point x="385" y="43"/>
      <point x="363" y="43" type="curve" smooth="yes"/>
      <point x="231" y="43"/>
      <point x="134" y="160"/>
      <point x="134" y="341" type="curve" smooth="yes"/>
      <point x="134" y="483"/>
      <point x="178" y="616"/>
      <point x="327" y="616" type="curve" smooth="yes"/>
      <point x="384" y="616"/>
      <point x="455" y="584"/>
      <point x="465" y="553" type="curve"/>
      <point x="465" y="553"/>
      <point x="488" y="465"/>
      <point x="504" y="465" type="curve" smooth="yes"/>
      <point x="551" y="465"/>
      <point x="539" y="562"/>
      <point x="539" y="600" type="curve"/>
      <point x="535" y="631"/>
      <point x="449" y="672"/>
      <point x="373" y="672" type="curve" smooth="yes"/>
      <point x="178" y="672"/>
      <point x="41" y="534"/>
      <point x="41" y="314" type="curve" smooth="yes"/>
      <point x="41" y="127"/>
      <point x="145" y="18"/>
    </contour>
  </outline>
</glyph>
<glyph name="multiply" format="1">
  <advance width="512"/>
  <unicode hex="00D7"/>
  <outline>
    <contour>
      <point x="52" y="92" type="curve" smooth="yes" name="hr00"/>
      <point x="52" y="79"/>
      <point x="74" y="74"/>
      <point x="94" y="74" type="curve" smooth="yes"/>
      <point x="107" y="74"/>
      <point x="120" y="76"/>
      <point x="123" y="79" type="curve" smooth="yes"/>
      <point x="174" y="129"/>
      <point x="219" y="179"/>
      <point x="263" y="229" type="curve"/>
      <point x="314" y="180"/>
      <point x="366" y="129"/>
      <point x="419" y="73" type="curve"/>
      <point x="437" y="73"/>
      <point x="472" y="95"/>
      <point x="473" y="116" type="curve"/>
      <point x="416" y="175"/>
      <point x="362" y="228"/>
      <point x="307" y="280" type="curve"/>
      <point x="356" y="335"/>
      <point x="406" y="390"/>
      <point x="464" y="447" type="curve"/>
      <point x="468" y="452"/>
      <point x="469" y="457"/>
      <point x="469" y="460" type="curve" smooth="yes"/>
      <point x="469" y="477"/>
      <point x="440" y="481"/>
      <point x="419" y="481" type="curve" smooth="yes"/>
      <point x="410" y="481"/>
      <point x="402" y="480"/>
      <point x="401" y="479" type="curve" smooth="yes"/>
      <point x="349" y="428"/>
      <point x="303" y="377"/>
      <point x="259" y="326" type="curve"/>
      <point x="209" y="373"/>
      <point x="160" y="421"/>
      <point x="110" y="476" type="curve"/>
      <point x="108" y="477"/>
      <point x="107" y="477"/>
      <point x="105" y="477" type="curve" smooth="yes"/>
      <point x="89" y="477"/>
      <point x="57" y="451"/>
      <point x="57" y="437" type="curve" smooth="yes"/>
      <point x="57" y="435"/>
      <point x="58" y="433"/>
      <point x="59" y="432" type="curve" smooth="yes"/>
      <point x="111" y="375"/>
      <point x="163" y="324"/>
      <point x="215" y="275" type="curve"/>
      <point x="167" y="220"/>
      <point x="118" y="165"/>
      <point x="62" y="110" type="curve" smooth="yes"/>
      <point x="55" y="103"/>
      <point x="52" y="97"/>
    </contour>
  </outline>
</glyph>
<glyph name="Oslash" format="1">
  <advance width="661"/>
  <unicode hex="00D8"/>
  <outline>
    <contour>
      <point x="97" y="-59" type="curve" smooth="yes" name="hr00"/>
      <point x="94" y="-66"/>
      <point x="92" y="-72"/>
      <point x="92" y="-77" type="curve" smooth="yes"/>
      <point x="92" y="-89"/>
      <point x="101" y="-94"/>
      <point x="112" y="-94" type="curve" smooth="yes"/>
      <point x="129" y="-94"/>
      <point x="152" y="-83"/>
      <point x="164" y="-69" type="curve"/>
      <point x="203" y="4" type="line"/>
      <point x="235" y="-8"/>
      <point x="271" y="-16"/>
      <point x="314" y="-16" type="curve" smooth="yes"/>
      <point x="526" y="-16"/>
      <point x="631" y="163"/>
      <point x="631" y="346" type="curve" smooth="yes"/>
      <point x="631" y="456"/>
      <point x="600" y="558"/>
      <point x="528" y="617" type="curve"/>
      <point x="583" y="714" type="line"/>
      <point x="586" y="721"/>
      <point x="587" y="726"/>
      <point x="587" y="730" type="curve" smooth="yes"/>
      <point x="587" y="740"/>
      <point x="580" y="744"/>
      <point x="569" y="744" type="curve" smooth="yes"/>
      <point x="547" y="744"/>
      <point x="517" y="729"/>
      <point x="507" y="713" type="curve"/>
      <point x="476" y="650" type="line"/>
      <point x="443" y="664"/>
      <point x="405" y="672"/>
      <point x="361" y="672" type="curve" smooth="yes"/>
      <point x="149" y="672"/>
      <point x="40" y="490"/>
      <point x="40" y="306" type="curve" smooth="yes"/>
      <point x="40" y="193"/>
      <point x="73" y="92"/>
      <point x="149" y="34" type="curve"/>
      <point x="135" y="7"/>
      <point x="113" y="-26"/>
    </contour>
    <contour>
      <point x="198" y="110" type="line"/>
      <point x="149" y="169"/>
      <point x="126" y="258"/>
      <point x="126" y="345" type="curve" smooth="yes"/>
      <point x="126" y="460"/>
      <point x="172" y="613"/>
      <point x="331" y="613" type="curve" smooth="yes"/>
      <point x="376" y="613"/>
      <point x="414" y="599"/>
      <point x="444" y="575" type="curve"/>
    </contour>
    <contour>
      <point x="233" y="78" type="curve"/>
      <point x="480" y="538" type="line"/>
      <point x="525" y="478"/>
      <point x="545" y="392"/>
      <point x="545" y="307" type="curve" smooth="yes"/>
      <point x="545" y="193"/>
      <point x="505" y="42"/>
      <point x="344" y="42" type="curve" smooth="yes"/>
      <point x="300" y="42"/>
      <point x="263" y="55"/>
    </contour>
  </outline>
</glyph>
<glyph name="thorn" format="1">
  <advance width="510"/>
  <unicode hex="00FE"/>
  <outline>
    <contour>
      <point x="141" y="-1" type="line" name="hr01"/>
      <point x="165" y="-10"/>
      <point x="194" y="-16"/>
      <point x="225" y="-16" type="curve" smooth="yes" name="hr02"/>
      <point x="398" y="-16"/>
      <point x="481" y="132"/>
      <point x="481" y="266" type="curve" smooth="yes"/>
      <point x="481" y="400"/>
      <point x="390" y="477"/>
      <point x="290" y="477" type="curve" smooth="yes"/>
      <point x="231" y="477"/>
      <point x="184" y="452"/>
      <point x="144" y="416" type="curve"/>
      <point x="154" y="561" type="line"/>
      <point x="154" y="704" type="line"/>
      <point x="151" y="710"/>
      <point x="142" y="713"/>
      <point x="131" y="713" type="curve" smooth="yes"/>
      <point x="91" y="713"/>
      <point x="23" y="705"/>
      <point x="23" y="670" type="curve" smooth="yes"/>
      <point x="23" y="662"/>
      <point x="41" y="653"/>
      <point x="70" y="649" type="curve"/>
      <point x="70" y="-175" type="line"/>
      <point x="49" y="-184"/>
      <point x="25" y="-194"/>
      <point x="25" y="-206" type="curve" smooth="yes"/>
      <point x="25" y="-210"/>
      <point x="32" y="-215"/>
      <point x="44" y="-218" type="curve"/>
      <point x="159" y="-218" type="line" smooth="yes"/>
      <point x="204" y="-218"/>
      <point x="213" y="-213"/>
      <point x="213" y="-207" type="curve" smooth="yes"/>
      <point x="213" y="-183"/>
      <point x="198" y="-173"/>
      <point x="151" y="-173" type="curve"/>
      <point x="151" y="-64" type="line" name="hr03"/>
    </contour>
    <contour>
      <point x="152" y="81" type="curve" name="hr04"/>
      <point x="151" y="380" type="line"/>
      <point x="178" y="409"/>
      <point x="213" y="421"/>
      <point x="244" y="421" type="curve" smooth="yes"/>
      <point x="336" y="421"/>
      <point x="390" y="341"/>
      <point x="390" y="222" type="curve" smooth="yes"/>
      <point x="390" y="124"/>
      <point x="351" y="41"/>
      <point x="261" y="41" type="curve" smooth="yes"/>
      <point x="236" y="41"/>
      <point x="177" y="48"/>
    </contour>
  </outline>
</glyph>
<glyph name="dcaron" format="1">
  <advance width="587"/>
  <unicode hex="010F"/>
  <outline>
    <contour>
      <point x="537" y="526" type="line" smooth="yes" name="hr00"/>
      <point x="537" y="523"/>
      <point x="546" y="520"/>
      <point x="556" y="520" type="curve" smooth="yes"/>
      <point x="568" y="520"/>
      <point x="582" y="524"/>
      <point x="587" y="535" type="curve"/>
      <point x="596" y="561"/>
      <point x="610" y="644"/>
      <point x="610" y="703" type="curve" smooth="yes"/>
      <point x="610" y="737"/>
      <point x="608" y="763"/>
      <point x="539" y="763" type="curve" smooth="yes"/>
      <point x="524" y="763"/>
      <point x="516" y="760"/>
      <point x="516" y="749" type="curve"/>
    </contour>
    <component base="d" xOffset="-2"/>
  </outline>
</glyph>
<glyph name="Dcroat" format="1">
  <advance width="664"/>
  <unicode hex="0110"/>
  <outline>
    <contour>
      <point x="67" y="24" type="curve" smooth="yes" name="hr01"/>
      <point x="67" y="16"/>
      <point x="70" y="0"/>
      <point x="86" y="0" type="curve" smooth="yes"/>
      <point x="162" y="0" type="line" smooth="yes"/>
      <point x="232" y="0"/>
      <point x="255" y="-5"/>
      <point x="296" y="-5" type="curve" smooth="yes"/>
      <point x="529" y="-5"/>
      <point x="635" y="174"/>
      <point x="635" y="349" type="curve" smooth="yes" name="hr02"/>
      <point x="635" y="546"/>
      <point x="535" y="665"/>
      <point x="314" y="665" type="curve" smooth="yes"/>
      <point x="259" y="665"/>
      <point x="200" y="658"/>
      <point x="165" y="658" type="curve" smooth="yes"/>
      <point x="86" y="658" type="line" smooth="yes"/>
      <point x="70" y="658"/>
      <point x="67" y="642"/>
      <point x="67" y="634" type="curve" smooth="yes"/>
      <point x="67" y="618"/>
      <point x="117" y="610"/>
      <point x="131" y="603" type="curve"/>
      <point x="131" y="376" type="line"/>
      <point x="107" y="376" type="line" smooth="yes"/>
      <point x="97" y="376"/>
      <point x="67" y="358"/>
      <point x="67" y="339" type="curve" smooth="yes"/>
      <point x="67" y="324"/>
      <point x="79" y="316"/>
      <point x="86" y="316" type="curve" smooth="yes"/>
      <point x="131" y="316" type="line"/>
      <point x="131" y="55" type="line" name="hr03"/>
      <point x="117" y="48"/>
      <point x="67" y="39"/>
    </contour>
    <contour>
      <point x="220" y="48" type="curve" name="hr04"/>
      <point x="220" y="316" type="line"/>
      <point x="316" y="316" type="line" smooth="yes"/>
      <point x="335" y="316"/>
      <point x="369" y="326"/>
      <point x="369" y="362" type="curve" smooth="yes"/>
      <point x="369" y="369"/>
      <point x="357" y="376"/>
      <point x="345" y="376" type="curve" smooth="yes"/>
      <point x="220" y="376" type="line"/>
      <point x="220" y="611" type="line"/>
      <point x="297" y="611" type="line" smooth="yes"/>
      <point x="476" y="611"/>
      <point x="546" y="484"/>
      <point x="546" y="339" type="curve" smooth="yes"/>
      <point x="546" y="156"/>
      <point x="456" y="45"/>
      <point x="292" y="45" type="curve" smooth="yes"/>
      <point x="259" y="45"/>
      <point x="232" y="48"/>
    </contour>
  </outline>
</glyph>
<glyph name="dcroat" format="1">
  <advance width="520"/>
  <unicode hex="0111"/>
  <outline>
    <contour>
      <point x="27" y="195" type="curve" smooth="yes" name="hr01"/>
      <point x="27" y="62"/>
      <point x="119" y="-16"/>
      <point x="218" y="-16" type="curve" smooth="yes"/>
      <point x="280" y="-16"/>
      <point x="322" y="7"/>
      <point x="359" y="45" type="curve"/>
      <point x="359" y="19" type="line" smooth="yes" name="hr02"/>
      <point x="359" y="-6"/>
      <point x="373" y="-16"/>
      <point x="399" y="-16" type="curve" smooth="yes"/>
      <point x="459" y="-16"/>
      <point x="497" y="25"/>
      <point x="497" y="35" type="curve" smooth="yes"/>
      <point x="497" y="44"/>
      <point x="494" y="50"/>
      <point x="482" y="50" type="curve" smooth="yes"/>
      <point x="466" y="50"/>
      <point x="451" y="43"/>
      <point x="438" y="43" type="curve"/>
      <point x="438" y="533" type="line"/>
      <point x="482" y="533" type="line" smooth="yes"/>
      <point x="501" y="533"/>
      <point x="535" y="543"/>
      <point x="535" y="579" type="curve" smooth="yes"/>
      <point x="535" y="586"/>
      <point x="523" y="593"/>
      <point x="511" y="593" type="curve" smooth="yes"/>
      <point x="438" y="593" type="line"/>
      <point x="438" y="714" type="line"/>
      <point x="435" y="723"/>
      <point x="424" y="723"/>
      <point x="415" y="723" type="curve" smooth="yes"/>
      <point x="348" y="723"/>
      <point x="274" y="707"/>
      <point x="274" y="673" type="curve" smooth="yes"/>
      <point x="274" y="665"/>
      <point x="325" y="656"/>
      <point x="354" y="652" type="curve"/>
      <point x="354" y="593" type="line"/>
      <point x="273" y="593" type="line" smooth="yes"/>
      <point x="263" y="593"/>
      <point x="233" y="575"/>
      <point x="233" y="556" type="curve" smooth="yes"/>
      <point x="233" y="541"/>
      <point x="245" y="533"/>
      <point x="252" y="533" type="curve" smooth="yes"/>
      <point x="355" y="533" type="line"/>
      <point x="359" y="466" type="line"/>
      <point x="336" y="473"/>
      <point x="309" y="477"/>
      <point x="281" y="477" type="curve" smooth="yes"/>
      <point x="108" y="477"/>
      <point x="27" y="326"/>
    </contour>
    <contour>
      <point x="262" y="39" type="curve" smooth="yes"/>
      <point x="170" y="39"/>
      <point x="124" y="120"/>
      <point x="124" y="237" type="curve" smooth="yes"/>
      <point x="124" y="353"/>
      <point x="157" y="419"/>
      <point x="246" y="419" type="curve" smooth="yes"/>
      <point x="273" y="419"/>
      <point x="330" y="415"/>
      <point x="354" y="381" type="curve"/>
      <point x="355" y="77" type="line"/>
      <point x="327" y="52"/>
      <point x="291" y="39"/>
    </contour>
  </outline>
</glyph>
<glyph name="Eogonek" format="1">
  <advance width="536"/>
  <unicode hex="0118"/>
  <outline>
    <contour>
      <point x="48" y="24" type="curve" smooth="yes" name="hr00"/>
      <point x="48" y="16"/>
      <point x="51" y="0"/>
      <point x="67" y="0" type="curve" smooth="yes"/>
      <point x="353" y="0" type="line"/>
      <point x="312" y="-23"/>
      <point x="276" y="-58"/>
      <point x="276" y="-113" type="curve" smooth="yes"/>
      <point x="276" y="-172"/>
      <point x="325" y="-209"/>
      <point x="382" y="-209" type="curve" smooth="yes"/>
      <point x="482" y="-209"/>
      <point x="493" y="-146"/>
      <point x="493" y="-136" type="curve" smooth="yes"/>
      <point x="493" y="-131"/>
      <point x="488" y="-118"/>
      <point x="479" y="-118" type="curve" smooth="yes"/>
      <point x="477" y="-118"/>
      <point x="476" y="-118"/>
      <point x="474" y="-119" type="curve" smooth="yes"/>
      <point x="445" y="-136"/>
      <point x="422" y="-137"/>
      <point x="405" y="-137" type="curve" smooth="yes"/>
      <point x="378" y="-137"/>
      <point x="367" y="-110"/>
      <point x="367" y="-95" type="curve" smooth="yes"/>
      <point x="367" y="-49"/>
      <point x="387" y="-21"/>
      <point x="414" y="0" type="curve"/>
      <point x="498" y="0" type="line" smooth="yes"/>
      <point x="503" y="0"/>
      <point x="510" y="71"/>
      <point x="510" y="119" type="curve" smooth="yes"/>
      <point x="510" y="173"/>
      <point x="502" y="186"/>
      <point x="468" y="186" type="curve" smooth="yes"/>
      <point x="461" y="186"/>
      <point x="437" y="80"/>
      <point x="409" y="63" type="curve" smooth="yes"/>
      <point x="392" y="53"/>
      <point x="343" y="49"/>
      <point x="289" y="49" type="curve" smooth="yes"/>
      <point x="259" y="49"/>
      <point x="221" y="50"/>
      <point x="201" y="50" type="curve"/>
      <point x="201" y="319" type="line"/>
      <point x="355" y="305" type="line"/>
      <point x="376" y="307"/>
      <point x="393" y="350"/>
      <point x="393" y="367" type="curve" smooth="yes"/>
      <point x="393" y="372"/>
      <point x="389" y="377"/>
      <point x="376" y="378" type="curve"/>
      <point x="201" y="374" type="line"/>
      <point x="201" y="613" type="line"/>
      <point x="354" y="613" type="line" smooth="yes"/>
      <point x="421" y="613"/>
      <point x="401" y="528"/>
      <point x="440" y="528" type="curve" smooth="yes"/>
      <point x="460" y="528"/>
      <point x="476" y="596"/>
      <point x="476" y="628" type="curve" smooth="yes"/>
      <point x="476" y="656"/>
      <point x="456" y="658"/>
      <point x="412" y="658" type="curve" smooth="yes"/>
      <point x="67" y="658" type="line" smooth="yes"/>
      <point x="51" y="658"/>
      <point x="48" y="642"/>
      <point x="48" y="634" type="curve" smooth="yes"/>
      <point x="48" y="618"/>
      <point x="98" y="610"/>
      <point x="112" y="603" type="curve"/>
      <point x="112" y="55" type="line"/>
      <point x="98" y="48"/>
      <point x="48" y="39"/>
    </contour>
  </outline>
</glyph>
<glyph name="Hbar" format="1">
  <advance width="703"/>
  <unicode hex="0126"/>
  <outline>
    <contour>
      <point x="44" y="12" type="curve" smooth="yes" name="hr00"/>
      <point x="44" y="5"/>
      <point x="46" y="0"/>
      <point x="65" y="0" type="curve" smooth="yes"/>
      <point x="244" y="0" type="line" smooth="yes"/>
      <point x="268" y="0"/>
      <point x="277" y="5"/>
      <point x="277" y="11" type="curve" smooth="yes"/>
      <point x="277" y="35"/>
      <point x="244" y="41"/>
      <point x="202" y="45" type="curve"/>
      <point x="202" y="248" type="line"/>
      <point x="501" y="248" type="line"/>
      <point x="501" y="43" type="line"/>
      <point x="444" y="34"/>
      <point x="423" y="25"/>
      <point x="423" y="12" type="curve" smooth="yes"/>
      <point x="423" y="5"/>
      <point x="425" y="0"/>
      <point x="441" y="0" type="curve" smooth="yes"/>
      <point x="623" y="0" type="line" smooth="yes"/>
      <point x="645" y="0"/>
      <point x="653" y="5"/>
      <point x="653" y="11" type="curve" smooth="yes"/>
      <point x="653" y="35"/>
      <point x="633" y="41"/>
      <point x="591" y="45" type="curve"/>
      <point x="591" y="408" type="line"/>
      <point x="631" y="408" type="line"/>
      <point x="651" y="410"/>
      <point x="693" y="436"/>
      <point x="693" y="451" type="curve" smooth="yes"/>
      <point x="693" y="457"/>
      <point x="687" y="461"/>
      <point x="672" y="462" type="curve"/>
      <point x="591" y="462" type="line"/>
      <point x="591" y="617" type="line"/>
      <point x="609" y="625"/>
      <point x="641" y="632"/>
      <point x="641" y="645" type="curve" smooth="yes"/>
      <point x="641" y="648"/>
      <point x="636" y="653"/>
      <point x="623" y="658" type="curve"/>
      <point x="507" y="658" type="line" smooth="yes"/>
      <point x="439" y="658"/>
      <point x="433" y="652"/>
      <point x="433" y="641" type="curve" smooth="yes"/>
      <point x="433" y="620"/>
      <point x="454" y="615"/>
      <point x="501" y="615" type="curve"/>
      <point x="501" y="462" type="line"/>
      <point x="202" y="462" type="line"/>
      <point x="202" y="617" type="line"/>
      <point x="220" y="625"/>
      <point x="262" y="632"/>
      <point x="262" y="645" type="curve" smooth="yes"/>
      <point x="262" y="648"/>
      <point x="257" y="653"/>
      <point x="244" y="658" type="curve"/>
      <point x="119" y="658" type="line" smooth="yes"/>
      <point x="50" y="658"/>
      <point x="54" y="652"/>
      <point x="54" y="641" type="curve" smooth="yes"/>
      <point x="54" y="620"/>
      <point x="68" y="615"/>
      <point x="112" y="615" type="curve"/>
      <point x="112" y="462" type="line"/>
      <point x="75" y="462" type="line"/>
      <point x="60" y="459"/>
      <point x="28" y="442"/>
      <point x="28" y="427" type="curve" smooth="yes"/>
      <point x="28" y="422"/>
      <point x="32" y="417"/>
      <point x="45" y="413" type="curve"/>
      <point x="45" y="408" type="line"/>
      <point x="112" y="408" type="line"/>
      <point x="112" y="43" type="line"/>
      <point x="55" y="34"/>
      <point x="44" y="25"/>
    </contour>
    <contour>
      <point x="202" y="302" type="line"/>
      <point x="202" y="408" type="line"/>
      <point x="501" y="408" type="line"/>
      <point x="501" y="302" type="line"/>
    </contour>
  </outline>
</glyph>
<glyph name="iogonek" format="1">
  <advance width="280"/>
  <unicode hex="012F"/>
  <outline>
    <contour>
      <point x="156" y="554" type="curve" smooth="yes" name="hr01"/>
      <point x="182" y="554"/>
      <point x="211" y="589"/>
      <point x="211" y="612" type="curve" smooth="yes"/>
      <point x="211" y="630"/>
      <point x="195" y="658"/>
      <point x="133" y="658" type="curve" smooth="yes"/>
      <point x="107" y="658"/>
      <point x="80" y="618"/>
      <point x="80" y="596" type="curve" smooth="yes"/>
      <point x="80" y="587"/>
      <point x="95" y="554"/>
    </contour>
    <contour>
      <point x="43" y="20" type="curve" smooth="yes" name="hr02"/>
      <point x="43" y="12"/>
      <point x="46" y="0"/>
      <point x="62" y="0" type="curve" smooth="yes"/>
      <point x="106" y="0" type="line"/>
      <point x="65" y="-23"/>
      <point x="29" y="-58"/>
      <point x="29" y="-113" type="curve" smooth="yes"/>
      <point x="29" y="-172"/>
      <point x="78" y="-209"/>
      <point x="135" y="-209" type="curve" smooth="yes"/>
      <point x="235" y="-209"/>
      <point x="246" y="-146"/>
      <point x="246" y="-136" type="curve" smooth="yes"/>
      <point x="246" y="-131"/>
      <point x="241" y="-118"/>
      <point x="232" y="-118" type="curve" smooth="yes"/>
      <point x="230" y="-118"/>
      <point x="229" y="-118"/>
      <point x="227" y="-119" type="curve" smooth="yes"/>
      <point x="198" y="-136"/>
      <point x="175" y="-137"/>
      <point x="158" y="-137" type="curve" smooth="yes"/>
      <point x="131" y="-137"/>
      <point x="120" y="-110"/>
      <point x="120" y="-95" type="curve" smooth="yes"/>
      <point x="120" y="-49"/>
      <point x="140" y="-21"/>
      <point x="167" y="0" type="curve"/>
      <point x="228" y="0" type="line" smooth="yes" name="hr03"/>
      <point x="252" y="0"/>
      <point x="262" y="9"/>
      <point x="262" y="22" type="curve" smooth="yes"/>
      <point x="262" y="55"/>
      <point x="192" y="33"/>
      <point x="192" y="74" type="curve" smooth="yes"/>
      <point x="192" y="457" type="line"/>
      <point x="190" y="465"/>
      <point x="171" y="467"/>
      <point x="159" y="467" type="curve" smooth="yes"/>
      <point x="116" y="467"/>
      <point x="43" y="436"/>
      <point x="43" y="409" type="curve" smooth="yes"/>
      <point x="43" y="399"/>
      <point x="81" y="385"/>
      <point x="108" y="380" type="curve"/>
      <point x="108" y="54" type="line"/>
      <point x="93" y="47"/>
      <point x="43" y="34"/>
    </contour>
  </outline>
</glyph>
<glyph name="kgreenlandic" format="1">
  <advance width="513"/>
  <unicode hex="0138"/>
  <outline>
    <contour>
      <point x="50" y="12" type="curve" smooth="yes" name="hr01"/>
      <point x="50" y="9"/>
      <point x="58" y="3"/>
      <point x="71" y="0" type="curve"/>
      <point x="197" y="0" type="line" smooth="yes"/>
      <point x="228" y="0"/>
      <point x="238" y="5"/>
      <point x="238" y="11" type="curve" smooth="yes"/>
      <point x="238" y="35"/>
      <point x="223" y="57"/>
      <point x="178" y="57" type="curve" name="hr02"/>
      <point x="178" y="168" type="line"/>
      <point x="243" y="233" type="line"/>
      <point x="366" y="45" type="line" name="hr03"/>
      <point x="328" y="41"/>
      <point x="312" y="26"/>
      <point x="312" y="12" type="curve" smooth="yes"/>
      <point x="312" y="9"/>
      <point x="319" y="3"/>
      <point x="331" y="0" type="curve"/>
      <point x="482" y="0" type="line" smooth="yes"/>
      <point x="505" y="0"/>
      <point x="517" y="9"/>
      <point x="517" y="19" type="curve" smooth="yes"/>
      <point x="517" y="44"/>
      <point x="515" y="45"/>
      <point x="483" y="45" type="curve" smooth="yes"/>
      <point x="477" y="45"/>
      <point x="470" y="49"/>
      <point x="460" y="63" type="curve" smooth="yes"/>
      <point x="296" y="287" type="line"/>
      <point x="409" y="400" type="line"/>
      <point x="428" y="417" type="line"/>
      <point x="453" y="419"/>
      <point x="479" y="428"/>
      <point x="479" y="451" type="curve" smooth="yes"/>
      <point x="479" y="458"/>
      <point x="471" y="463"/>
      <point x="448" y="463" type="curve" smooth="yes"/>
      <point x="297" y="463" type="line" smooth="yes"/>
      <point x="282" y="463"/>
      <point x="275" y="449"/>
      <point x="275" y="441" type="curve" smooth="yes"/>
      <point x="275" y="427"/>
      <point x="313" y="421"/>
      <point x="337" y="417" type="curve"/>
      <point x="178" y="235" type="line"/>
      <point x="178" y="454" type="line"/>
      <point x="173" y="465"/>
      <point x="154" y="467"/>
      <point x="144" y="467" type="curve" smooth="yes"/>
      <point x="102" y="467"/>
      <point x="34" y="436"/>
      <point x="34" y="409" type="curve" smooth="yes"/>
      <point x="34" y="399"/>
      <point x="69" y="385"/>
      <point x="96" y="380" type="curve"/>
      <point x="96" y="54" type="line"/>
      <point x="77" y="45"/>
      <point x="50" y="25"/>
    </contour>
  </outline>
</glyph>
<glyph name="lslash" format="1">
  <advance width="267"/>
  <unicode hex="0142"/>
  <outline>
    <contour>
      <point x="37" y="20" type="curve" smooth="yes" name="hr00"/>
      <point x="37" y="12"/>
      <point x="40" y="0"/>
      <point x="56" y="0" type="curve" smooth="yes"/>
      <point x="211" y="0" type="line" smooth="yes"/>
      <point x="235" y="0"/>
      <point x="245" y="6"/>
      <point x="245" y="22" type="curve" smooth="yes"/>
      <point x="245" y="56"/>
      <point x="174" y="33"/>
      <point x="174" y="74" type="curve" smooth="yes"/>
      <point x="174" y="381" type="line"/>
      <point x="229" y="414" type="line" smooth="yes"/>
      <point x="241" y="421"/>
      <point x="256" y="438"/>
      <point x="256" y="457" type="curve" smooth="yes"/>
      <point x="256" y="465"/>
      <point x="251" y="483"/>
      <point x="239" y="483" type="curve" smooth="yes"/>
      <point x="236" y="483"/>
      <point x="231" y="481"/>
      <point x="224" y="478" type="curve"/>
      <point x="174" y="448" type="line"/>
      <point x="174" y="714" type="line"/>
      <point x="171" y="720"/>
      <point x="162" y="723"/>
      <point x="151" y="723" type="curve" smooth="yes"/>
      <point x="109" y="723"/>
      <point x="37" y="716"/>
      <point x="37" y="680" type="curve" smooth="yes"/>
      <point x="37" y="672"/>
      <point x="61" y="663"/>
      <point x="90" y="659" type="curve"/>
      <point x="90" y="403" type="line"/>
      <point x="28" y="367" type="line" smooth="yes"/>
      <point x="17" y="361"/>
      <point x="5" y="342"/>
      <point x="5" y="327" type="curve" smooth="yes"/>
      <point x="5" y="309"/>
      <point x="20" y="302"/>
      <point x="29" y="302" type="curve" smooth="yes"/>
      <point x="32" y="302"/>
      <point x="34" y="303"/>
      <point x="36" y="304" type="curve" smooth="yes"/>
      <point x="90" y="336" type="line"/>
      <point x="90" y="51" type="line"/>
      <point x="79" y="46"/>
      <point x="37" y="32"/>
    </contour>
  </outline>
</glyph>
<glyph name="Eng" format="1">
  <advance width="689"/>
  <unicode hex="014A"/>
  <outline>
    <contour>
      <point x="439" y="-205" type="curve" smooth="yes" name="hr00"/>
      <point x="439" y="-210"/>
      <point x="443" y="-214"/>
      <point x="451" y="-214" type="curve" smooth="yes"/>
      <point x="460" y="-214"/>
      <point x="474" y="-210"/>
      <point x="494" y="-199" type="curve"/>
      <point x="592" y="-135"/>
      <point x="611" y="-92"/>
      <point x="611" y="16" type="curve"/>
      <point x="612" y="61" type="line"/>
      <point x="539" y="61" type="line"/>
      <point x="539" y="6" type="line" smooth="yes"/>
      <point x="539" y="-64"/>
      <point x="519" y="-125"/>
      <point x="469" y="-161" type="curve"/>
      <point x="451" y="-177"/>
      <point x="439" y="-194"/>
    </contour>
    <component base="N"/>
  </outline>
</glyph>
<glyph name="uni015F" format="1">
  <advance width="409"/>
  <unicode hex="015F"/>
  <outline>
    <contour>
      <point x="48" y="44" type="curve" name="hr01"/>
      <point x="68" y="12"/>
      <point x="124" y="-10"/>
      <point x="171" y="-15" type="curve" name="hr02"/>
      <point x="158" y="-100" type="line"/>
      <point x="164" y="-99"/>
      <point x="171" y="-99"/>
      <point x="177" y="-99" type="curve" smooth="yes"/>
      <point x="218" y="-99"/>
      <point x="256" y="-110"/>
      <point x="256" y="-146" type="curve" smooth="yes"/>
      <point x="256" y="-201"/>
      <point x="211" y="-211"/>
      <point x="168" y="-211" type="curve" smooth="yes"/>
      <point x="157" y="-211"/>
      <point x="140" y="-205"/>
      <point x="129" y="-205" type="curve" smooth="yes"/>
      <point x="124" y="-205"/>
      <point x="114" y="-223"/>
      <point x="114" y="-236" type="curve" smooth="yes"/>
      <point x="114" y="-257"/>
      <point x="180" y="-264"/>
      <point x="199" y="-264" type="curve" smooth="yes"/>
      <point x="279" y="-264"/>
      <point x="351" y="-221"/>
      <point x="351" y="-141" type="curve" smooth="yes"/>
      <point x="351" y="-84"/>
      <point x="289" y="-64"/>
      <point x="243" y="-64" type="curve" name="hr03"/>
      <point x="243" y="-10" type="line"/>
      <point x="313" y="4"/>
      <point x="376" y="50"/>
      <point x="376" y="123" type="curve" smooth="yes"/>
      <point x="376" y="278"/>
      <point x="130" y="261"/>
      <point x="130" y="366" type="curve" smooth="yes" name="hr04"/>
      <point x="130" y="407"/>
      <point x="158" y="422"/>
      <point x="187" y="422" type="curve" smooth="yes"/>
      <point x="262" y="422"/>
      <point x="283" y="408"/>
      <point x="295" y="378" type="curve" name="hr05"/>
      <point x="295" y="378"/>
      <point x="309" y="328"/>
      <point x="325" y="328" type="curve" smooth="yes"/>
      <point x="351" y="328"/>
      <point x="349" y="390"/>
      <point x="349" y="418" type="curve" smooth="yes"/>
      <point x="349" y="444"/>
      <point x="313" y="477"/>
      <point x="233" y="477" type="curve" smooth="yes"/>
      <point x="150" y="477"/>
      <point x="55" y="422"/>
      <point x="55" y="332" type="curve" smooth="yes"/>
      <point x="55" y="180"/>
      <point x="295" y="207"/>
      <point x="295" y="94" type="curve" smooth="yes" name="hr06"/>
      <point x="295" y="56"/>
      <point x="259" y="33"/>
      <point x="224" y="33" type="curve" smooth="yes"/>
      <point x="170" y="33"/>
      <point x="123" y="62"/>
      <point x="108" y="88" type="curve" smooth="yes" name="hr07"/>
      <point x="99" y="103"/>
      <point x="91" y="150"/>
      <point x="75" y="150" type="curve" smooth="yes"/>
      <point x="43" y="150"/>
      <point x="51" y="79"/>
    </contour>
  </outline>
</glyph>
<glyph name="uni0163" format="1">
  <advance width="321"/>
  <unicode hex="0163"/>
  <outline>
    <contour>
      <point x="82" y="57" type="line" smooth="yes" name="hr01"/>
      <point x="82" y="13"/>
      <point x="111" y="-12"/>
      <point x="144" y="-13" type="curve"/>
      <point x="130" y="-100" type="line"/>
      <point x="136" y="-99"/>
      <point x="143" y="-99"/>
      <point x="149" y="-99" type="curve" smooth="yes"/>
      <point x="190" y="-99"/>
      <point x="228" y="-110"/>
      <point x="228" y="-146" type="curve" smooth="yes"/>
      <point x="228" y="-201"/>
      <point x="183" y="-211"/>
      <point x="140" y="-211" type="curve" smooth="yes"/>
      <point x="129" y="-211"/>
      <point x="112" y="-205"/>
      <point x="101" y="-205" type="curve" smooth="yes"/>
      <point x="96" y="-205"/>
      <point x="86" y="-223"/>
      <point x="86" y="-236" type="curve" smooth="yes"/>
      <point x="86" y="-257"/>
      <point x="152" y="-264"/>
      <point x="171" y="-264" type="curve" smooth="yes"/>
      <point x="251" y="-264"/>
      <point x="323" y="-221"/>
      <point x="323" y="-141" type="curve" smooth="yes"/>
      <point x="323" y="-84"/>
      <point x="261" y="-64"/>
      <point x="215" y="-64" type="curve"/>
      <point x="215" y="-7" type="line" name="hr02"/>
      <point x="244" y="0"/>
      <point x="298" y="17"/>
      <point x="298" y="40" type="curve" smooth="yes" name="hr03"/>
      <point x="298" y="42"/>
      <point x="299" y="57"/>
      <point x="279" y="57" type="curve" smooth="yes"/>
      <point x="256" y="57"/>
      <point x="235" y="46"/>
      <point x="217" y="46" type="curve" smooth="yes"/>
      <point x="170" y="46"/>
      <point x="169" y="52"/>
      <point x="169" y="147" type="curve" smooth="yes"/>
      <point x="169" y="402" type="line"/>
      <point x="253" y="402" type="line"/>
      <point x="272" y="403"/>
      <point x="284" y="424"/>
      <point x="284" y="440" type="curve" smooth="yes"/>
      <point x="284" y="450"/>
      <point x="281" y="458"/>
      <point x="264" y="458" type="curve" smooth="yes"/>
      <point x="169" y="458" type="line"/>
      <point x="169" y="582" type="line"/>
      <point x="164" y="585"/>
      <point x="148" y="586"/>
      <point x="138" y="586" type="curve" smooth="yes"/>
      <point x="109" y="586"/>
      <point x="108" y="512"/>
      <point x="90" y="478" type="curve"/>
      <point x="60" y="430"/>
      <point x="32" y="444"/>
      <point x="32" y="418" type="curve" smooth="yes"/>
      <point x="32" y="413"/>
      <point x="34" y="404"/>
      <point x="40" y="402" type="curve"/>
      <point x="82" y="402" type="line"/>
    </contour>
  </outline>
</glyph>
<glyph name="tbar" format="1">
  <advance width="321"/>
  <unicode hex="0167"/>
  <outline>
    <contour>
      <point x="82" y="57" type="line" smooth="yes" name="hr00"/>
      <point x="82" y="12"/>
      <point x="113" y="-13"/>
      <point x="146" y="-13" type="curve" smooth="yes"/>
      <point x="208" y="-13"/>
      <point x="298" y="7"/>
      <point x="298" y="40" type="curve" smooth="yes"/>
      <point x="298" y="42"/>
      <point x="299" y="57"/>
      <point x="279" y="57" type="curve" smooth="yes"/>
      <point x="256" y="57"/>
      <point x="235" y="46"/>
      <point x="217" y="46" type="curve" smooth="yes"/>
      <point x="170" y="46"/>
      <point x="169" y="52"/>
      <point x="169" y="147" type="curve" smooth="yes"/>
      <point x="169" y="231" type="line"/>
      <point x="246" y="231" type="line" smooth="yes"/>
      <point x="268" y="231"/>
      <point x="292" y="240"/>
      <point x="292" y="267" type="curve" smooth="yes"/>
      <point x="292" y="274"/>
      <point x="289" y="281"/>
      <point x="270" y="281" type="curve" smooth="yes"/>
      <point x="169" y="281" type="line"/>
      <point x="169" y="402" type="line"/>
      <point x="253" y="402" type="line"/>
      <point x="272" y="403"/>
      <point x="284" y="424"/>
      <point x="284" y="440" type="curve" smooth="yes"/>
      <point x="284" y="450"/>
      <point x="281" y="458"/>
      <point x="264" y="458" type="curve" smooth="yes"/>
      <point x="169" y="458" type="line"/>
      <point x="169" y="582" type="line"/>
      <point x="164" y="585"/>
      <point x="148" y="586"/>
      <point x="138" y="586" type="curve" smooth="yes"/>
      <point x="109" y="586"/>
      <point x="108" y="512"/>
      <point x="90" y="478" type="curve"/>
      <point x="60" y="430"/>
      <point x="32" y="444"/>
      <point x="32" y="418" type="curve" smooth="yes"/>
      <point x="32" y="413"/>
      <point x="34" y="404"/>
      <point x="40" y="402" type="curve"/>
      <point x="82" y="402" type="line"/>
      <point x="82" y="281" type="line"/>
      <point x="78" y="281" type="line" smooth="yes"/>
      <point x="62" y="281"/>
      <point x="38" y="274"/>
      <point x="38" y="255" type="curve" smooth="yes"/>
      <point x="38" y="239"/>
      <point x="50" y="231"/>
      <point x="60" y="231" type="curve" smooth="yes"/>
      <point x="82" y="231" type="line"/>
    </contour>
  </outline>
</glyph>
<glyph name="florin" format="1">
  <advance width="408"/>
  <unicode hex="0192"/>
  <outline>
    <contour>
      <point x="105" y="-103" type="line" name="hr00"/>
      <point x="111" y="-113"/>
      <point x="122" y="-118"/>
      <point x="134" y="-118" type="curve" smooth="yes"/>
      <point x="160" y="-118"/>
      <point x="188" y="-97"/>
      <point x="194" y="-81" type="curve"/>
      <point x="233" y="403" type="line"/>
      <point x="309" y="403" type="line"/>
      <point x="326" y="405"/>
      <point x="349" y="434"/>
      <point x="349" y="449" type="curve"/>
      <point x="348" y="454"/>
      <point x="344" y="459"/>
      <point x="330" y="460" type="curve"/>
      <point x="237" y="460" type="line"/>
      <point x="242" y="516" type="line" smooth="yes"/>
      <point x="246" y="562"/>
      <point x="253" y="659"/>
      <point x="313" y="659" type="curve" smooth="yes"/>
      <point x="336" y="659"/>
      <point x="344" y="643"/>
      <point x="345" y="621" type="curve" smooth="yes"/>
      <point x="345" y="617"/>
      <point x="344" y="612"/>
      <point x="344" y="608" type="curve" smooth="yes"/>
      <point x="344" y="591"/>
      <point x="349" y="584"/>
      <point x="362" y="584" type="curve" smooth="yes"/>
      <point x="395" y="584"/>
      <point x="434" y="625"/>
      <point x="434" y="650" type="curve"/>
      <point x="431" y="693"/>
      <point x="384" y="713"/>
      <point x="358" y="713" type="curve" smooth="yes"/>
      <point x="239" y="713"/>
      <point x="164" y="605"/>
      <point x="153" y="490" type="curve" smooth="yes"/>
      <point x="150" y="460" type="line"/>
      <point x="138" y="458"/>
      <point x="74" y="432"/>
      <point x="73" y="415" type="curve" smooth="yes"/>
      <point x="73" y="411"/>
      <point x="77" y="403"/>
      <point x="85" y="403" type="curve" smooth="yes"/>
      <point x="146" y="403" type="line"/>
    </contour>
  </outline>
</glyph>
<glyph name="dotlessj" format="1">
  <advance width="250"/>
  <unicode hex="0237"/>
  <outline>
    <contour>
      <point x="94" y="6" type="line" smooth="yes" name="hr00"/>
      <point x="94" y="-65"/>
      <point x="87" y="-122"/>
      <point x="38" y="-159" type="curve" smooth="yes"/>
      <point x="19" y="-173"/>
      <point x="8" y="-184"/>
      <point x="8" y="-194" type="curve" smooth="yes"/>
      <point x="8" y="-201"/>
      <point x="18" y="-214"/>
      <point x="26" y="-214" type="curve" smooth="yes"/>
      <point x="35" y="-214"/>
      <point x="44" y="-211"/>
      <point x="64" y="-199" type="curve" smooth="yes"/>
      <point x="153" y="-148"/>
      <point x="181" y="-92"/>
      <point x="181" y="16" type="curve" smooth="yes"/>
      <point x="181" y="457" type="line"/>
      <point x="179" y="465"/>
      <point x="160" y="467"/>
      <point x="147" y="467" type="curve" smooth="yes"/>
      <point x="105" y="467"/>
      <point x="32" y="436"/>
      <point x="32" y="409" type="curve" smooth="yes"/>
      <point x="32" y="399"/>
      <point x="67" y="385"/>
      <point x="94" y="380" type="curve"/>
    </contour>
  </outline>
</glyph>
<glyph name="caron" format="1">
  <advance width="388"/>
  <unicode hex="02C7"/>
  <outline>
    <contour>
      <point x="140" y="588" type="line" name="hr00"/>
      <point x="142" y="583"/>
      <point x="168" y="581"/>
      <point x="193" y="581" type="curve" smooth="yes"/>
      <point x="217" y="581"/>
      <point x="241" y="583"/>
      <point x="245" y="588" type="curve" smooth="yes"/>
      <point x="359" y="764" type="line"/>
      <point x="359" y="769"/>
      <point x="341" y="786"/>
      <point x="325" y="786" type="curve" smooth="yes"/>
      <point x="309" y="786"/>
      <point x="233" y="704"/>
      <point x="194" y="642" type="curve"/>
      <point x="151" y="703"/>
      <point x="77" y="786"/>
      <point x="63" y="786" type="curve" smooth="yes"/>
      <point x="44" y="786"/>
      <point x="27" y="769"/>
      <point x="27" y="764" type="curve"/>
      <point x="27" y="763" type="line"/>
    </contour>
  </outline>
</glyph>
<glyph name="uni02C9" format="1">
  <advance width="357"/>
  <unicode hex="02C9"/>
  <outline>
    <contour>
      <point x="47" y="776" type="curve" name="hr00"/>
      <point x="277" y="776" type="line" smooth="yes"/>
      <point x="307" y="776"/>
      <point x="330" y="792"/>
      <point x="330" y="823" type="curve" smooth="yes"/>
      <point x="330" y="834"/>
      <point x="327" y="842"/>
      <point x="308" y="842" type="curve" smooth="yes"/>
      <point x="68" y="842" type="line" smooth="yes"/>
      <point x="46" y="842"/>
      <point x="28" y="818"/>
      <point x="28" y="799" type="curve" smooth="yes"/>
      <point x="28" y="784"/>
      <point x="40" y="776"/>
    </contour>
  </outline>
</glyph>
<glyph name="hungarumlaut" format="1">
  <advance width="463"/>
  <unicode hex="02DD"/>
  <outline>
    <contour>
      <point x="317" y="549" type="curve" smooth="yes" name="hr00"/>
      <point x="332" y="549"/>
      <point x="439" y="653"/>
      <point x="465" y="710" type="curve"/>
      <point x="465" y="710"/>
      <point x="465" y="711"/>
      <point x="465" y="712" type="curve" smooth="yes"/>
      <point x="465" y="725"/>
      <point x="427" y="773"/>
      <point x="406" y="773" type="curve" smooth="yes"/>
      <point x="402" y="773"/>
      <point x="399" y="772"/>
      <point x="397" y="768" type="curve" smooth="yes"/>
      <point x="282" y="573" type="line"/>
      <point x="282" y="573"/>
      <point x="282" y="572"/>
      <point x="282" y="572" type="curve"/>
      <point x="282" y="567"/>
      <point x="300" y="549"/>
    </contour>
    <contour>
      <point x="94" y="549" type="curve" smooth="yes"/>
      <point x="97" y="549"/>
      <point x="101" y="550"/>
      <point x="105" y="552" type="curve"/>
      <point x="132" y="573"/>
      <point x="220" y="662"/>
      <point x="241" y="710" type="curve"/>
      <point x="241" y="710"/>
      <point x="241" y="711"/>
      <point x="241" y="712" type="curve" smooth="yes"/>
      <point x="241" y="725"/>
      <point x="203" y="773"/>
      <point x="182" y="773" type="curve" smooth="yes"/>
      <point x="178" y="773"/>
      <point x="174" y="772"/>
      <point x="172" y="768" type="curve" smooth="yes"/>
      <point x="59" y="573" type="line"/>
      <point x="59" y="573"/>
      <point x="59" y="572"/>
      <point x="59" y="572" type="curve"/>
      <point x="59" y="566"/>
      <point x="76" y="549"/>
    </contour>
  </outline>
</glyph>
<glyph name="dv_U" format="1">
  <advance width="561"/>
  <unicode hex="0909"/>
  <outline>
    <contour>
      <point x="78" y="46" type="curve" name="hr01"/>
      <point x="125" y="0"/>
      <point x="205" y="-24"/>
      <point x="279" y="-24" type="curve" smooth="yes"/>
      <point x="384" y="-24"/>
      <point x="485" y="33"/>
      <point x="485" y="146" type="curve" smooth="yes"/>
      <point x="485" y="225"/>
      <point x="443" y="295"/>
      <point x="384" y="339" type="curve"/>
      <point x="437" y="368"/>
      <point x="471" y="423"/>
      <point x="471" y="484" type="curve" smooth="yes" name="hr02"/>
      <point x="471" y="525"/>
      <point x="455" y="569"/>
      <point x="426" y="609" type="curve"/>
      <point x="585" y="609" type="line"/>
      <point x="591" y="610"/>
      <point x="594" y="614"/>
      <point x="594" y="620" type="curve" smooth="yes"/>
      <point x="594" y="641"/>
      <point x="559" y="684"/>
      <point x="540" y="687" type="curve"/>
      <point x="-23" y="687" type="line"/>
      <point x="-28" y="684"/>
      <point x="-29" y="680"/>
      <point x="-29" y="675" type="curve" smooth="yes"/>
      <point x="-29" y="652"/>
      <point x="7" y="615"/>
      <point x="22" y="609" type="curve"/>
      <point x="354" y="609" type="line"/>
      <point x="358" y="606"/>
      <point x="362" y="604"/>
      <point x="366" y="603" type="curve" smooth="yes"/>
      <point x="401" y="596"/>
      <point x="414" y="573"/>
      <point x="414" y="546" type="curve" smooth="yes"/>
      <point x="414" y="507"/>
      <point x="387" y="458"/>
      <point x="360" y="435" type="curve" smooth="yes"/>
      <point x="295" y="379"/>
      <point x="197" y="387"/>
      <point x="120" y="387" type="curve"/>
      <point x="115" y="384"/>
      <point x="114" y="380"/>
      <point x="114" y="375" type="curve" smooth="yes"/>
      <point x="114" y="352"/>
      <point x="150" y="315"/>
      <point x="165" y="309" type="curve"/>
      <point x="182" y="309"/>
      <point x="201" y="308"/>
      <point x="220" y="308" type="curve" smooth="yes"/>
      <point x="239" y="308"/>
      <point x="257" y="309"/>
      <point x="276" y="311" type="curve"/>
      <point x="278" y="310"/>
      <point x="280" y="309"/>
      <point x="281" y="309" type="curve" smooth="yes"/>
      <point x="324" y="306"/>
      <point x="415" y="295"/>
      <point x="422" y="244" type="curve" smooth="yes" name="hr03"/>
      <point x="424" y="233"/>
      <point x="425" y="222"/>
      <point x="425" y="212" type="curve" smooth="yes"/>
      <point x="425" y="117"/>
      <point x="341" y="53"/>
      <point x="238" y="53" type="curve" smooth="yes"/>
      <point x="182" y="53"/>
      <point x="119" y="69"/>
      <point x="84" y="95" type="curve" smooth="yes"/>
      <point x="73" y="103"/>
      <point x="59" y="112"/>
      <point x="51" y="113" type="curve" smooth="yes"/>
      <point x="47" y="113"/>
      <point x="45" y="110"/>
      <point x="45" y="105" type="curve" smooth="yes"/>
      <point x="45" y="90"/>
      <point x="62" y="63"/>
    </contour>
  </outline>
</glyph>
<glyph name="dv_VocalicL" format="1">
  <advance width="868"/>
  <unicode hex="090C"/>
  <outline>
    <contour>
      <point x="230" y="-25" type="curve" name="hr00"/>
      <point x="246" y="-42"/>
      <point x="255" y="-48"/>
      <point x="260" y="-48" type="curve" smooth="yes"/>
      <point x="264" y="-48"/>
      <point x="265" y="-45"/>
      <point x="265" y="-41" type="curve" smooth="yes"/>
      <point x="265" y="-31"/>
      <point x="257" y="-8"/>
      <point x="247" y="5" type="curve" smooth="yes"/>
      <point x="195" y="73"/>
      <point x="147" y="164"/>
      <point x="147" y="254" type="curve" smooth="yes"/>
      <point x="147" y="361"/>
      <point x="206" y="408"/>
      <point x="287" y="408" type="curve" smooth="yes"/>
      <point x="301" y="408"/>
      <point x="360" y="407"/>
      <point x="377" y="378" type="curve" smooth="yes"/>
      <point x="385" y="363"/>
      <point x="389" y="339"/>
      <point x="392" y="312" type="curve"/>
      <point x="391" y="307"/>
      <point x="391" y="303"/>
      <point x="391" y="298" type="curve" smooth="yes"/>
      <point x="391" y="294"/>
      <point x="393" y="284"/>
      <point x="393" y="276" type="curve" smooth="yes"/>
      <point x="393" y="238"/>
      <point x="390" y="202"/>
      <point x="390" y="191" type="curve"/>
      <point x="392" y="177"/>
      <point x="421" y="122"/>
      <point x="440" y="122" type="curve" smooth="yes"/>
      <point x="455" y="122"/>
      <point x="451" y="191"/>
      <point x="451" y="216" type="curve" smooth="yes"/>
      <point x="451" y="223"/>
      <point x="451" y="230"/>
      <point x="451" y="238" type="curve" smooth="yes"/>
      <point x="455" y="316"/>
      <point x="484" y="408"/>
      <point x="588" y="408" type="curve" smooth="yes"/>
      <point x="619" y="408"/>
      <point x="652" y="398"/>
      <point x="673" y="373" type="curve"/>
      <point x="681" y="357" type="line"/>
      <point x="681" y="329"/>
      <point x="681" y="151"/>
      <point x="677" y="151" type="curve" smooth="yes"/>
      <point x="675" y="151"/>
      <point x="673" y="152"/>
      <point x="672" y="152" type="curve" smooth="yes"/>
      <point x="608" y="152"/>
      <point x="541" y="101"/>
      <point x="541" y="22" type="curve" smooth="yes"/>
      <point x="541" y="-66"/>
      <point x="616" y="-148"/>
      <point x="714" y="-148" type="curve" smooth="yes"/>
      <point x="737" y="-148"/>
      <point x="794" y="-145"/>
      <point x="794" y="-127" type="curve" smooth="yes"/>
      <point x="794" y="-102"/>
      <point x="761" y="-64"/>
      <point x="741" y="-60" type="curve"/>
      <point x="720" y="-66"/>
      <point x="694" y="-70"/>
      <point x="669" y="-70" type="curve" smooth="yes"/>
      <point x="642" y="-70"/>
      <point x="600" y="-68"/>
      <point x="600" y="-37" type="curve" smooth="yes"/>
      <point x="600" y="35"/>
      <point x="662" y="69"/>
      <point x="730" y="75" type="curve"/>
      <point x="733" y="76"/>
      <point x="737" y="78"/>
      <point x="739" y="81" type="curve"/>
      <point x="739" y="595" type="line" smooth="yes"/>
      <point x="739" y="600"/>
      <point x="737" y="604"/>
      <point x="736" y="609" type="curve"/>
      <point x="889" y="609" type="line"/>
      <point x="895" y="610"/>
      <point x="898" y="614"/>
      <point x="898" y="620" type="curve" smooth="yes"/>
      <point x="898" y="641"/>
      <point x="863" y="684"/>
      <point x="844" y="687" type="curve"/>
      <point x="-26" y="687" type="line"/>
      <point x="-31" y="684"/>
      <point x="-32" y="680"/>
      <point x="-32" y="675" type="curve" smooth="yes"/>
      <point x="-32" y="652"/>
      <point x="4" y="615"/>
      <point x="19" y="609" type="curve"/>
      <point x="679" y="609" type="line"/>
      <point x="679" y="544"/>
      <point x="681" y="480"/>
      <point x="681" y="416" type="curve"/>
      <point x="644" y="459"/>
      <point x="598" y="486"/>
      <point x="545" y="486" type="curve" smooth="yes"/>
      <point x="486" y="486"/>
      <point x="433" y="455"/>
      <point x="407" y="393" type="curve"/>
      <point x="369" y="449"/>
      <point x="308" y="486"/>
      <point x="240" y="486" type="curve" smooth="yes"/>
      <point x="150" y="486"/>
      <point x="89" y="429"/>
      <point x="89" y="320" type="curve" smooth="yes"/>
      <point x="89" y="192"/>
      <point x="152" y="72"/>
    </contour>
  </outline>
</glyph>
<glyph name="dv_Kha" format="1">
  <advance width="917"/>
  <unicode hex="0916"/>
  <outline>
    <contour>
      <point x="136" y="226" type="curve" name="hr00"/>
      <point x="174" y="93"/>
      <point x="322" y="-29"/>
      <point x="466" y="-29" type="curve" smooth="yes"/>
      <point x="563" y="-29"/>
      <point x="666" y="26"/>
      <point x="728" y="99" type="curve"/>
      <point x="728" y="33" type="line"/>
      <point x="730" y="19"/>
      <point x="759" y="-36"/>
      <point x="778" y="-36" type="curve" smooth="yes"/>
      <point x="782" y="-36"/>
      <point x="785" y="-34"/>
      <point x="788" y="-29" type="curve"/>
      <point x="788" y="603" type="line" smooth="yes"/>
      <point x="788" y="605"/>
      <point x="788" y="607"/>
      <point x="787" y="609" type="curve"/>
      <point x="938" y="609" type="line"/>
      <point x="944" y="610"/>
      <point x="947" y="614"/>
      <point x="947" y="620" type="curve" smooth="yes"/>
      <point x="947" y="641"/>
      <point x="912" y="684"/>
      <point x="893" y="687" type="curve"/>
      <point x="-24" y="687" type="line"/>
      <point x="-29" y="684"/>
      <point x="-30" y="680"/>
      <point x="-30" y="675" type="curve" smooth="yes"/>
      <point x="-30" y="652"/>
      <point x="6" y="615"/>
      <point x="21" y="609" type="curve"/>
      <point x="244" y="609" type="line"/>
      <point x="269" y="580"/>
      <point x="283" y="536"/>
      <point x="283" y="499" type="curve" smooth="yes"/>
      <point x="283" y="436"/>
      <point x="246" y="380"/>
      <point x="177" y="348" type="curve"/>
      <point x="170" y="373"/>
      <point x="150" y="401"/>
      <point x="126" y="405" type="curve"/>
      <point x="123" y="403" type="line"/>
      <point x="120" y="408" type="line"/>
      <point x="120" y="402" type="line"/>
      <point x="92" y="388"/>
      <point x="46" y="363"/>
      <point x="46" y="330" type="curve" smooth="yes"/>
      <point x="46" y="276"/>
      <point x="99" y="253"/>
      <point x="130" y="251" type="curve"/>
      <point x="131" y="242"/>
      <point x="133" y="234"/>
    </contour>
    <contour>
      <point x="203" y="165" type="curve" smooth="yes"/>
      <point x="187" y="194"/>
      <point x="182" y="224"/>
      <point x="180" y="255" type="curve"/>
      <point x="295" y="279"/>
      <point x="343" y="366"/>
      <point x="343" y="440" type="curve" smooth="yes"/>
      <point x="343" y="497"/>
      <point x="320" y="557"/>
      <point x="285" y="609" type="curve"/>
      <point x="728" y="609" type="line"/>
      <point x="728" y="453" type="line"/>
      <point x="690" y="500"/>
      <point x="637" y="528"/>
      <point x="579" y="528" type="curve" smooth="yes"/>
      <point x="494" y="528"/>
      <point x="419" y="467"/>
      <point x="419" y="371" type="curve" smooth="yes"/>
      <point x="419" y="266"/>
      <point x="501" y="154"/>
      <point x="615" y="154" type="curve" smooth="yes"/>
      <point x="630" y="154"/>
      <point x="645" y="156"/>
      <point x="660" y="159" type="curve"/>
      <point x="600" y="92"/>
      <point x="513" y="53"/>
      <point x="417" y="53" type="curve" smooth="yes"/>
      <point x="331" y="53"/>
      <point x="246" y="86"/>
    </contour>
    <contour>
      <point x="478" y="303" type="curve" smooth="yes"/>
      <point x="478" y="313"/>
      <point x="479" y="324"/>
      <point x="481" y="336" type="curve" smooth="yes"/>
      <point x="492" y="409"/>
      <point x="557" y="448"/>
      <point x="625" y="448" type="curve" smooth="yes"/>
      <point x="648" y="448"/>
      <point x="692" y="444"/>
      <point x="713" y="420" type="curve" smooth="yes"/>
      <point x="723" y="408"/>
      <point x="725" y="391"/>
      <point x="728" y="377" type="curve"/>
      <point x="727" y="357" type="line"/>
      <point x="710" y="285"/>
      <point x="667" y="234"/>
      <point x="571" y="234" type="curve" smooth="yes"/>
      <point x="502" y="234"/>
      <point x="478" y="259"/>
    </contour>
  </outline>
</glyph>
<glyph name="dv_Gha" format="1">
  <advance width="704"/>
  <unicode hex="0918"/>
  <outline>
    <contour>
      <point x="157" y="136" type="curve" smooth="yes" name="hr01"/>
      <point x="205" y="95"/>
      <point x="250" y="82"/>
      <point x="304" y="82" type="curve" smooth="yes"/>
      <point x="395" y="82"/>
      <point x="465" y="112"/>
      <point x="518" y="188" type="curve"/>
      <point x="518" y="33" type="line"/>
      <point x="520" y="19"/>
      <point x="549" y="-36"/>
      <point x="568" y="-36" type="curve" smooth="yes"/>
      <point x="572" y="-36"/>
      <point x="575" y="-34"/>
      <point x="578" y="-29" type="curve"/>
      <point x="578" y="609" type="line"/>
      <point x="726" y="609" type="line"/>
      <point x="732" y="610"/>
      <point x="735" y="614"/>
      <point x="735" y="620" type="curve" smooth="yes"/>
      <point x="735" y="641"/>
      <point x="700" y="684"/>
      <point x="681" y="687" type="curve"/>
      <point x="-26" y="687" type="line"/>
      <point x="-31" y="684"/>
      <point x="-32" y="680"/>
      <point x="-32" y="675" type="curve" smooth="yes"/>
      <point x="-32" y="652"/>
      <point x="4" y="615"/>
      <point x="19" y="609" type="curve" name="hr02"/>
      <point x="103" y="609" type="line"/>
      <point x="99" y="595"/>
      <point x="97" y="580"/>
      <point x="97" y="565" type="curve" smooth="yes"/>
      <point x="97" y="509"/>
      <point x="125" y="453"/>
      <point x="157" y="422" type="curve"/>
      <point x="107" y="393"/>
      <point x="85" y="344"/>
      <point x="85" y="292" type="curve" smooth="yes" name="hr03"/>
      <point x="85" y="235"/>
      <point x="111" y="176"/>
    </contour>
    <contour>
      <point x="149" y="195" type="curve"/>
      <point x="147" y="199"/>
      <point x="143" y="219"/>
      <point x="143" y="230" type="curve" smooth="yes"/>
      <point x="143" y="333"/>
      <point x="236" y="364"/>
      <point x="301" y="365" type="curve" smooth="yes"/>
      <point x="308" y="365" type="line"/>
      <point x="364" y="365" type="line"/>
      <point x="370" y="366"/>
      <point x="373" y="370"/>
      <point x="373" y="376" type="curve" smooth="yes"/>
      <point x="373" y="397"/>
      <point x="338" y="440"/>
      <point x="319" y="443" type="curve"/>
      <point x="301" y="443"/>
      <point x="280" y="444"/>
      <point x="258" y="444" type="curve" smooth="yes"/>
      <point x="252" y="444"/>
      <point x="246" y="444"/>
      <point x="241" y="444" type="curve" smooth="yes" name="hr04"/>
      <point x="216" y="445"/>
      <point x="177" y="452"/>
      <point x="161" y="471" type="curve"/>
      <point x="160" y="471" type="line"/>
      <point x="160" y="481"/>
      <point x="156" y="492"/>
      <point x="156" y="503" type="curve" smooth="yes"/>
      <point x="156" y="560"/>
      <point x="190" y="605"/>
      <point x="246" y="609" type="curve"/>
      <point x="518" y="609" type="line"/>
      <point x="518" y="380" type="line"/>
      <point x="517" y="379"/>
      <point x="516" y="379"/>
      <point x="516" y="379" type="curve"/>
      <point x="482" y="264"/>
      <point x="405" y="158"/>
      <point x="263" y="158" type="curve" smooth="yes"/>
      <point x="224" y="158"/>
      <point x="177" y="166"/>
    </contour>
  </outline>
</glyph>
<glyph name="dv_Cha" format="1">
  <advance width="815"/>
  <unicode hex="091B"/>
  <outline>
    <contour>
      <point x="186" y="26" type="curve" smooth="yes" name="hr01"/>
      <point x="236" y="-6"/>
      <point x="292" y="-18"/>
      <point x="354" y="-18" type="curve" smooth="yes"/>
      <point x="547" y="-18"/>
      <point x="750" y="147"/>
      <point x="750" y="356" type="curve" smooth="yes"/>
      <point x="750" y="424"/>
      <point x="717" y="504"/>
      <point x="651" y="544" type="curve"/>
      <point x="651" y="604" type="line"/>
      <point x="651" y="605"/>
      <point x="650" y="607"/>
      <point x="650" y="609" type="curve"/>
      <point x="836" y="609" type="line"/>
      <point x="842" y="610"/>
      <point x="845" y="614"/>
      <point x="845" y="620" type="curve" smooth="yes"/>
      <point x="845" y="641"/>
      <point x="810" y="684"/>
      <point x="791" y="687" type="curve"/>
      <point x="-22" y="687" type="line"/>
      <point x="-27" y="684"/>
      <point x="-28" y="680"/>
      <point x="-28" y="675" type="curve" smooth="yes"/>
      <point x="-28" y="652"/>
      <point x="8" y="615"/>
      <point x="23" y="609" type="curve" name="hr02"/>
      <point x="108" y="609" type="line"/>
      <point x="101" y="591"/>
      <point x="97" y="572"/>
      <point x="97" y="552" type="curve" smooth="yes"/>
      <point x="97" y="486"/>
      <point x="135" y="416"/>
      <point x="186" y="369" type="curve"/>
      <point x="115" y="333"/>
      <point x="81" y="274"/>
      <point x="81" y="211" type="curve" smooth="yes" name="hr03"/>
      <point x="81" y="139"/>
      <point x="123" y="65"/>
    </contour>
    <contour>
      <point x="164" y="95" type="curve" smooth="yes"/>
      <point x="146" y="108"/>
      <point x="138" y="129"/>
      <point x="138" y="152" type="curve" smooth="yes"/>
      <point x="138" y="180"/>
      <point x="149" y="209"/>
      <point x="163" y="229" type="curve" smooth="yes"/>
      <point x="212" y="300"/>
      <point x="280" y="315"/>
      <point x="362" y="315" type="curve" smooth="yes"/>
      <point x="366" y="315"/>
      <point x="371" y="319"/>
      <point x="371" y="323" type="curve" smooth="yes"/>
      <point x="371" y="331" type="line"/>
      <point x="369" y="335" type="line"/>
      <point x="369" y="337"/>
      <point x="367" y="341"/>
      <point x="366" y="343" type="curve" smooth="yes"/>
      <point x="363" y="349" type="line"/>
      <point x="363" y="350"/>
      <point x="362" y="350"/>
      <point x="362" y="351" type="curve"/>
      <point x="348" y="370" type="line" smooth="yes"/>
      <point x="339" y="382"/>
      <point x="323" y="392"/>
      <point x="317" y="393" type="curve"/>
      <point x="271" y="393" type="line"/>
      <point x="222" y="397"/>
      <point x="154" y="421"/>
      <point x="154" y="484" type="curve" smooth="yes" name="hr04"/>
      <point x="154" y="533"/>
      <point x="195" y="588"/>
      <point x="233" y="608" type="curve"/>
      <point x="591" y="609" type="line"/>
      <point x="591" y="570" type="line" smooth="yes"/>
      <point x="591" y="568"/>
      <point x="592" y="565"/>
      <point x="593" y="562" type="curve"/>
      <point x="590" y="562"/>
      <point x="588" y="562"/>
      <point x="585" y="562" type="curve" smooth="yes"/>
      <point x="518" y="562"/>
      <point x="469" y="503"/>
      <point x="469" y="432" type="curve" smooth="yes"/>
      <point x="469" y="329"/>
      <point x="547" y="264"/>
      <point x="624" y="230" type="curve"/>
      <point x="619" y="223" type="line" smooth="yes"/>
      <point x="544" y="122"/>
      <point x="434" y="60"/>
      <point x="309" y="60" type="curve" smooth="yes"/>
      <point x="260" y="60"/>
      <point x="206" y="67"/>
    </contour>
    <contour>
      <point x="534" y="339" type="curve" name="hr06"/>
      <point x="531" y="351"/>
      <point x="529" y="363"/>
      <point x="529" y="375" type="curve" smooth="yes"/>
      <point x="529" y="426"/>
      <point x="566" y="484"/>
      <point x="628" y="484" type="curve" smooth="yes"/>
      <point x="646" y="484"/>
      <point x="673" y="479"/>
      <point x="684" y="466" type="curve"/>
      <point x="689" y="445" type="line"/>
      <point x="690" y="436"/>
      <point x="691" y="427"/>
      <point x="691" y="419" type="curve" smooth="yes"/>
      <point x="691" y="376"/>
      <point x="675" y="322"/>
      <point x="654" y="279" type="curve"/>
      <point x="645" y="287" type="line"/>
      <point x="607" y="298"/>
      <point x="561" y="308"/>
    </contour>
  </outline>
</glyph>
<glyph name="dv_Jha" format="1">
  <advance width="858"/>
  <unicode hex="091D"/>
  <outline>
    <contour>
      <point x="62" y="117" type="curve" smooth="yes" name="hr01"/>
      <point x="62" y="72"/>
      <point x="117" y="13"/>
      <point x="147" y="-3" type="curve"/>
      <point x="161" y="-10" type="line"/>
      <point x="179" y="-38"/>
      <point x="206" y="-66"/>
      <point x="220" y="-85" type="curve" smooth="yes"/>
      <point x="249" y="-125"/>
      <point x="295" y="-191"/>
      <point x="312" y="-191" type="curve" smooth="yes"/>
      <point x="316" y="-191"/>
      <point x="317" y="-188"/>
      <point x="317" y="-184" type="curve" smooth="yes"/>
      <point x="318" y="-151"/>
      <point x="266" y="-95"/>
      <point x="237" y="-55" type="curve" smooth="yes"/>
      <point x="214" y="-24" type="line"/>
      <point x="233" y="-27"/>
      <point x="253" y="-29"/>
      <point x="273" y="-29" type="curve" smooth="yes"/>
      <point x="379" y="-29"/>
      <point x="485" y="13"/>
      <point x="485" y="119" type="curve" smooth="yes" name="hr02"/>
      <point x="485" y="142"/>
      <point x="480" y="166"/>
      <point x="471" y="188" type="curve"/>
      <point x="671" y="188" type="line"/>
      <point x="671" y="33" type="line"/>
      <point x="673" y="19"/>
      <point x="702" y="-36"/>
      <point x="721" y="-36" type="curve" smooth="yes"/>
      <point x="725" y="-36"/>
      <point x="728" y="-34"/>
      <point x="731" y="-29" type="curve"/>
      <point x="731" y="609" type="line"/>
      <point x="878" y="609" type="line"/>
      <point x="884" y="610"/>
      <point x="887" y="614"/>
      <point x="887" y="620" type="curve" smooth="yes"/>
      <point x="887" y="641"/>
      <point x="852" y="684"/>
      <point x="833" y="687" type="curve"/>
      <point x="-22" y="687" type="line"/>
      <point x="-27" y="684"/>
      <point x="-28" y="680"/>
      <point x="-28" y="675" type="curve" smooth="yes"/>
      <point x="-28" y="652"/>
      <point x="8" y="615"/>
      <point x="23" y="609" type="curve"/>
      <point x="368" y="609" type="line" name="hr03"/>
      <point x="368" y="520" type="line"/>
      <point x="189" y="520" type="line" smooth="yes"/>
      <point x="101" y="520"/>
      <point x="63" y="460"/>
      <point x="63" y="415" type="curve" smooth="yes"/>
      <point x="63" y="368"/>
      <point x="92" y="316"/>
      <point x="128" y="281" type="curve" smooth="yes"/>
      <point x="181" y="229"/>
      <point x="243" y="236"/>
      <point x="314" y="236" type="curve" smooth="yes"/>
      <point x="347" y="236"/>
      <point x="394" y="234"/>
      <point x="421" y="211" type="curve" name="hr04"/>
      <point x="424" y="199"/>
      <point x="426" y="188"/>
      <point x="426" y="177" type="curve" smooth="yes"/>
      <point x="426" y="80"/>
      <point x="315" y="50"/>
      <point x="228" y="50" type="curve" smooth="yes"/>
      <point x="211" y="50"/>
      <point x="194" y="51"/>
      <point x="177" y="54" type="curve"/>
      <point x="161" y="91"/>
      <point x="125" y="149"/>
      <point x="87" y="149" type="curve" smooth="yes"/>
      <point x="71" y="149"/>
      <point x="62" y="134"/>
    </contour>
    <contour>
      <point x="154" y="319" type="curve" smooth="yes" name="hr06"/>
      <point x="147" y="322"/>
      <point x="133" y="327"/>
      <point x="126" y="334" type="curve" smooth="yes"/>
      <point x="123" y="338" type="line" smooth="yes"/>
      <point x="121" y="340"/>
      <point x="121" y="346"/>
      <point x="121" y="350" type="curve" smooth="yes"/>
      <point x="121" y="407"/>
      <point x="183" y="442"/>
      <point x="234" y="442" type="curve" smooth="yes"/>
      <point x="419" y="442" type="line"/>
      <point x="422" y="443"/>
      <point x="426" y="445"/>
      <point x="428" y="448" type="curve"/>
      <point x="428" y="609" type="line"/>
      <point x="671" y="609" type="line"/>
      <point x="671" y="266" type="line"/>
      <point x="418" y="266" type="line"/>
      <point x="376" y="305"/>
      <point x="322" y="314"/>
      <point x="269" y="314" type="curve" smooth="yes"/>
      <point x="258" y="314"/>
      <point x="235" y="312"/>
      <point x="212" y="312" type="curve" smooth="yes"/>
      <point x="191" y="312"/>
      <point x="169" y="314"/>
    </contour>
    <contour>
      <point x="125" y="66" type="line"/>
      <point x="126" y="68"/>
      <point x="127" y="69"/>
      <point x="129" y="70" type="curve"/>
      <point x="129" y="68"/>
      <point x="130" y="66"/>
      <point x="131" y="64" type="curve"/>
    </contour>
  </outline>
</glyph>
<glyph name="dv_Ttha" format="1">
  <advance width="716"/>
  <unicode hex="0920"/>
  <outline>
    <contour>
      <point x="22" y="609" type="curve" name="hr00"/>
      <point x="332" y="609" type="line"/>
      <point x="335" y="566"/>
      <point x="338" y="523"/>
      <point x="330" y="482" type="curve" smooth="yes"/>
      <point x="328" y="470"/>
      <point x="306" y="482"/>
      <point x="294" y="480" type="curve" smooth="yes"/>
      <point x="274" y="478"/>
      <point x="238" y="470"/>
      <point x="219" y="463" type="curve" smooth="yes"/>
      <point x="163" y="443"/>
      <point x="117" y="400"/>
      <point x="97" y="343" type="curve" smooth="yes"/>
      <point x="57" y="224"/>
      <point x="110" y="80"/>
      <point x="218" y="16" type="curve" smooth="yes"/>
      <point x="265" y="-12"/>
      <point x="325" y="-21"/>
      <point x="379" y="-21" type="curve" smooth="yes"/>
      <point x="431" y="-21"/>
      <point x="492" y="-13"/>
      <point x="538" y="14" type="curve" smooth="yes"/>
      <point x="683" y="100"/>
      <point x="648" y="331"/>
      <point x="527" y="423" type="curve" smooth="yes"/>
      <point x="485" y="454"/>
      <point x="439" y="470"/>
      <point x="390" y="477" type="curve"/>
      <point x="390" y="607" type="line"/>
      <point x="390" y="609" type="line"/>
      <point x="738" y="609" type="line"/>
      <point x="768" y="614"/>
      <point x="718" y="683"/>
      <point x="693" y="687" type="curve"/>
      <point x="-23" y="687" type="line"/>
      <point x="-47" y="671"/>
      <point x="4" y="616"/>
    </contour>
    <contour>
      <point x="540" y="360" type="curve" smooth="yes"/>
      <point x="568" y="337"/>
      <point x="572" y="294"/>
      <point x="572" y="261" type="curve" smooth="yes"/>
      <point x="572" y="115"/>
      <point x="468" y="57"/>
      <point x="334" y="57" type="curve" smooth="yes"/>
      <point x="203" y="57"/>
      <point x="124" y="97"/>
      <point x="147" y="239" type="curve" smooth="yes"/>
      <point x="152" y="271"/>
      <point x="164" y="303"/>
      <point x="186" y="328" type="curve" smooth="yes"/>
      <point x="235" y="387"/>
      <point x="308" y="401"/>
      <point x="381" y="404" type="curve"/>
      <point x="436" y="401"/>
      <point x="495" y="396"/>
    </contour>
  </outline>
</glyph>
<glyph name="dv_Nna" format="1">
  <advance width="880"/>
  <unicode hex="0923"/>
  <outline>
    <contour>
      <point x="246" y="186" type="curve" smooth="yes" name="hr00"/>
      <point x="270" y="172"/>
      <point x="302" y="165"/>
      <point x="335" y="165" type="curve" smooth="yes"/>
      <point x="474" y="165"/>
      <point x="504" y="258"/>
      <point x="504" y="431" type="curve" smooth="yes"/>
      <point x="504" y="529"/>
      <point x="496" y="612"/>
      <point x="498" y="609" type="curve"/>
      <point x="687" y="609" type="line"/>
      <point x="687" y="33" type="line"/>
      <point x="689" y="19"/>
      <point x="718" y="-36"/>
      <point x="737" y="-36" type="curve" smooth="yes"/>
      <point x="741" y="-36"/>
      <point x="744" y="-34"/>
      <point x="747" y="-29" type="curve"/>
      <point x="747" y="603" type="line" smooth="yes"/>
      <point x="747" y="605"/>
      <point x="747" y="607"/>
      <point x="746" y="609" type="curve"/>
      <point x="902" y="609" type="line"/>
      <point x="908" y="610"/>
      <point x="911" y="614"/>
      <point x="911" y="620" type="curve" smooth="yes"/>
      <point x="911" y="641"/>
      <point x="876" y="684"/>
      <point x="857" y="687" type="curve"/>
      <point x="-26" y="687" type="line"/>
      <point x="-31" y="684"/>
      <point x="-32" y="680"/>
      <point x="-32" y="675" type="curve" smooth="yes"/>
      <point x="-32" y="652"/>
      <point x="4" y="615"/>
      <point x="19" y="609" type="curve"/>
      <point x="123" y="609" type="line"/>
      <point x="121" y="573"/>
      <point x="118" y="530"/>
      <point x="118" y="486" type="curve" smooth="yes"/>
      <point x="118" y="354"/>
      <point x="143" y="245"/>
    </contour>
    <contour>
      <point x="197" y="274" type="curve"/>
      <point x="175" y="315"/>
      <point x="184" y="378"/>
      <point x="184" y="425" type="curve" smooth="yes"/>
      <point x="184" y="485"/>
      <point x="184" y="545"/>
      <point x="185" y="604" type="curve"/>
      <point x="185" y="605"/>
      <point x="184" y="607"/>
      <point x="184" y="609" type="curve"/>
      <point x="442" y="609" type="line"/>
      <point x="443" y="578"/>
      <point x="445" y="539"/>
      <point x="445" y="498" type="curve" smooth="yes"/>
      <point x="445" y="442"/>
      <point x="442" y="385"/>
      <point x="434" y="350" type="curve" smooth="yes"/>
      <point x="417" y="276"/>
      <point x="357" y="245"/>
      <point x="289" y="245" type="curve" smooth="yes"/>
      <point x="279" y="245"/>
      <point x="215" y="243"/>
    </contour>
  </outline>
</glyph>
<glyph name="dv_Da" format="1">
  <advance width="602"/>
  <unicode hex="0926"/>
  <outline>
    <contour>
      <point x="99" y="234" type="curve" smooth="yes" name="hr01"/>
      <point x="151" y="127"/>
      <point x="256" y="75"/>
      <point x="370" y="75" type="curve" smooth="yes"/>
      <point x="378" y="75"/>
      <point x="387" y="75"/>
      <point x="395" y="76" type="curve" smooth="yes"/>
      <point x="429" y="79" type="line" name="hr02"/>
      <point x="441" y="48" type="line" smooth="yes"/>
      <point x="450" y="24"/>
      <point x="458" y="-1"/>
      <point x="469" y="-23" type="curve" smooth="yes"/>
      <point x="474" y="-35"/>
      <point x="506" y="-70"/>
      <point x="517" y="-70" type="curve" smooth="yes"/>
      <point x="520" y="-70"/>
      <point x="522" y="-68"/>
      <point x="522" y="-62" type="curve" smooth="yes"/>
      <point x="522" y="-42"/>
      <point x="484" y="25"/>
      <point x="467" y="87" type="curve"/>
      <point x="495" y="96"/>
      <point x="527" y="114"/>
      <point x="527" y="146" type="curve" smooth="yes"/>
      <point x="527" y="189"/>
      <point x="476" y="244"/>
      <point x="432" y="244" type="curve" smooth="yes"/>
      <point x="405" y="244"/>
      <point x="397" y="226"/>
      <point x="397" y="201" type="curve" smooth="yes"/>
      <point x="397" y="189"/>
      <point x="399" y="175"/>
      <point x="402" y="161" type="curve"/>
      <point x="381" y="157"/>
      <point x="365" y="154"/>
      <point x="334" y="154" type="curve" smooth="yes"/>
      <point x="239" y="154"/>
      <point x="138" y="176"/>
      <point x="138" y="263" type="curve" smooth="yes"/>
      <point x="138" y="451"/>
      <point x="330" y="464"/>
      <point x="460" y="464" type="curve"/>
      <point x="463" y="465"/>
      <point x="467" y="467"/>
      <point x="469" y="470" type="curve"/>
      <point x="469" y="609" type="line" name="hr03"/>
      <point x="623" y="609" type="line"/>
      <point x="629" y="610"/>
      <point x="632" y="614"/>
      <point x="632" y="620" type="curve" smooth="yes"/>
      <point x="632" y="641"/>
      <point x="597" y="684"/>
      <point x="578" y="687" type="curve"/>
      <point x="-23" y="687" type="line"/>
      <point x="-28" y="684"/>
      <point x="-29" y="680"/>
      <point x="-29" y="675" type="curve" smooth="yes"/>
      <point x="-29" y="652"/>
      <point x="7" y="615"/>
      <point x="22" y="609" type="curve"/>
      <point x="409" y="609" type="line"/>
      <point x="409" y="542" type="line"/>
      <point x="254" y="542"/>
      <point x="79" y="513"/>
      <point x="79" y="321" type="curve" smooth="yes"/>
      <point x="79" y="291"/>
      <point x="86" y="261"/>
    </contour>
  </outline>
</glyph>
<glyph name="dv_Bha" format="1">
  <advance width="669"/>
  <unicode hex="092D"/>
  <outline>
    <contour>
      <point x="129" y="202" type="curve" smooth="yes" name="hr01"/>
      <point x="150" y="177"/>
      <point x="168" y="165"/>
      <point x="183" y="165" type="curve" smooth="yes"/>
      <point x="203" y="165"/>
      <point x="216" y="189"/>
      <point x="216" y="237" type="curve" smooth="yes"/>
      <point x="216" y="248" type="line"/>
      <point x="477" y="248" type="line"/>
      <point x="477" y="33" type="line"/>
      <point x="479" y="19"/>
      <point x="508" y="-36"/>
      <point x="527" y="-36" type="curve" smooth="yes"/>
      <point x="531" y="-36"/>
      <point x="534" y="-34"/>
      <point x="537" y="-29" type="curve"/>
      <point x="537" y="609" type="line"/>
      <point x="690" y="609" type="line"/>
      <point x="696" y="610"/>
      <point x="699" y="614"/>
      <point x="699" y="620" type="curve" smooth="yes"/>
      <point x="699" y="641"/>
      <point x="664" y="684"/>
      <point x="645" y="687" type="curve"/>
      <point x="309" y="687" type="line"/>
      <point x="304" y="684"/>
      <point x="303" y="680"/>
      <point x="303" y="675" type="curve" smooth="yes"/>
      <point x="303" y="652"/>
      <point x="339" y="615"/>
      <point x="354" y="609" type="curve"/>
      <point x="477" y="609" type="line"/>
      <point x="477" y="326" type="line"/>
      <point x="216" y="326" type="line"/>
      <point x="216" y="540" type="line" smooth="yes"/>
      <point x="216" y="624"/>
      <point x="144" y="701"/>
      <point x="69" y="701" type="curve" smooth="yes" name="hr02"/>
      <point x="3" y="701"/>
      <point x="-26" y="657"/>
      <point x="-26" y="614" type="curve" smooth="yes"/>
      <point x="-26" y="536"/>
      <point x="46" y="458"/>
      <point x="110" y="458" type="curve" smooth="yes"/>
      <point x="127" y="458"/>
      <point x="144" y="462"/>
      <point x="159" y="469" type="curve"/>
      <point x="158" y="421"/>
      <point x="156" y="374"/>
      <point x="156" y="326" type="curve"/>
      <point x="138" y="326" type="line" smooth="yes"/>
      <point x="132" y="326"/>
      <point x="125" y="326"/>
      <point x="118" y="326" type="curve" smooth="yes"/>
      <point x="97" y="326"/>
      <point x="80" y="321"/>
      <point x="80" y="301" type="curve" smooth="yes"/>
      <point x="80" y="273"/>
      <point x="109" y="228"/>
      <point x="118" y="217" type="curve" smooth="yes"/>
      <point x="121" y="212"/>
      <point x="124" y="207"/>
    </contour>
    <contour>
      <point x="34" y="542" type="curve" name="hr04"/>
      <point x="33" y="546"/>
      <point x="32" y="551"/>
      <point x="32" y="555" type="curve" smooth="yes"/>
      <point x="32" y="595"/>
      <point x="76" y="625"/>
      <point x="117" y="625" type="curve" smooth="yes"/>
      <point x="131" y="625"/>
      <point x="144" y="621"/>
      <point x="155" y="614" type="curve"/>
      <point x="155" y="610" type="line"/>
      <point x="153" y="608"/>
      <point x="152" y="606"/>
      <point x="152" y="603" type="curve" smooth="yes"/>
      <point x="149" y="561"/>
      <point x="106" y="537"/>
      <point x="65" y="537" type="curve" smooth="yes"/>
      <point x="54" y="537"/>
      <point x="44" y="538"/>
    </contour>
    <contour>
      <point x="139" y="242" type="curve"/>
      <point x="139" y="243" type="line"/>
      <point x="141" y="245"/>
      <point x="144" y="246"/>
      <point x="148" y="247" type="curve"/>
      <point x="145" y="244"/>
      <point x="142" y="242"/>
    </contour>
  </outline>
</glyph>
<glyph name="dv_La" format="1">
  <advance width="868"/>
  <unicode hex="0932"/>
  <outline>
    <contour>
      <point x="213" y="0" type="curve" name="hr01"/>
      <point x="230" y="-29"/>
      <point x="249" y="-46"/>
      <point x="257" y="-46" type="curve" smooth="yes"/>
      <point x="261" y="-46"/>
      <point x="264" y="-42"/>
      <point x="264" y="-36" type="curve" smooth="yes"/>
      <point x="264" y="-30"/>
      <point x="261" y="-20"/>
      <point x="255" y="-7" type="curve" smooth="yes"/>
      <point x="216" y="67"/>
      <point x="149" y="177"/>
      <point x="149" y="274" type="curve" smooth="yes"/>
      <point x="149" y="367"/>
      <point x="214" y="408"/>
      <point x="289" y="408" type="curve" smooth="yes"/>
      <point x="302" y="408"/>
      <point x="360" y="406"/>
      <point x="377" y="378" type="curve" smooth="yes"/>
      <point x="385" y="364"/>
      <point x="390" y="339"/>
      <point x="392" y="313" type="curve"/>
      <point x="391" y="308"/>
      <point x="391" y="303"/>
      <point x="391" y="298" type="curve" smooth="yes"/>
      <point x="391" y="294"/>
      <point x="393" y="284"/>
      <point x="393" y="276" type="curve" smooth="yes"/>
      <point x="393" y="238"/>
      <point x="390" y="202"/>
      <point x="390" y="191" type="curve"/>
      <point x="392" y="177"/>
      <point x="421" y="122"/>
      <point x="440" y="122" type="curve" smooth="yes"/>
      <point x="456" y="122"/>
      <point x="450" y="181"/>
      <point x="450" y="201" type="curve" smooth="yes"/>
      <point x="450" y="213"/>
      <point x="450" y="224"/>
      <point x="450" y="235" type="curve"/>
      <point x="451" y="236" type="line"/>
      <point x="455" y="320"/>
      <point x="488" y="410"/>
      <point x="595" y="410" type="curve" smooth="yes" name="hr02"/>
      <point x="629" y="410"/>
      <point x="654" y="402"/>
      <point x="676" y="366" type="curve"/>
      <point x="676" y="29" type="line"/>
      <point x="678" y="15"/>
      <point x="707" y="-40"/>
      <point x="726" y="-40" type="curve" smooth="yes"/>
      <point x="730" y="-40"/>
      <point x="733" y="-38"/>
      <point x="736" y="-33" type="curve"/>
      <point x="736" y="603" type="line" smooth="yes"/>
      <point x="736" y="605"/>
      <point x="736" y="607"/>
      <point x="735" y="609" type="curve"/>
      <point x="890" y="609" type="line"/>
      <point x="896" y="610"/>
      <point x="899" y="614"/>
      <point x="899" y="620" type="curve" smooth="yes"/>
      <point x="899" y="641"/>
      <point x="864" y="684"/>
      <point x="845" y="687" type="curve"/>
      <point x="-26" y="687" type="line"/>
      <point x="-31" y="684"/>
      <point x="-32" y="680"/>
      <point x="-32" y="675" type="curve" smooth="yes"/>
      <point x="-32" y="652"/>
      <point x="4" y="615"/>
      <point x="19" y="609" type="curve"/>
      <point x="676" y="609" type="line"/>
      <point x="676" y="422" type="line"/>
      <point x="641" y="465"/>
      <point x="597" y="487"/>
      <point x="549" y="487" type="curve" smooth="yes"/>
      <point x="489" y="487"/>
      <point x="431" y="453"/>
      <point x="407" y="392" type="curve"/>
      <point x="368" y="450"/>
      <point x="308" y="485"/>
      <point x="239" y="485" type="curve" smooth="yes" name="hr03"/>
      <point x="164" y="485"/>
      <point x="88" y="440"/>
      <point x="88" y="337" type="curve" smooth="yes"/>
      <point x="88" y="226"/>
      <point x="171" y="78"/>
    </contour>
  </outline>
</glyph>
<glyph name="dv_Va" format="1">
  <advance width="615"/>
  <unicode hex="0935"/>
  <outline>
    <contour>
      <point x="176" y="128" type="curve" smooth="yes" name="hr00"/>
      <point x="211" y="98"/>
      <point x="262" y="86"/>
      <point x="304" y="86" type="curve" smooth="yes"/>
      <point x="351" y="86"/>
      <point x="393" y="101"/>
      <point x="427" y="128" type="curve"/>
      <point x="427" y="33" type="line"/>
      <point x="429" y="19"/>
      <point x="458" y="-36"/>
      <point x="477" y="-36" type="curve" smooth="yes"/>
      <point x="481" y="-36"/>
      <point x="484" y="-34"/>
      <point x="487" y="-29" type="curve"/>
      <point x="487" y="208" type="line"/>
      <point x="487" y="603" type="line" smooth="yes"/>
      <point x="487" y="605"/>
      <point x="487" y="607"/>
      <point x="486" y="609" type="curve"/>
      <point x="636" y="609" type="line"/>
      <point x="642" y="610"/>
      <point x="645" y="614"/>
      <point x="645" y="620" type="curve" smooth="yes"/>
      <point x="645" y="641"/>
      <point x="610" y="684"/>
      <point x="591" y="687" type="curve"/>
      <point x="-26" y="687" type="line"/>
      <point x="-31" y="684"/>
      <point x="-32" y="680"/>
      <point x="-32" y="675" type="curve" smooth="yes"/>
      <point x="-32" y="652"/>
      <point x="4" y="615"/>
      <point x="19" y="609" type="curve"/>
      <point x="427" y="609" type="line"/>
      <point x="427" y="434" type="line"/>
      <point x="372" y="489"/>
      <point x="309" y="512"/>
      <point x="253" y="512" type="curve" smooth="yes"/>
      <point x="156" y="512"/>
      <point x="81" y="428"/>
      <point x="81" y="333" type="curve" smooth="yes"/>
      <point x="81" y="253"/>
      <point x="113" y="182"/>
    </contour>
    <contour>
      <point x="232" y="166" type="curve" smooth="yes"/>
      <point x="164" y="174"/>
      <point x="139" y="207"/>
      <point x="139" y="261" type="curve" smooth="yes"/>
      <point x="139" y="366"/>
      <point x="212" y="433"/>
      <point x="308" y="433" type="curve" smooth="yes"/>
      <point x="348" y="433"/>
      <point x="386" y="420"/>
      <point x="417" y="393" type="curve"/>
      <point x="427" y="381" type="line"/>
      <point x="427" y="268" type="line"/>
      <point x="392" y="209"/>
      <point x="343" y="164"/>
      <point x="264" y="164" type="curve" smooth="yes"/>
      <point x="253" y="164"/>
      <point x="243" y="165"/>
    </contour>
  </outline>
</glyph>
<glyph name="dv_MatraOe" format="1">
  <advance width="0"/>
  <unicode hex="093A"/>
  <outline>
    <contour>
      <point x="1" y="628" type="curve" smooth="yes" name="hr00"/>
      <point x="5" y="628"/>
      <point x="8" y="630"/>
      <point x="11" y="635" type="curve"/>
      <point x="11" y="700"/>
      <point x="8" y="766"/>
      <point x="14" y="831" type="curve"/>
      <point x="13" y="859"/>
      <point x="-19" y="902"/>
      <point x="-37" y="902" type="curve" smooth="yes"/>
      <point x="-56" y="902"/>
      <point x="-49" y="687"/>
      <point x="-49" y="697" type="curve"/>
      <point x="-47" y="683"/>
      <point x="-18" y="628"/>
    </contour>
  </outline>
</glyph>
<glyph name="dv_Nukta" format="1">
  <advance width="0"/>
  <unicode hex="093C"/>
  <outline>
    <contour>
      <point x="79" y="-51" type="curve" name="hr00"/>
      <point x="48" y="-51"/>
      <point x="19" y="-79"/>
      <point x="19" y="-110" type="curve" smooth="yes"/>
      <point x="19" y="-113" type="line" smooth="yes"/>
      <point x="19" y="-136"/>
      <point x="58" y="-179"/>
      <point x="71" y="-179" type="curve" smooth="yes"/>
      <point x="98" y="-179"/>
      <point x="133" y="-153"/>
      <point x="133" y="-123" type="curve" smooth="yes"/>
      <point x="133" y="-100"/>
      <point x="108" y="-56"/>
    </contour>
  </outline>
</glyph>
<glyph name="dv_MatraAa" format="1">
  <advance width="320"/>
  <unicode hex="093E"/>
  <outline>
    <contour>
      <point x="126" y="33" type="line" name="hr00"/>
      <point x="128" y="19"/>
      <point x="157" y="-36"/>
      <point x="176" y="-36" type="curve" smooth="yes"/>
      <point x="180" y="-36"/>
      <point x="183" y="-34"/>
      <point x="186" y="-29" type="curve"/>
      <point x="186" y="609" type="line"/>
      <point x="339" y="609" type="line"/>
      <point x="345" y="610"/>
      <point x="348" y="614"/>
      <point x="348" y="620" type="curve" smooth="yes"/>
      <point x="348" y="641"/>
      <point x="313" y="684"/>
      <point x="294" y="687" type="curve"/>
      <point x="-24" y="687" type="line"/>
      <point x="-29" y="684"/>
      <point x="-30" y="680"/>
      <point x="-30" y="675" type="curve" smooth="yes"/>
      <point x="-30" y="652"/>
      <point x="6" y="615"/>
      <point x="21" y="609" type="curve"/>
      <point x="126" y="609" type="line"/>
    </contour>
  </outline>
</glyph>
<glyph name="dv_MatraI" format="1">
  <advance width="320"/>
  <unicode hex="093F"/>
  <outline>
    <contour>
      <point x="127" y="33" type="line" name="hr01"/>
      <point x="129" y="19"/>
      <point x="158" y="-36"/>
      <point x="177" y="-36" type="curve" smooth="yes"/>
      <point x="181" y="-36"/>
      <point x="184" y="-34"/>
      <point x="187" y="-29" type="curve"/>
      <point x="187" y="603" type="line" smooth="yes"/>
      <point x="187" y="605"/>
      <point x="187" y="607"/>
      <point x="186" y="609" type="curve"/>
      <point x="343" y="609" type="line"/>
      <point x="349" y="610"/>
      <point x="352" y="614"/>
      <point x="352" y="620" type="curve" smooth="yes"/>
      <point x="352" y="641"/>
      <point x="317" y="684"/>
      <point x="298" y="687" type="curve"/>
      <point x="159" y="687" type="line" name="hr02"/>
      <point x="152" y="705"/>
      <point x="149" y="721"/>
      <point x="149" y="737" type="curve" smooth="yes"/>
      <point x="149" y="820"/>
      <point x="230" y="871"/>
      <point x="339" y="871" type="curve" smooth="yes"/>
      <point x="483" y="871"/>
      <point x="623" y="794"/>
      <point x="745" y="726" type="curve" smooth="yes"/>
      <point x="748" y="724"/>
      <point x="751" y="724"/>
      <point x="754" y="724" type="curve" smooth="yes"/>
      <point x="759" y="724"/>
      <point x="761" y="728"/>
      <point x="761" y="733" type="curve" smooth="yes"/>
      <point x="761" y="756"/>
      <point x="736" y="788"/>
      <point x="715" y="800" type="curve" smooth="yes"/>
      <point x="587" y="873"/>
      <point x="442" y="949"/>
      <point x="291" y="949" type="curve" smooth="yes"/>
      <point x="146" y="949"/>
      <point x="90" y="870"/>
      <point x="90" y="798" type="curve" smooth="yes"/>
      <point x="90" y="762"/>
      <point x="102" y="724"/>
      <point x="119" y="687" type="curve"/>
      <point x="-26" y="687" type="line"/>
      <point x="-31" y="684"/>
      <point x="-32" y="680"/>
      <point x="-32" y="675" type="curve" smooth="yes"/>
      <point x="-32" y="652"/>
      <point x="4" y="615"/>
      <point x="19" y="609" type="curve"/>
      <point x="127" y="609" type="line" name="hr03"/>
    </contour>
  </outline>
</glyph>
<glyph name="dv_MatraIi" format="1">
  <advance width="320"/>
  <unicode hex="0940"/>
  <outline>
    <contour>
      <point x="127" y="33" type="line" name="hr00"/>
      <point x="129" y="19"/>
      <point x="158" y="-36"/>
      <point x="177" y="-36" type="curve" smooth="yes"/>
      <point x="181" y="-36"/>
      <point x="184" y="-34"/>
      <point x="187" y="-29" type="curve"/>
      <point x="187" y="603" type="line" smooth="yes"/>
      <point x="187" y="605"/>
      <point x="187" y="607"/>
      <point x="186" y="609" type="curve"/>
      <point x="343" y="609" type="line"/>
      <point x="349" y="610"/>
      <point x="352" y="614"/>
      <point x="352" y="620" type="curve" smooth="yes"/>
      <point x="352" y="641"/>
      <point x="317" y="684"/>
      <point x="298" y="687" type="curve"/>
      <point x="167" y="687" type="line"/>
      <point x="124" y="814"/>
      <point x="35" y="948"/>
      <point x="-101" y="948" type="curve" smooth="yes"/>
      <point x="-160" y="948"/>
      <point x="-212" y="910"/>
      <point x="-212" y="846" type="curve" smooth="yes"/>
      <point x="-212" y="825"/>
      <point x="-208" y="805"/>
      <point x="-203" y="785" type="curve"/>
      <point x="-199" y="776"/>
      <point x="-167" y="725"/>
      <point x="-153" y="725" type="curve" smooth="yes"/>
      <point x="-148" y="725"/>
      <point x="-146" y="730"/>
      <point x="-146" y="742" type="curve"/>
      <point x="-149" y="757"/>
      <point x="-152" y="772"/>
      <point x="-152" y="786" type="curve" smooth="yes"/>
      <point x="-152" y="847"/>
      <point x="-103" y="870"/>
      <point x="-53" y="870" type="curve" smooth="yes"/>
      <point x="61" y="870"/>
      <point x="102" y="770"/>
      <point x="124" y="687" type="curve"/>
      <point x="-26" y="687" type="line"/>
      <point x="-31" y="684"/>
      <point x="-32" y="680"/>
      <point x="-32" y="675" type="curve" smooth="yes"/>
      <point x="-32" y="652"/>
      <point x="4" y="615"/>
      <point x="19" y="609" type="curve"/>
      <point x="127" y="609" type="line"/>
    </contour>
  </outline>
</glyph>
<glyph name="dv_MatraAw" format="1">
  <advance width="320"/>
  <unicode hex="094F"/>
  <outline>
    <contour>
      <point x="178" y="630" type="curve" smooth="yes" name="hr00"/>
      <point x="182" y="630"/>
      <point x="185" y="632"/>
      <point x="188" y="637" type="curve"/>
      <point x="185" y="728"/>
      <point x="185" y="832"/>
      <point x="105" y="894" type="curve"/>
      <point x="58" y="927"/>
      <point x="-22" y="923"/>
      <point x="-86" y="956" type="curve"/>
      <point x="-95" y="973"/>
      <point x="-113" y="996"/>
      <point x="-127" y="996" type="curve" smooth="yes"/>
      <point x="-132" y="996"/>
      <point x="-135" y="992"/>
      <point x="-135" y="985" type="curve" smooth="yes"/>
      <point x="-135" y="982"/>
      <point x="-135" y="980"/>
      <point x="-134" y="977" type="curve" smooth="yes"/>
      <point x="-101" y="869"/>
      <point x="14" y="860"/>
      <point x="106" y="835" type="curve"/>
      <point x="116" y="830" type="line"/>
      <point x="122" y="809"/>
      <point x="124" y="779"/>
      <point x="126" y="769" type="curve"/>
      <point x="84" y="802"/>
      <point x="25" y="815"/>
      <point x="-42" y="817" type="curve" smooth="yes"/>
      <point x="-76" y="818"/>
      <point x="-153" y="812"/>
      <point x="-162" y="856" type="curve"/>
      <point x="-169" y="879"/>
      <point x="-191" y="918"/>
      <point x="-212" y="918" type="curve" smooth="yes"/>
      <point x="-217" y="918"/>
      <point x="-220" y="914"/>
      <point x="-220" y="907" type="curve" smooth="yes"/>
      <point x="-220" y="904"/>
      <point x="-220" y="902"/>
      <point x="-219" y="899" type="curve" smooth="yes"/>
      <point x="-203" y="824"/>
      <point x="-152" y="763"/>
      <point x="-76" y="744" type="curve" smooth="yes"/>
      <point x="-14" y="728"/>
      <point x="52" y="748"/>
      <point x="112" y="723" type="curve" smooth="yes"/>
      <point x="116" y="721"/>
      <point x="120" y="720"/>
      <point x="124" y="717" type="curve"/>
      <point x="128" y="699" type="line" smooth="yes"/>
      <point x="133" y="677"/>
      <point x="143" y="657"/>
      <point x="160" y="641" type="curve"/>
      <point x="161" y="641"/>
      <point x="163" y="638"/>
      <point x="163" y="638" type="curve"/>
      <point x="168" y="633"/>
      <point x="174" y="630"/>
    </contour>
    <contour>
      <point x="108" y="844" type="line"/>
      <point x="107" y="846"/>
      <point x="106" y="847"/>
      <point x="106" y="847" type="curve"/>
      <point x="106" y="847"/>
      <point x="107" y="846"/>
      <point x="108" y="845" type="curve"/>
    </contour>
    <component base="dv_MatraAa"/>
  </outline>
</glyph>
<glyph name="dv_Om" format="1">
  <advance width="863"/>
  <unicode hex="0950"/>
  <outline>
    <contour>
      <point x="88" y="79" type="curve" smooth="yes" name="hr01"/>
      <point x="122" y="10"/>
      <point x="211" y="-25"/>
      <point x="284" y="-25" type="curve" smooth="yes"/>
      <point x="376" y="-25"/>
      <point x="491" y="35"/>
      <point x="491" y="147" type="curve" smooth="yes" name="hr02"/>
      <point x="491" y="171"/>
      <point x="486" y="196"/>
      <point x="477" y="220" type="curve"/>
      <point x="513" y="274"/>
      <point x="583" y="304"/>
      <point x="649" y="304" type="curve" smooth="yes"/>
      <point x="723" y="304"/>
      <point x="770" y="273"/>
      <point x="770" y="217" type="curve" smooth="yes"/>
      <point x="770" y="128"/>
      <point x="693" y="59"/>
      <point x="600" y="52" type="curve"/>
      <point x="595" y="49"/>
      <point x="594" y="45"/>
      <point x="594" y="40" type="curve" smooth="yes"/>
      <point x="594" y="17"/>
      <point x="630" y="-20"/>
      <point x="645" y="-26" type="curve"/>
      <point x="774" y="-17"/>
      <point x="828" y="69"/>
      <point x="828" y="149" type="curve" smooth="yes"/>
      <point x="828" y="233"/>
      <point x="764" y="343"/>
      <point x="678" y="371" type="curve" smooth="yes"/>
      <point x="654" y="379"/>
      <point x="619" y="382"/>
      <point x="598" y="382" type="curve" smooth="yes"/>
      <point x="534" y="382"/>
      <point x="468" y="353"/>
      <point x="428" y="303" type="curve" name="hr03"/>
      <point x="413" y="320"/>
      <point x="396" y="334"/>
      <point x="379" y="345" type="curve"/>
      <point x="444" y="384"/>
      <point x="473" y="435"/>
      <point x="473" y="490" type="curve" smooth="yes"/>
      <point x="473" y="598"/>
      <point x="378" y="696"/>
      <point x="252" y="696" type="curve" smooth="yes"/>
      <point x="242" y="696"/>
      <point x="117" y="694"/>
      <point x="86" y="633" type="curve"/>
      <point x="86" y="632"/>
      <point x="86" y="631"/>
      <point x="86" y="629" type="curve" smooth="yes"/>
      <point x="86" y="606"/>
      <point x="118" y="558"/>
      <point x="136" y="558" type="curve" smooth="yes"/>
      <point x="148" y="558"/>
      <point x="175" y="590"/>
      <point x="192" y="598" type="curve" smooth="yes"/>
      <point x="219" y="610"/>
      <point x="261" y="619"/>
      <point x="302" y="619" type="curve" smooth="yes"/>
      <point x="360" y="619"/>
      <point x="414" y="604"/>
      <point x="414" y="545" type="curve" smooth="yes"/>
      <point x="414" y="463"/>
      <point x="316" y="402"/>
      <point x="240" y="389" type="curve" smooth="yes" name="hr04"/>
      <point x="222" y="386" type="line" smooth="yes"/>
      <point x="219" y="386"/>
      <point x="216" y="387"/>
      <point x="214" y="387" type="curve"/>
      <point x="213" y="386" type="line"/>
      <point x="203" y="385"/>
      <point x="192" y="385"/>
      <point x="182" y="385" type="curve" smooth="yes"/>
      <point x="170" y="385"/>
      <point x="158" y="385"/>
      <point x="146" y="385" type="curve" smooth="yes"/>
      <point x="135" y="385"/>
      <point x="123" y="387"/>
      <point x="123" y="373" type="curve" smooth="yes"/>
      <point x="123" y="350"/>
      <point x="159" y="313"/>
      <point x="174" y="307" type="curve"/>
      <point x="202" y="308"/>
      <point x="230" y="307"/>
      <point x="257" y="309" type="curve" smooth="yes"/>
      <point x="259" y="309" type="line" smooth="yes"/>
      <point x="314" y="305"/>
      <point x="372" y="303"/>
      <point x="415" y="265" type="curve" smooth="yes" name="hr05"/>
      <point x="429" y="253"/>
      <point x="430" y="227"/>
      <point x="430" y="211" type="curve" smooth="yes"/>
      <point x="430" y="115"/>
      <point x="336" y="53"/>
      <point x="245" y="53" type="curve" smooth="yes"/>
      <point x="207" y="53"/>
      <point x="169" y="63"/>
      <point x="134" y="81" type="curve" smooth="yes"/>
      <point x="122" y="87"/>
      <point x="114" y="97"/>
      <point x="103" y="104" type="curve"/>
      <point x="102" y="104"/>
      <point x="102" y="104"/>
      <point x="102" y="104" type="curve"/>
      <point x="102" y="103"/>
      <point x="102" y="103"/>
      <point x="103" y="103" type="curve" smooth="yes"/>
      <point x="97" y="107"/>
      <point x="91" y="110"/>
      <point x="87" y="110" type="curve" smooth="yes"/>
      <point x="83" y="110"/>
      <point x="81" y="107"/>
      <point x="81" y="102" type="curve" smooth="yes"/>
      <point x="81" y="97"/>
      <point x="83" y="89"/>
    </contour>
    <contour>
      <point x="107" y="100" type="curve"/>
      <point x="112" y="96" type="line"/>
      <point x="112" y="96"/>
      <point x="112" y="95"/>
      <point x="112" y="95" type="curve"/>
      <point x="112" y="95"/>
      <point x="109" y="97"/>
    </contour>
    <component base="dv_Candrabindu" xOffset="374" yOffset="-70"/>
  </outline>
</glyph>
<glyph name="dv_Acuteaccent" format="1">
  <advance width="0"/>
  <unicode hex="0954"/>
  <outline>
    <contour>
      <point x="66" y="719" type="curve" smooth="yes" name="hr00"/>
      <point x="70" y="719"/>
      <point x="73" y="721"/>
      <point x="75" y="725" type="curve" smooth="yes"/>
      <point x="100" y="788"/>
      <point x="127" y="849"/>
      <point x="153" y="912" type="curve"/>
      <point x="152" y="929"/>
      <point x="125" y="984"/>
      <point x="102" y="984" type="curve" smooth="yes"/>
      <point x="99" y="984"/>
      <point x="97" y="983"/>
      <point x="94" y="981" type="curve"/>
      <point x="69" y="918"/>
      <point x="42" y="857"/>
      <point x="16" y="794" type="curve"/>
      <point x="16" y="793"/>
      <point x="16" y="792"/>
      <point x="16" y="791" type="curve" smooth="yes"/>
      <point x="16" y="768"/>
      <point x="47" y="719"/>
    </contour>
  </outline>
</glyph>
<glyph name="dv_MatraUe" format="1">
  <advance width="0"/>
  <unicode hex="0956"/>
  <outline>
    <contour>
      <point x="22" y="-62" type="curve" smooth="yes" name="hr00"/>
      <point x="19" y="-62"/>
      <point x="18" y="-64"/>
      <point x="18" y="-68" type="curve" smooth="yes"/>
      <point x="18" y="-80"/>
      <point x="32" y="-111"/>
      <point x="41" y="-121" type="curve" smooth="yes"/>
      <point x="94" y="-184"/>
      <point x="179" y="-219"/>
      <point x="259" y="-219" type="curve" smooth="yes"/>
      <point x="325" y="-219"/>
      <point x="391" y="-195"/>
      <point x="438" y="-141" type="curve" smooth="yes"/>
      <point x="439" y="-139"/>
      <point x="440" y="-136"/>
      <point x="440" y="-132" type="curve" smooth="yes"/>
      <point x="440" y="-108"/>
      <point x="409" y="-65"/>
      <point x="389" y="-65" type="curve" smooth="yes"/>
      <point x="386" y="-65"/>
      <point x="384" y="-66"/>
      <point x="382" y="-67" type="curve"/>
      <point x="340" y="-115"/>
      <point x="270" y="-142"/>
      <point x="202" y="-142" type="curve" smooth="yes"/>
      <point x="143" y="-142"/>
      <point x="86" y="-122"/>
      <point x="48" y="-79" type="curve"/>
      <point x="34" y="-67"/>
      <point x="26" y="-62"/>
    </contour>
  </outline>
</glyph>
<glyph name="dv_MatraVocalicL" format="1">
  <advance width="0"/>
  <unicode hex="0962"/>
  <outline>
    <contour>
      <point x="27" y="-73" type="curve" smooth="yes" name="hr00"/>
      <point x="21" y="-89"/>
      <point x="19" y="-106"/>
      <point x="19" y="-124" type="curve" smooth="yes"/>
      <point x="19" y="-235"/>
      <point x="120" y="-403"/>
      <point x="152" y="-403" type="curve" smooth="yes"/>
      <point x="156" y="-403"/>
      <point x="159" y="-400"/>
      <point x="159" y="-394" type="curve" smooth="yes"/>
      <point x="159" y="-368"/>
      <point x="79" y="-269"/>
      <point x="79" y="-186" type="curve" smooth="yes"/>
      <point x="79" y="-121"/>
      <point x="119" y="-88"/>
      <point x="172" y="-88" type="curve" smooth="yes"/>
      <point x="205" y="-88"/>
      <point x="228" y="-90"/>
      <point x="235" y="-148" type="curve" smooth="yes"/>
      <point x="235" y="-151" type="line" smooth="yes"/>
      <point x="235" y="-158"/>
      <point x="234" y="-164"/>
      <point x="234" y="-171" type="curve" smooth="yes"/>
      <point x="234" y="-185"/>
      <point x="235" y="-198"/>
      <point x="235" y="-212" type="curve"/>
      <point x="237" y="-226"/>
      <point x="266" y="-281"/>
      <point x="285" y="-281" type="curve" smooth="yes"/>
      <point x="289" y="-281"/>
      <point x="292" y="-279"/>
      <point x="295" y="-274" type="curve"/>
      <point x="295" y="-258"/>
      <point x="294" y="-242"/>
      <point x="294" y="-226" type="curve" smooth="yes"/>
      <point x="294" y="-154"/>
      <point x="339" y="-87"/>
      <point x="410" y="-87" type="curve" smooth="yes"/>
      <point x="423" y="-87"/>
      <point x="453" y="-89"/>
      <point x="453" y="-106" type="curve" smooth="yes"/>
      <point x="453" y="-171"/>
      <point x="405" y="-209"/>
      <point x="405" y="-263" type="curve" smooth="yes"/>
      <point x="405" y="-299"/>
      <point x="444" y="-389"/>
      <point x="528" y="-396" type="curve"/>
      <point x="534" y="-395"/>
      <point x="537" y="-391"/>
      <point x="537" y="-385" type="curve" smooth="yes"/>
      <point x="537" y="-364"/>
      <point x="502" y="-321"/>
      <point x="483" y="-318" type="curve" smooth="yes"/>
      <point x="476" y="-317"/>
      <point x="470" y="-315"/>
      <point x="465" y="-313" type="curve"/>
      <point x="465" y="-298"/>
      <point x="472" y="-281"/>
      <point x="480" y="-268" type="curve" smooth="yes"/>
      <point x="500" y="-237"/>
      <point x="513" y="-203"/>
      <point x="513" y="-168" type="curve" smooth="yes"/>
      <point x="513" y="-85"/>
      <point x="435" y="-8"/>
      <point x="362" y="-8" type="curve" smooth="yes"/>
      <point x="322" y="-8"/>
      <point x="280" y="-31"/>
      <point x="251" y="-83" type="curve"/>
      <point x="222" y="-41"/>
      <point x="178" y="-10"/>
      <point x="126" y="-10" type="curve" smooth="yes"/>
      <point x="84" y="-10"/>
      <point x="43" y="-30"/>
    </contour>
  </outline>
</glyph>
<glyph name="dv_Two" format="1">
  <advance width="509"/>
  <unicode hex="0968"/>
  <outline>
    <contour>
      <point x="140" y="257" type="curve" smooth="yes" name="hr00"/>
      <point x="151" y="252"/>
      <point x="164" y="250"/>
      <point x="179" y="250" type="curve" smooth="yes"/>
      <point x="193" y="250"/>
      <point x="209" y="252"/>
      <point x="225" y="255" type="curve"/>
      <point x="267" y="175"/>
      <point x="311" y="97"/>
      <point x="351" y="17" type="curve"/>
      <point x="368" y="-12"/>
      <point x="387" y="-29"/>
      <point x="395" y="-29" type="curve" smooth="yes"/>
      <point x="399" y="-29"/>
      <point x="402" y="-25"/>
      <point x="402" y="-19" type="curve" smooth="yes"/>
      <point x="402" y="-12"/>
      <point x="399" y="-3"/>
      <point x="393" y="10" type="curve" smooth="yes"/>
      <point x="350" y="95"/>
      <point x="304" y="179"/>
      <point x="258" y="263" type="curve"/>
      <point x="411" y="310"/>
      <point x="445" y="384"/>
      <point x="445" y="466" type="curve" smooth="yes"/>
      <point x="445" y="594"/>
      <point x="328" y="700"/>
      <point x="201" y="700" type="curve" smooth="yes"/>
      <point x="151" y="700"/>
      <point x="99" y="683"/>
      <point x="52" y="644" type="curve"/>
      <point x="52" y="643"/>
      <point x="52" y="641"/>
      <point x="52" y="640" type="curve" smooth="yes"/>
      <point x="52" y="616"/>
      <point x="80" y="570"/>
      <point x="104" y="570" type="curve" smooth="yes"/>
      <point x="106" y="570"/>
      <point x="107" y="570"/>
      <point x="108" y="570" type="curve" smooth="yes"/>
      <point x="148" y="604"/>
      <point x="198" y="621"/>
      <point x="250" y="621" type="curve" smooth="yes"/>
      <point x="301" y="621"/>
      <point x="385" y="612"/>
      <point x="385" y="517" type="curve" smooth="yes"/>
      <point x="385" y="429"/>
      <point x="296" y="358"/>
      <point x="217" y="342" type="curve"/>
      <point x="213" y="348"/>
      <point x="192" y="409"/>
      <point x="163" y="409" type="curve" smooth="yes"/>
      <point x="150" y="409"/>
      <point x="91" y="347"/>
      <point x="91" y="328" type="curve" smooth="yes"/>
      <point x="91" y="309"/>
      <point x="113" y="270"/>
    </contour>
  </outline>
</glyph>
<glyph name="dv_Four" format="1">
  <advance width="706"/>
  <unicode hex="096A"/>
  <outline>
    <contour>
      <point x="198" y="181" type="curve" smooth="yes" name="hr00"/>
      <point x="198" y="86"/>
      <point x="275" y="-26"/>
      <point x="380" y="-26" type="curve" smooth="yes"/>
      <point x="450" y="-26"/>
      <point x="519" y="38"/>
      <point x="519" y="108" type="curve" smooth="yes"/>
      <point x="519" y="204"/>
      <point x="437" y="305"/>
      <point x="388" y="370" type="curve"/>
      <point x="464" y="463"/>
      <point x="559" y="552"/>
      <point x="655" y="633" type="curve"/>
      <point x="656" y="635"/>
      <point x="657" y="638"/>
      <point x="657" y="642" type="curve" smooth="yes"/>
      <point x="657" y="666"/>
      <point x="626" y="709"/>
      <point x="606" y="709" type="curve" smooth="yes"/>
      <point x="603" y="709"/>
      <point x="601" y="708"/>
      <point x="599" y="707" type="curve" smooth="yes"/>
      <point x="504" y="626"/>
      <point x="409" y="538"/>
      <point x="330" y="440" type="curve"/>
      <point x="248" y="531"/>
      <point x="164" y="620"/>
      <point x="73" y="702" type="curve"/>
      <point x="65" y="707"/>
      <point x="59" y="708"/>
      <point x="56" y="708" type="curve" smooth="yes"/>
      <point x="52" y="708"/>
      <point x="51" y="706"/>
      <point x="51" y="703" type="curve" smooth="yes"/>
      <point x="51" y="687"/>
      <point x="78" y="647"/>
      <point x="84" y="640" type="curve"/>
      <point x="159" y="574"/>
      <point x="230" y="502"/>
      <point x="297" y="428" type="curve" smooth="yes"/>
      <point x="309" y="414" type="line"/>
      <point x="265" y="360"/>
      <point x="206" y="277"/>
      <point x="199" y="198" type="curve" smooth="yes"/>
      <point x="198" y="192"/>
      <point x="198" y="187"/>
    </contour>
    <contour>
      <point x="258" y="92" type="curve"/>
      <point x="257" y="98"/>
      <point x="256" y="105"/>
      <point x="256" y="112" type="curve" smooth="yes"/>
      <point x="256" y="184"/>
      <point x="307" y="261"/>
      <point x="349" y="319" type="curve" smooth="yes"/>
      <point x="368" y="345" type="line"/>
      <point x="413" y="291"/>
      <point x="459" y="223"/>
      <point x="459" y="170" type="curve" smooth="yes"/>
      <point x="459" y="110"/>
      <point x="398" y="52"/>
      <point x="336" y="52" type="curve" smooth="yes"/>
      <point x="307" y="52"/>
      <point x="258" y="69"/>
    </contour>
    <contour>
      <point x="266" y="72" type="line"/>
      <point x="266" y="72"/>
      <point x="266" y="71"/>
      <point x="267" y="71" type="curve" smooth="yes"/>
      <point x="267" y="71"/>
      <point x="267" y="72"/>
      <point x="267" y="72" type="curve"/>
    </contour>
  </outline>
</glyph>
<glyph name="dv_Abbreviation" format="1">
  <advance width="569"/>
  <unicode hex="0970"/>
  <outline>
    <contour>
      <point x="242" y="56" type="curve" smooth="yes" name="hr00"/>
      <point x="265" y="50"/>
      <point x="286" y="47"/>
      <point x="308" y="47" type="curve" smooth="yes"/>
      <point x="440" y="47"/>
      <point x="514" y="153"/>
      <point x="514" y="256" type="curve" smooth="yes"/>
      <point x="514" y="365"/>
      <point x="442" y="479"/>
      <point x="331" y="504" type="curve"/>
      <point x="325" y="504" type="line"/>
      <point x="312" y="514" type="line"/>
      <point x="299" y="520"/>
      <point x="283" y="522"/>
      <point x="269" y="522" type="curve" smooth="yes"/>
      <point x="160" y="522"/>
      <point x="60" y="447"/>
      <point x="60" y="320" type="curve" smooth="yes"/>
      <point x="60" y="208"/>
      <point x="133" y="83"/>
    </contour>
    <contour>
      <point x="204" y="133" type="curve" smooth="yes"/>
      <point x="143" y="153"/>
      <point x="117" y="202"/>
      <point x="117" y="255" type="curve" smooth="yes"/>
      <point x="117" y="353"/>
      <point x="198" y="444"/>
      <point x="308" y="444" type="curve" smooth="yes"/>
      <point x="310" y="444"/>
      <point x="312" y="444"/>
      <point x="313" y="444" type="curve"/>
      <point x="334" y="442" type="line"/>
      <point x="336" y="441"/>
      <point x="344" y="437"/>
      <point x="346" y="437" type="curve" smooth="yes"/>
      <point x="347" y="437"/>
      <point x="347" y="438"/>
      <point x="347" y="438" type="curve"/>
      <point x="348" y="438"/>
      <point x="348" y="437"/>
      <point x="349" y="437" type="curve" smooth="yes"/>
      <point x="350" y="437"/>
      <point x="350" y="438"/>
      <point x="351" y="438" type="curve" smooth="yes"/>
      <point x="356" y="433"/>
      <point x="362" y="429"/>
      <point x="369" y="427" type="curve" smooth="yes"/>
      <point x="435" y="412"/>
      <point x="455" y="382"/>
      <point x="455" y="313" type="curve" smooth="yes"/>
      <point x="455" y="206"/>
      <point x="362" y="124"/>
      <point x="262" y="124" type="curve" smooth="yes"/>
      <point x="243" y="124"/>
      <point x="223" y="127"/>
    </contour>
    <contour>
      <point x="337" y="442" type="curve"/>
      <point x="338" y="442"/>
      <point x="339" y="441"/>
      <point x="339" y="441" type="curve"/>
      <point x="338" y="442"/>
      <point x="337" y="442"/>
      <point x="337" y="442" type="curve"/>
      <point x="337" y="442"/>
      <point x="337" y="442"/>
    </contour>
  </outline>
</glyph>
<glyph name="dv_Oe" format="1">
  <advance width="889"/>
  <unicode hex="0973"/>
  <outline>
    <contour>
      <point x="88" y="79" type="curve" smooth="yes" name="hr01"/>
      <point x="122" y="10"/>
      <point x="211" y="-25"/>
      <point x="284" y="-25" type="curve" smooth="yes"/>
      <point x="376" y="-25"/>
      <point x="491" y="35"/>
      <point x="491" y="147" type="curve" smooth="yes" name="hr02"/>
      <point x="491" y="187"/>
      <point x="477" y="230"/>
      <point x="455" y="266" type="curve"/>
      <point x="496" y="253"/>
      <point x="539" y="243"/>
      <point x="581" y="243" type="curve" smooth="yes"/>
      <point x="624" y="243"/>
      <point x="666" y="253"/>
      <point x="702" y="279" type="curve"/>
      <point x="702" y="33" type="line"/>
      <point x="704" y="19"/>
      <point x="733" y="-36"/>
      <point x="752" y="-36" type="curve" smooth="yes"/>
      <point x="756" y="-36"/>
      <point x="759" y="-34"/>
      <point x="762" y="-29" type="curve"/>
      <point x="762" y="609" type="line"/>
      <point x="910" y="609" type="line"/>
      <point x="916" y="610"/>
      <point x="919" y="614"/>
      <point x="919" y="620" type="curve" smooth="yes"/>
      <point x="919" y="641"/>
      <point x="884" y="684"/>
      <point x="865" y="687" type="curve"/>
      <point x="762" y="687" type="line"/>
      <point x="762" y="853" type="line"/>
      <point x="761" y="881"/>
      <point x="729" y="924"/>
      <point x="711" y="924" type="curve" smooth="yes"/>
      <point x="707" y="924"/>
      <point x="703" y="922"/>
      <point x="702" y="915" type="curve"/>
      <point x="702" y="687" type="line"/>
      <point x="538" y="687" type="line"/>
      <point x="533" y="684"/>
      <point x="532" y="680"/>
      <point x="532" y="675" type="curve" smooth="yes"/>
      <point x="532" y="652"/>
      <point x="568" y="615"/>
      <point x="583" y="609" type="curve"/>
      <point x="702" y="609" type="line"/>
      <point x="702" y="422" type="line"/>
      <point x="665" y="348"/>
      <point x="604" y="321"/>
      <point x="537" y="321" type="curve" smooth="yes" name="hr03"/>
      <point x="488" y="321"/>
      <point x="437" y="335"/>
      <point x="391" y="353" type="curve"/>
      <point x="448" y="389"/>
      <point x="473" y="440"/>
      <point x="473" y="490" type="curve" smooth="yes"/>
      <point x="473" y="598"/>
      <point x="378" y="696"/>
      <point x="252" y="696" type="curve" smooth="yes"/>
      <point x="242" y="696"/>
      <point x="117" y="694"/>
      <point x="86" y="633" type="curve"/>
      <point x="86" y="632"/>
      <point x="86" y="631"/>
      <point x="86" y="629" type="curve" smooth="yes"/>
      <point x="86" y="606"/>
      <point x="118" y="558"/>
      <point x="136" y="558" type="curve" smooth="yes"/>
      <point x="148" y="558"/>
      <point x="175" y="590"/>
      <point x="192" y="598" type="curve" smooth="yes"/>
      <point x="219" y="610"/>
      <point x="261" y="619"/>
      <point x="302" y="619" type="curve" smooth="yes"/>
      <point x="360" y="619"/>
      <point x="414" y="604"/>
      <point x="414" y="545" type="curve" smooth="yes"/>
      <point x="414" y="463"/>
      <point x="316" y="402"/>
      <point x="240" y="389" type="curve" smooth="yes" name="hr04"/>
      <point x="222" y="386" type="line" smooth="yes"/>
      <point x="219" y="386"/>
      <point x="216" y="387"/>
      <point x="214" y="387" type="curve"/>
      <point x="213" y="386" type="line"/>
      <point x="203" y="385"/>
      <point x="192" y="385"/>
      <point x="182" y="385" type="curve" smooth="yes"/>
      <point x="170" y="385"/>
      <point x="158" y="385"/>
      <point x="146" y="385" type="curve" smooth="yes"/>
      <point x="135" y="385"/>
      <point x="123" y="387"/>
      <point x="123" y="373" type="curve" smooth="yes"/>
      <point x="123" y="350"/>
      <point x="159" y="313"/>
      <point x="174" y="307" type="curve"/>
      <point x="202" y="308"/>
      <point x="230" y="307"/>
      <point x="257" y="309" type="curve" smooth="yes"/>
      <point x="259" y="309" type="line" smooth="yes"/>
      <point x="314" y="305"/>
      <point x="372" y="303"/>
      <point x="415" y="265" type="curve" smooth="yes" name="hr05"/>
      <point x="429" y="253"/>
      <point x="430" y="227"/>
      <point x="430" y="211" type="curve" smooth="yes"/>
      <point x="430" y="115"/>
      <point x="336" y="53"/>
      <point x="245" y="53" type="curve" smooth="yes"/>
      <point x="207" y="53"/>
      <point x="169" y="63"/>
      <point x="134" y="81" type="curve" smooth="yes"/>
      <point x="122" y="87"/>
      <point x="114" y="97"/>
      <point x="103" y="104" type="curve"/>
      <point x="102" y="104" type="line"/>
      <point x="96" y="108"/>
      <point x="91" y="110"/>
      <point x="87" y="110" type="curve" smooth="yes"/>
      <point x="83" y="110"/>
      <point x="81" y="107"/>
      <point x="81" y="102" type="curve" smooth="yes"/>
      <point x="81" y="96"/>
      <point x="83" y="89"/>
    </contour>
    <contour>
      <point x="107" y="100" type="curve" name="hr07"/>
      <point x="112" y="96" type="line"/>
      <point x="112" y="96"/>
      <point x="112" y="95"/>
      <point x="112" y="95" type="curve"/>
      <point x="112" y="95"/>
      <point x="109" y="97"/>
    </contour>
  </outline>
</glyph>
<glyph name="dv_Jja" format="1">
  <advance width="764"/>
  <unicode hex="097C"/>
  <outline>
    <contour>
      <point x="75" y="-96" type="line" name="hr00"/>
      <point x="70" y="-99"/>
      <point x="69" y="-103"/>
      <point x="69" y="-108" type="curve" smooth="yes"/>
      <point x="69" y="-131"/>
      <point x="105" y="-168"/>
      <point x="120" y="-174" type="curve"/>
      <point x="621" y="-174" type="line"/>
      <point x="627" y="-173"/>
      <point x="630" y="-169"/>
      <point x="630" y="-163" type="curve" smooth="yes"/>
      <point x="630" y="-142"/>
      <point x="595" y="-99"/>
      <point x="576" y="-96" type="curve"/>
    </contour>
    <component base="dv_Ja"/>
  </outline>
</glyph>
<glyph name="uni200C" format="1">
  <advance width="0"/>
  <unicode hex="200C"/>
  <outline>
    <contour>
      <point x="-30" y="-15" type="line" name="hr00"/>
      <point x="-28" y="-29"/>
      <point x="1" y="-84"/>
      <point x="20" y="-84" type="curve" smooth="yes"/>
      <point x="24" y="-84"/>
      <point x="27" y="-82"/>
      <point x="30" y="-77" type="curve"/>
      <point x="30" y="1108" type="line"/>
      <point x="29" y="1136"/>
      <point x="-3" y="1179"/>
      <point x="-21" y="1179" type="curve" smooth="yes"/>
      <point x="-25" y="1179"/>
      <point x="-29" y="1177"/>
      <point x="-30" y="1170" type="curve"/>
    </contour>
  </outline>
</glyph>
<glyph name="uni200D" format="1">
  <advance width="0"/>
  <unicode hex="200D"/>
  <outline>
    <contour>
      <point x="-30" y="-15" type="line" name="hr00"/>
      <point x="-28" y="-29"/>
      <point x="1" y="-84"/>
      <point x="20" y="-84" type="curve" smooth="yes"/>
      <point x="24" y="-84"/>
      <point x="27" y="-82"/>
      <point x="30" y="-77" type="curve"/>
      <point x="30" y="995" type="line"/>
      <point x="55" y="973"/>
      <point x="104" y="921"/>
      <point x="118" y="921" type="curve" smooth="yes"/>
      <point x="122" y="921"/>
      <point x="123" y="923"/>
      <point x="123" y="927" type="curve" smooth="yes"/>
      <point x="123" y="941"/>
      <point x="103" y="976"/>
      <point x="95" y="985" type="curve"/>
      <point x="48" y="1028" type="line"/>
      <point x="68" y="1047" type="line" smooth="yes"/>
      <point x="95" y="1072"/>
      <point x="112" y="1091"/>
      <point x="113" y="1113" type="curve" smooth="yes"/>
      <point x="113" y="1123"/>
      <point x="85" y="1182"/>
      <point x="55" y="1182" type="curve" smooth="yes"/>
      <point x="51" y="1182"/>
      <point x="48" y="1179"/>
      <point x="48" y="1173" type="curve" smooth="yes"/>
      <point x="48" y="1170"/>
      <point x="49" y="1167"/>
      <point x="51" y="1162" type="curve"/>
      <point x="48" y="1157" type="line"/>
      <point x="36" y="1144"/>
      <point x="24" y="1133"/>
      <point x="12" y="1121" type="curve" smooth="yes"/>
      <point x="-18" y="1091" type="line"/>
      <point x="-49" y="1121" type="line"/>
      <point x="-64" y="1132"/>
      <point x="-79" y="1194"/>
      <point x="-110" y="1194" type="curve" smooth="yes"/>
      <point x="-120" y="1194"/>
      <point x="-123" y="1185"/>
      <point x="-123" y="1177" type="curve" smooth="yes"/>
      <point x="-122" y="1153"/>
      <point x="-96" y="1117"/>
      <point x="-86" y="1107" type="curve" smooth="yes"/>
      <point x="-44" y="1066" type="line"/>
      <point x="-73" y="1038"/>
      <point x="-102" y="1012"/>
      <point x="-132" y="985" type="curve"/>
      <point x="-132" y="984"/>
      <point x="-132" y="982"/>
      <point x="-132" y="981" type="curve" smooth="yes"/>
      <point x="-132" y="957"/>
      <point x="-104" y="911"/>
      <point x="-80" y="911" type="curve" smooth="yes"/>
      <point x="-78" y="911"/>
      <point x="-77" y="911"/>
      <point x="-76" y="911" type="curve"/>
      <point x="-30" y="954" type="line"/>
    </contour>
  </outline>
</glyph>
